<svg xmlns="http://www.w3.org/2000/svg" xmlns:xlink="http://www.w3.org/1999/xlink" width="20" height="20" viewBox="0 0 20 20"><defs><clipPath id="a"><rect width="20" height="20" transform="translate(82 656.502)" fill="#fff"/></clipPath></defs><g transform="translate(102 676.502) rotate(180)" clip-path="url(#a)"><g transform="translate(86.93 657.968)"><path d="M0,8.751A1,1,0,0,1-.759,8.4a1,1,0,0,1,.109-1.41L8.4-.759a1,1,0,0,1,1.41.109A1,1,0,0,1,9.7.759L.651,8.51A1,1,0,0,1,0,8.751Z" fill="#ef671f"/><path d="M9.078,10.043a1,1,0,0,1-.706-.292L-.706.708a1,1,0,0,1,0-1.414,1,1,0,0,1,1.414,0L9.784,8.334a1,1,0,0,1-.706,1.708Z" transform="translate(0 7.762)" fill="#ef671f"/></g></g></svg>