<svg xmlns="http://www.w3.org/2000/svg" xmlns:xlink="http://www.w3.org/1999/xlink" width="220" height="228" viewBox="0 0 220 228"><defs><clipPath id="a"><rect width="220" height="228" transform="translate(90 6364)" fill="#fff" stroke="#707070" stroke-width="1"/></clipPath></defs><g transform="translate(-90 -6364)" clip-path="url(#a)"><path d="M79,148.824A14.979,14.979,0,0,1,59.062,140.3c-3.27-8.088.422-17.379,8.226-20.658l102.3-43.94c6.434,16.177-.949,34.649-16.558,41.317L79,148.824Z" transform="translate(98.865 6374.745)" fill="#fff3ed"/><path d="M189.312,41.311C204.921,34.645,212.3,16.066,205.871,0L47.142,68.087A76.44,76.44,0,0,0,15.818,93.005C-9.811,127.65-3.588,177.376,29.95,203.934c33.328,26.557,81.21,19.891,107.05-14.645a16.119,16.119,0,0,0-2.848-22.186,14.929,14.929,0,0,0-21.41,2.951c-15.715,20.874-44.3,24.59-64.23,8.743-20.039-15.956-23.836-45.792-8.437-66.557A45.424,45.424,0,0,1,58.849,97.267L189.312,41.311Z" transform="translate(95.703 6367.718)" fill="#fff3ed"/></g></svg>