<svg xmlns="http://www.w3.org/2000/svg" xmlns:xlink="http://www.w3.org/1999/xlink" width="32" height="32" viewBox="0 0 32 32"><defs><clipPath id="a"><rect width="32" height="32" transform="translate(924 8937.174)" fill="#fff" stroke="#707070" stroke-width="1"/></clipPath></defs><g transform="translate(-924 -8937.174)" clip-path="url(#a)"><path d="M24.784,24.853l1-1L22.2,20.223a11.124,11.124,0,0,0,.656-1.293,3.674,3.674,0,0,0,.27-1.447A4.744,4.744,0,0,0,18.3,12.7a4.556,4.556,0,0,0-3.376,1.389,4.653,4.653,0,0,0-1.37,3.4,4.653,4.653,0,0,0,1.37,3.4A4.556,4.556,0,0,0,18.3,22.268,4.227,4.227,0,0,0,19.845,22a8.75,8.75,0,0,0,1.389-.695ZM18.3,20.724a3.051,3.051,0,0,1-2.257-.965,3.232,3.232,0,0,1,2.3-5.518,3.081,3.081,0,0,1,2.257.945,3.237,3.237,0,0,1,0,4.573,3.1,3.1,0,0,1-2.3.965ZM3.638,32.918a.858.858,0,0,1-.888-.888.817.817,0,0,1,.251-.6.863.863,0,0,1,.637-.251H34.662a.858.858,0,0,1,.888.888.817.817,0,0,1-.251.6.863.863,0,0,1-.637.251Zm3.087-3.859A2.156,2.156,0,0,1,5.142,28.4a2.112,2.112,0,0,1-.656-1.544V9.688A2.24,2.24,0,0,1,6.725,7.45H31.575a2.24,2.24,0,0,1,2.238,2.238V26.86a2.112,2.112,0,0,1-.656,1.544,2.156,2.156,0,0,1-1.582.656Zm0-1.736H31.575a.48.48,0,0,0,.347-.154.445.445,0,0,0,.154-.309V9.688a.42.42,0,0,0-.154-.328.514.514,0,0,0-.347-.135H6.725a.514.514,0,0,0-.347.135.42.42,0,0,0-.154.328V26.86a.445.445,0,0,0,.154.309A.48.48,0,0,0,6.725,27.323Zm-.5,0v0Z" transform="translate(921.25 8932.924)" fill="#ef671f"/></g></svg>