<svg xmlns="http://www.w3.org/2000/svg" xmlns:xlink="http://www.w3.org/1999/xlink" width="32" height="32" viewBox="0 0 32 32"><defs><clipPath id="a"><rect width="32" height="32" transform="translate(924 8937.174)" fill="#fff" stroke="#707070" stroke-width="1"/></clipPath></defs><g transform="translate(-924 -8937.174)" clip-path="url(#a)"><path d="M4.75,29.729V6.15H17.281v5.524H30.687V23.127H29.171V13.19H17.281v3.975h2.964v1.549H17.281v3.975h2.964v1.516H17.281v4.008h6.771v1.516Zm1.516-1.516h3.975V24.205H6.266Zm0-5.524h3.975V18.714H6.266Zm0-5.524h3.975V13.19H6.266Zm0-5.491h3.975V7.666H6.266ZM11.79,28.214h3.975V24.205H11.79Zm0-5.524h3.975V18.714H11.79Zm0-5.524h3.975V13.19H11.79Zm0-5.491h3.975V7.666H11.79ZM29,32.424V29.561h-2.9V28.045H29v-2.9h1.516v2.9h2.863v1.516H30.519v2.863Zm-5.187-13.71V17.165h1.549v1.549Zm0,5.491V22.689h1.549v1.516Z" transform="translate(920.85 8934.327)" fill="#ef671f"/></g></svg>