<svg xmlns="http://www.w3.org/2000/svg" xmlns:xlink="http://www.w3.org/1999/xlink" width="30" height="30" viewBox="0 0 30 30"><defs><clipPath id="a"><rect width="30" height="30" transform="translate(890 169)" fill="#fff" stroke="#707070" stroke-width="1"/></clipPath></defs><g transform="translate(-890 -169)" clip-path="url(#a)"><path d="M13.267,25.16H24.133V23.068H13.267Zm0-5.736H24.133V17.332H13.267ZM9.994,31.1A2.365,2.365,0,0,1,7.7,28.8V5.994a2.182,2.182,0,0,1,.692-1.62,2.226,2.226,0,0,1,1.6-.675H22.209L29.7,11.191V28.8a2.226,2.226,0,0,1-.675,1.6,2.182,2.182,0,0,1-1.62.692ZM21.028,12.271V5.994H9.994V28.8H27.406V12.271ZM9.994,5.994v0Z" transform="translate(886.3 166.601)" fill="#ef671f"/></g></svg>