<svg xmlns="http://www.w3.org/2000/svg" xmlns:xlink="http://www.w3.org/1999/xlink" width="32" height="32" viewBox="0 0 32 32"><defs><clipPath id="a"><rect width="32" height="32" transform="translate(924 8937.174)" fill="#fff" stroke="#707070" stroke-width="1"/></clipPath></defs><g transform="translate(-924 -8937.174)" clip-path="url(#a)"><path d="M16.93,13.136H28.9v-1.76H16.93Zm0,4.5H28.9v-1.76H16.93Zm0,4.537h7.236v-1.8H16.93ZM12.2,13.644a1.3,1.3,0,0,0,.978-.411,1.393,1.393,0,0,0,.391-1,1.346,1.346,0,0,0-.391-.958,1.3,1.3,0,0,0-.978-.411,1.358,1.358,0,0,0-1,.411,1.313,1.313,0,0,0-.411.958A1.4,1.4,0,0,0,12.2,13.644Zm0,4.5a1.337,1.337,0,0,0,1.369-1.369,1.393,1.393,0,0,0-.391-1,1.3,1.3,0,0,0-.978-.411,1.4,1.4,0,0,0-1.408,1.408,1.294,1.294,0,0,0,.411.978A1.393,1.393,0,0,0,12.2,18.143Zm0,4.5a1.369,1.369,0,1,0,0-2.738,1.393,1.393,0,0,0-1,.391,1.369,1.369,0,0,0,0,1.956A1.393,1.393,0,0,0,12.2,22.641ZM5,34.023V7.269a2.206,2.206,0,0,1,.665-1.584A2.155,2.155,0,0,1,7.269,5h25.19a2.175,2.175,0,0,1,1.584.685,2.175,2.175,0,0,1,.685,1.584V26.2a2.341,2.341,0,0,1-2.269,2.269h-21.9Zm1.76-4.3,3.012-3.012H32.459a.472.472,0,0,0,.508-.508V7.269a.472.472,0,0,0-.508-.508H7.269a.473.473,0,0,0-.508.508Zm0-22.452v0Z" transform="translate(920.391 8935.165)" fill="#ef671f"/></g></svg>