<svg xmlns="http://www.w3.org/2000/svg" xmlns:xlink="http://www.w3.org/1999/xlink" width="32" height="32" viewBox="0 0 32 32"><defs><clipPath id="a"><rect width="32" height="32" transform="translate(924 8937.174)" fill="#fff" stroke="#707070" stroke-width="1"/></clipPath></defs><g transform="translate(-924 -8937.174)" clip-path="url(#a)"><path d="M11.218,34.062A2.219,2.219,0,0,1,9,31.844V7.218A2.219,2.219,0,0,1,11.218,5H24.487l7.457,7.457V31.844a2.219,2.219,0,0,1-2.218,2.218ZM23.646,13.222v-6.5H11.218a.525.525,0,0,0-.5.5V31.844a.525.525,0,0,0,.5.5H29.726a.525.525,0,0,0,.5-.5V13.222Zm-12.925-6.5v0Z" transform="translate(919.8 8933.773)" fill="#ef671f"/></g></svg>