<svg xmlns="http://www.w3.org/2000/svg" xmlns:xlink="http://www.w3.org/1999/xlink" width="32" height="32" viewBox="0 0 32 32"><defs><clipPath id="a"><rect width="32" height="32" transform="translate(924 8937.174)" fill="#fff" stroke="#707070" stroke-width="1"/></clipPath></defs><g transform="translate(-924 -8937.174)" clip-path="url(#a)"><path d="M6.889,32.659A2.19,2.19,0,0,1,4.7,30.47V9.189A2.19,2.19,0,0,1,6.889,7H31.642A2.19,2.19,0,0,1,33.83,9.189V30.47a2.19,2.19,0,0,1-2.189,2.189Zm0-1.7H31.642a.411.411,0,0,0,.321-.151.5.5,0,0,0,.132-.34V9.189a.5.5,0,0,0-.132-.34.411.411,0,0,0-.321-.151H6.889a.411.411,0,0,0-.321.151.5.5,0,0,0-.132.34V30.47a.5.5,0,0,0,.132.34.411.411,0,0,0,.321.151ZM9.077,27h6.792V24.735H9.077Zm14.037-3.17,6.943-6.943-1.623-1.623-5.32,5.358-2.151-2.151-1.585,1.623ZM9.077,20.961h6.792V18.7H9.077Zm0-6.037h6.792V12.66H9.077ZM6.436,30.961v0Z" transform="translate(920.9 8933.374)" fill="#ef671f"/></g></svg>