<svg xmlns="http://www.w3.org/2000/svg" xmlns:xlink="http://www.w3.org/1999/xlink" width="32" height="32" viewBox="0 0 32 32"><defs><clipPath id="a"><rect width="32" height="32" transform="translate(924 8937.174)" fill="#fff" stroke="#707070" stroke-width="1"/></clipPath></defs><g transform="translate(-924 -8937.174)" clip-path="url(#a)"><path d="M11.632,21.995a1.007,1.007,0,1,0-.7-.295A.956.956,0,0,0,11.632,21.995Zm0-5.895a1.007,1.007,0,1,0-.7-.295A.956.956,0,0,0,11.632,16.1Zm3.021,5.747H27.474V20.153H14.653Zm0-5.895H27.474V14.258H14.653Zm-.553,16.1V29.105H7.137A2.138,2.138,0,0,1,5,26.968V9.137A2.138,2.138,0,0,1,7.137,7H30.863A2.138,2.138,0,0,1,33,9.137V26.968a2.138,2.138,0,0,1-2.137,2.137H23.9v2.947ZM7.137,27.447H30.863a.505.505,0,0,0,.479-.479V9.137a.505.505,0,0,0-.479-.479H7.137a.505.505,0,0,0-.479.479V26.968a.505.505,0,0,0,.479.479Zm-.479,0v0Z" transform="translate(921 8934.174)" fill="#ef671f"/></g></svg>