<svg xmlns="http://www.w3.org/2000/svg" xmlns:xlink="http://www.w3.org/1999/xlink" width="30" height="30" viewBox="0 0 30 30"><defs><clipPath id="a"><rect width="30" height="30" transform="translate(890 169)" fill="#fff" stroke="#707070" stroke-width="1"/></clipPath></defs><g transform="translate(-890 -169)" clip-path="url(#a)"><g transform="translate(891.957 170.584)"><path d="M60.509,84.513A1.9,1.9,0,0,1,59.047,81l12.779-5.3a3.809,3.809,0,0,1-2.068,4.98l-9.248,3.834Z" transform="translate(-50.209 -65.729)" fill="#ef671f"/><path d="M23.684,4.979A3.813,3.813,0,0,0,25.753,0L5.926,8.206A9.536,9.536,0,1,0,17.15,22.814,1.908,1.908,0,0,0,14.12,20.5a5.722,5.722,0,0,1-9.077-6.968,5.645,5.645,0,0,1,2.345-1.8l16.3-6.744Z" transform="translate(0)" fill="#ef671f"/></g></g></svg>