<svg xmlns="http://www.w3.org/2000/svg" xmlns:xlink="http://www.w3.org/1999/xlink" width="32" height="32" viewBox="0 0 32 32"><defs><clipPath id="a"><rect width="32" height="32" transform="translate(924 8937.174)" fill="#fff" stroke="#707070" stroke-width="1"/></clipPath></defs><g transform="translate(-924 -8937.174)" clip-path="url(#a)"><path d="M16.168,33l-.663-4.421a10.012,10.012,0,0,1-3.132-1.805L8.247,28.653,5.3,23.458l3.721-2.763a7.169,7.169,0,0,1-.111-.829q-.037-.461-.037-.866,0-.368.037-.829t.111-.866L5.3,14.542,8.247,9.384l4.089,1.842a10.166,10.166,0,0,1,1.511-1.032,9.288,9.288,0,0,1,1.621-.737L16.168,5h5.821l.663,4.458a12.743,12.743,0,0,1,1.639.737,6.728,6.728,0,0,1,1.455,1.032l4.2-1.842,2.911,5.158L29.1,17.268q.074.442.111.884t.037.847q0,.368-.037.811t-.111.921l3.758,2.726-2.947,5.195-4.163-1.879a12.552,12.552,0,0,1-1.474,1.05,6.248,6.248,0,0,1-1.621.718L21.989,33Zm2.874-9.837A4.151,4.151,0,0,0,23.205,19a4.151,4.151,0,0,0-4.163-4.163A4.151,4.151,0,0,0,14.879,19a4.151,4.151,0,0,0,4.163,4.163Zm0-1.695a2.453,2.453,0,1,1,1.75-.718A2.382,2.382,0,0,1,19.042,21.468ZM19.079,19ZM17.495,31.342h3.132l.553-4.126a8.371,8.371,0,0,0,2.192-.884,10.217,10.217,0,0,0,1.934-1.474l3.832,1.658L30.611,23.9l-3.389-2.505q.147-.663.239-1.234A7.277,7.277,0,0,0,27.553,19a8.931,8.931,0,0,0-.074-1.179,7.9,7.9,0,0,0-.258-1.179L30.647,14.1l-1.474-2.616-3.868,1.658a7.81,7.81,0,0,0-1.879-1.547,5.812,5.812,0,0,0-2.284-.811l-.479-4.126H17.495l-.479,4.126a7.027,7.027,0,0,0-2.247.811,8.039,8.039,0,0,0-1.916,1.547L8.984,11.484,7.511,14.1,10.9,16.605a10.758,10.758,0,0,0-.239,1.161A8.227,8.227,0,0,0,10.568,19a7.866,7.866,0,0,0,.092,1.216q.092.589.239,1.179L7.511,23.9l1.474,2.616,3.832-1.658A7.931,7.931,0,0,0,14.75,26.35a9.31,9.31,0,0,0,2.266.866Z" transform="translate(921.1 8933.773)" fill="#ef671f"/></g></svg>