<svg xmlns="http://www.w3.org/2000/svg" xmlns:xlink="http://www.w3.org/1999/xlink" width="72" height="72" viewBox="0 0 72 72"><defs><linearGradient id="a" x1="-0.159" x2="0.564" y2="0.674" gradientUnits="objectBoundingBox"><stop offset="0" stop-color="#d72777"/><stop offset="1" stop-color="#ef971f"/></linearGradient><clipPath id="b"><rect width="32" height="32" transform="translate(70.547 6406.561)" fill="#e3e3e3"/></clipPath></defs><g transform="translate(-134.547 -6410.561)"><circle cx="36" cy="36" r="36" transform="translate(134.547 6410.561)" fill="url(#a)"/><g transform="translate(84 24)" clip-path="url(#b)"><path d="M338.866,5199.16H312.227a2.733,2.733,0,0,1-2.68-2.68V5176.24a2.732,2.732,0,0,1,2.68-2.68h26.639a2.565,2.565,0,0,1,1.9.8,2.617,2.617,0,0,1,.78,1.88v20.239a2.611,2.611,0,0,1-.78,1.88A2.56,2.56,0,0,1,338.866,5199.16Zm-19.217-8.535v2.047h16.9v-2.047Zm-4.093,0a.982.982,0,0,0-.719.291,1.016,1.016,0,0,0-.29.748.989.989,0,0,0,1.009,1.009,1.039,1.039,0,0,0,.733-.29.959.959,0,0,0,.305-.719,1.026,1.026,0,0,0-.291-.733A.989.989,0,0,0,315.556,5190.625Zm4.093-5.072v2.016h16.9v-2.016Zm-4.093,0a1.008,1.008,0,1,0,0,2.016,1.034,1.034,0,0,0,.733-.291.954.954,0,0,0,.305-.718.975.975,0,0,0-.291-.718A1.018,1.018,0,0,0,315.556,5185.553Zm4.093-5.1v2.047h16.9v-2.047Zm-4.093,0a.992.992,0,0,0-1.009,1.009,1.035,1.035,0,0,0,.29.733.96.96,0,0,0,.719.306,1.034,1.034,0,0,0,.733-.291.989.989,0,0,0,.305-.748.974.974,0,0,0-.291-.718A1.014,1.014,0,0,0,315.556,5180.45Z" transform="translate(-239 1236)" fill="#fff"/></g></g></svg>