<svg xmlns="http://www.w3.org/2000/svg" xmlns:xlink="http://www.w3.org/1999/xlink" width="72" height="72" viewBox="0 0 72 72"><defs><linearGradient id="a" x1="-0.159" x2="0.564" y2="0.674" gradientUnits="objectBoundingBox"><stop offset="0" stop-color="#d72777"/><stop offset="1" stop-color="#ef971f"/></linearGradient><clipPath id="b"><rect width="32" height="32" transform="translate(70.547 6406.561)" fill="#e3e3e3"/></clipPath></defs><g transform="translate(-134.547 -6410.561)"><circle cx="36" cy="36" r="36" transform="translate(134.547 6410.561)" fill="url(#a)"/><g transform="translate(84 24)" clip-path="url(#b)"><path d="M26.373,28.186l1.84-1.88-3.92-3.92a7.245,7.245,0,0,0,.84-1.82,6.773,6.773,0,0,0,.279-1.94,6.687,6.687,0,0,0-2-4.92,6.593,6.593,0,0,0-4.84-2,6.773,6.773,0,0,0-4.92,2,6.62,6.62,0,0,0-2.04,4.92,6.573,6.573,0,0,0,2.04,4.88,6.772,6.772,0,0,0,4.92,2,6.846,6.846,0,0,0,2.02-.3,5.365,5.365,0,0,0,1.82-.98Zm-7.8-5.319a4.234,4.234,0,0,1-3.059-1.22,4.035,4.035,0,0,1-1.26-3.02,4.017,4.017,0,0,1,1.26-3.04,4.272,4.272,0,0,1,3.059-1.2,4.023,4.023,0,0,1,2.961,1.2,4.12,4.12,0,0,1,1.2,3.04,4.138,4.138,0,0,1-1.2,3.02A3.989,3.989,0,0,1,18.573,22.867Zm-12.559,9.4a2.573,2.573,0,0,1-1.88-.8,2.571,2.571,0,0,1-.8-1.88V9.346a2.571,2.571,0,0,1,.8-1.88,2.573,2.573,0,0,1,1.88-.8H32.653a2.553,2.553,0,0,1,1.9.8,2.6,2.6,0,0,1,.78,1.88v20.24a2.6,2.6,0,0,1-.78,1.88,2.553,2.553,0,0,1-1.9.8Z" transform="translate(67.214 6402.894)" fill="#fff"/></g></g></svg>