<svg xmlns="http://www.w3.org/2000/svg" xmlns:xlink="http://www.w3.org/1999/xlink" width="72" height="72" viewBox="0 0 72 72"><defs><clipPath id="a"><rect width="32" height="32" transform="translate(70.547 6406.561)" fill="#ef671f"/></clipPath></defs><g transform="translate(-134.547 -6410.561)"><circle cx="36" cy="36" r="36" transform="translate(134.547 6410.561)" fill="#fff"/><path d="M36,2A34.009,34.009,0,0,0,22.766,67.329,34.009,34.009,0,0,0,49.234,4.671,33.785,33.785,0,0,0,36,2m0-2A36,36,0,1,1,0,36,36,36,0,0,1,36,0Z" transform="translate(134.547 6410.561)" fill="#ef671f"/><g transform="translate(84 24)" clip-path="url(#a)"><g transform="translate(-82.333 -22.333)"><path d="M5.839,33.818a2.4,2.4,0,0,1-1.757-.749,2.4,2.4,0,0,1-.749-1.757V8.875H5.839V31.312H28.276v2.506Z" transform="translate(150.547 6425.993)" fill="#ef671f"/><path d="M7.311,29.831A2.295,2.295,0,0,1,5,27.52V7.311A2.295,2.295,0,0,1,7.311,5H21.105l8.726,8.726V27.52a2.295,2.295,0,0,1-2.311,2.311Zm3.173-5.759H24.347V21.761H10.483Zm0-5.518H24.347V16.277H10.483Zm0-5.483h9.587V10.759H10.483Z" transform="translate(153.966 6424.894)" fill="#ef671f"/></g></g></g></svg>