<svg xmlns="http://www.w3.org/2000/svg" width="37.057" height="30.111" viewBox="0 0 37.057 30.111"><path d="M34.263,8.993c.023.327.023.653.023.983,0,10.046-7.648,21.632-21.632,21.632V31.6A21.523,21.523,0,0,1,1,28.194a15.465,15.465,0,0,0,1.81.11,15.266,15.266,0,0,0,9.442-3.261,7.612,7.612,0,0,1-7.1-5.28,7.578,7.578,0,0,0,3.432-.131,7.6,7.6,0,0,1-6.1-7.452v-.1a7.554,7.554,0,0,0,3.451.951A7.612,7.612,0,0,1,3.58,2.884a21.578,21.578,0,0,0,15.669,7.943A7.61,7.61,0,0,1,32.205,3.893a15.256,15.256,0,0,0,4.828-1.846,7.631,7.631,0,0,1-3.342,4.2,15.12,15.12,0,0,0,4.366-1.2A15.445,15.445,0,0,1,34.263,8.993Z" transform="translate(-1 -1.497)" fill="#1d9bf0"/></svg>