<svg xmlns="http://www.w3.org/2000/svg" xmlns:xlink="http://www.w3.org/1999/xlink" width="574" height="280" viewBox="0 0 574 280"><defs><clipPath id="a"><rect width="574" height="280" transform="translate(616 6129)" fill="#fff" stroke="#707070" stroke-width="1"/></clipPath></defs><g transform="translate(-616 -6129)" clip-path="url(#a)"><g transform="translate(684.056 6133.393)"><path d="M224.551,221l11.94-2.473-.49,9.238,6.565.338,1.114-20.974-10.812-.557-.327,6.157-12.738-.658-.4,7.5Z" transform="translate(-18.28 -25.098)" fill="#bdbebf"/><path d="M291.087,217.833l-.71,13.341,20.721,1.069L312.122,213l-15.7-.81Z" transform="translate(-23.651 -25.523)" fill="#bdbebf"/><path d="M278.111,204.3l-.5,9.426-.178,3.4-15.25,14.908-.615,11.544,6.176.319,13.176-14.756,7.336.378.71-13.341,5.333-5.644.289-5.386Z" transform="translate(-21.47 -24.926)" fill="#bdbebf"/><path d="M302.221,198.261l-22.494-1.16-.478,8.979,16.473.849-.282,5.387,15.7.81.6-11.29,9.19-7.756.8-15.15Z" transform="translate(-22.809 -23.006)" fill="#bdbebf"/><path d="M174.965,203.446l-.471,8.85-3.308,3.882-.241,4.615,25.1,1.295.929-17.507Z" transform="translate(-14.613 -24.861)" fill="#bdbebf"/><path d="M376.27,139.488l1.588-29.762-18.022-.93-.437,8.215,11.327.579-.189,3.593-16.217-.837.4-7.44-8.492-.438-.4,7.441-6.695-.346-.959,17.961,19.565,1.01Z" transform="translate(-27.267 -17.699)" fill="#bdbebf"/><path d="M338.228,136.1l19.565,1.009-1.831,34.379L336.4,170.484Z" transform="translate(-27.133 -19.765)" fill="#bdbebf"/><path d="M236.91,217.06l-11.939,2.473-1.608,30.21,10.673-11.412,1.738.091.646-12.122Z" transform="translate(-18.579 -25.891)" fill="#bdbebf"/><path d="M342.172,196.065l13.047-25.313-19.564-1.01-.255-.013-10.352,10.259-.807,15.15Z" transform="translate(-26.213 -22.31)" fill="#bdbebf"/><path d="M313.815,213.066l19.82,1.022-1.024,19.243-19.82-1.022Z" transform="translate(-25.347 -25.589)" fill="#bdbebf"/><path d="M211,248.443l-.336,6.308-4.425,3.051L206,262.417l2.468,2.731,2.256-.558,11.17-9.839.544-10.2-6.565-.339Z" transform="translate(-17.265 -27.946)" fill="#bdbebf"/><path d="M290.406,231.237l20.722,1.069-.588,11.035-20.721-1.069Z" transform="translate(-23.608 -26.964)" fill="#bdbebf"/><path d="M254.187,213.007l-.1,1.925-4.373,3.922-5.307-.278-.456,8.564-6.565-.338-.645,12.126,2.9.153,6.37.328,4.045,4.068,9.653.5.614-11.545,15.247-14.908.178-3.4Z" transform="translate(-19.592 -25.585)" fill="#bdbebf"/><path d="M266.358,196.785l-10.729,14.43-.181,3.464,21.557,1.112.979-18.406Z" transform="translate(-21.007 -24.357)" fill="#bdbebf"/><path d="M289.836,242.143l-.464,8.723,17,.877,3.971-4.556.208-3.975Z" transform="translate(-23.575 -27.789)" fill="#bdbebf"/><path d="M288.9,259.692l13.512.7.263-5,3.713-3.923-17-.877Z" transform="translate(-23.539 -28.428)" fill="#bdbebf"/><path d="M281.969,230.077l-6.589,7.378-.642,12.059,13.514.694.465-8.722.587-11.031Z" transform="translate(-22.467 -26.876)" fill="#bdbebf"/><path d="M210.147,253.55l4.668-4.048.809-15.195-7.872-8.5-.993,18.651-7.443,9.841,9.41.486Z" transform="translate(-16.76 -26.553)" fill="#bdbebf"/><path d="M146.367,247.457l-11.422,15.772-.354,6.646,9.073.468,6.04-8.562,13.253.684L165.47,268l5.11-3.883-8.64-15.853Z" transform="translate(-11.862 -28.192)" fill="#bdbebf"/><path d="M183.607,244.923l-15.833-.817-.192,3.657-3.411-.179-.344,6.484,22.715,1.172.037-.707Z" transform="translate(-14.074 -27.938)" fill="#bdbebf"/><path d="M95.4,242.024l-4.246-.223-4.273-3.34s.156-1.771.262-3.411l-3.169-.166-2.124-.111L81.186,247.2l4.71,4.875.233-4.448,2.7.141,6.471-4.012Z" transform="translate(-7.821 -27.232)" fill="#ffd8c3"/><path d="M88.07,262.156l-7.953,7.933,6.608.34,2.24,7.985,13.985-14.621-4.228-7.865L88.429,255.4Z" transform="translate(-7.74 -28.792)" fill="#ffd8c3"/><path d="M109.375,241.308l.5-9.289-9.523-.492-4.02,3.731-8.721-.449c-.106,1.634-.262,3.406-.262,3.406l4.273,3.347,4.246.222-.091,1.735L89.3,247.53l-.323,6.067,10.294.532.558-6.927Z" transform="translate(-8.287 -26.986)" fill="#ffd8c3"/><path d="M88.345,279.617l-2.24-7.985-6.611-.34-6.626,6.61-.954,17.912,4.761.25.406-7.626,2.316.122-.775,14.553,3.86.2,9.719-9.94Z" transform="translate(-7.119 -29.995)" fill="#ffd8c3"/><path d="M118.623,244.34l-8.366-.432.1-1.8L100.81,248l-.561,6.924,4.226,7.864,16.222.837,1.024-16.922Z" transform="translate(-9.263 -27.787)" fill="#ffd8c3"/><path d="M89.69,279.1l3.857,13.755,26.312-26.905.038-.636-16.222-.837Z" transform="translate(-8.464 -29.48)" fill="#ffd8c3"/><path d="M3.1,296.952l-.422,4.323L5.7,302.649l19.8-15.665.182-3.466-4.189-1.26Z" transform="translate(-1.88 -30.825)" fill="#ffd8c3"/><path d="M273.008,249.733l.574-10.862-6.548,6.614-15.545,15.708,21.045,1,2.959-6.024.08-.164,2.7.141-.637,11.961,4.246.222,3.825-2.761.369-6.934.436-8.2Z" transform="translate(-20.708 -27.542)" fill="#ffd8c3"/><path d="M447.031,70.672l.417-6.887,6.822-3.345.446-8.378-6.756,3.316,0-.066-10.452-.54L410.416,11.486l-24.129-1.245-1.432,26.887-8.336,7.545-.674,12.653L353.259,56.16l-.512,9.62-11.689,8.694-1.366,25.654,15.443.8.36-6.759,7.527.387.429-7.972-7.526-.388.488-9.187,9.91.511-.436,8.2,10.344-7.7,2.2.115,17.751,22.641,20.059-20.691,30.122,1.554,10.226-5.388.266-5.077Z" transform="translate(-27.382 -10.241)" fill="#ffd8c3"/><path d="M355.135,101.424h-.026l-15.443-.8a.5.5,0,0,1-.474-.526l1.366-25.654a.5.5,0,0,1,.2-.375l11.5-8.554.5-9.385a.5.5,0,0,1,.525-.473L375.372,56.8l.647-12.154a.5.5,0,0,1,.164-.344l8.184-7.407,1.421-26.681a.5.5,0,0,1,.525-.473l24.129,1.245a.5.5,0,0,1,.4.234L437.8,54.286l10.183.526,6.517-3.2a.5.5,0,0,1,.72.475l-.446,8.378a.5.5,0,0,1-.279.422l-6.56,3.217-.369,6.093,9.316.481a.5.5,0,0,1,.474.526l-.266,5.077a.5.5,0,0,1-.266.416l-10.226,5.388a.5.5,0,0,1-.259.057l-29.9-1.542-19.9,20.528a.5.5,0,0,1-.752-.04L378.175,78.628l-1.791-.094-10.2,7.588a.5.5,0,0,1-.8-.428l.41-7.7-8.911-.459-.435,8.188,7.026.362a.5.5,0,0,1,.474.526l-.429,7.972a.5.5,0,0,1-.525.472l-7.028-.362-.333,6.26A.5.5,0,0,1,355.135,101.424Zm-14.917-1.769,14.444.744.333-6.26a.5.5,0,0,1,.525-.473l7.029.362.375-6.974-7.025-.362a.5.5,0,0,1-.474-.526l.488-9.187a.5.5,0,0,1,.525-.473l9.91.511a.5.5,0,0,1,.474.526l-.38,7.141,9.49-7.06a.5.5,0,0,1,.325-.1l2.2.115a.5.5,0,0,1,.367.191l17.4,22.19,19.66-20.279a.5.5,0,0,1,.385-.151l29.985,1.547,9.853-5.191.225-4.293-9.32-.481a.5.5,0,0,1-.473-.53l.417-6.887a.5.5,0,0,1,.279-.419l6.558-3.216.385-7.234-5.991,2.94a.5.5,0,0,1-.491-.029l-10.2-.527a.5.5,0,0,1-.4-.234L410.13,11.972l-23.37-1.206-1.405,26.388a.5.5,0,0,1-.164.344l-8.184,7.407-.663,12.447a.5.5,0,0,1-.525.473l-22.087-1.139-.486,9.121a.5.5,0,0,1-.2.375l-11.5,8.554Z" transform="translate(-27.382 -10.241)" fill="#fff"/><path d="M223.684,220.245l11.92-2.168-.436,8.322,6.564.338,1-18.892-10.812-.557-.295,5.545-12.739-.657-.361,6.759Z" transform="translate(-18.214 -25.152)" fill="#ffa780"/><path d="M241.732,227.238h-.026l-6.564-.338a.5.5,0,0,1-.474-.525l.4-7.691-11.3,2.054a.5.5,0,0,1-.243-.016l-5.125-1.3a.5.5,0,0,1-.376-.511l.361-6.759a.5.5,0,0,1,.525-.473l12.24.632.268-5.047a.5.5,0,0,1,.525-.473l10.812.557a.5.5,0,0,1,.474.526l-1,18.892A.5.5,0,0,1,241.732,227.238Zm-6.039-1.312,5.565.287.951-17.894-9.813-.506-.268,5.047a.5.5,0,0,1-.525.473l-12.241-.632-.313,5.85,4.654,1.182,11.811-2.148a.5.5,0,0,1,.589.518Z" transform="translate(-18.214 -25.152)" fill="#fff"/><path d="M290.184,217.842l-.641,12.019,20.72,1.069.923-17.336-15.7-.81Z" transform="translate(-23.587 -25.568)" fill="#ef671f"/><path d="M295.485,212.284h.026l15.7.81a.5.5,0,0,1,.474.526l-.923,17.336a.5.5,0,0,1-.525.473l-20.72-1.069a.5.5,0,0,1-.474-.526l.641-12.019a.5.5,0,0,1,.154-.335l5.3-5.058A.5.5,0,0,1,295.485,212.284Zm15.176,1.783-14.986-.773-5,4.772-.6,11.321L309.79,230.4Z" transform="translate(-23.587 -25.568)" fill="#fff"/><path d="M277.091,206.615l-.452,8.492-.161,3.064-15.165,13.353-.554,10.4,6.175.319,13.1-13.229,7.335.378.64-12.016,5.3-5.058.256-4.853Z" transform="translate(-21.409 -25.101)" fill="#ffa780"/><path d="M277.091,206.115h.026l16.472.849a.5.5,0,0,1,.474.526l-.256,4.853a.5.5,0,0,1-.154.335L288.5,217.6l-.629,11.818a.5.5,0,0,1-.525.473l-7.112-.367-12.939,13.07a.5.5,0,0,1-.381.148l-6.175-.319a.5.5,0,0,1-.474-.526l.554-10.4a.5.5,0,0,1,.169-.349l15.008-13.214.15-2.854.452-8.492A.5.5,0,0,1,277.091,206.115Zm15.947,1.823-15.474-.8-.586,11.057a.5.5,0,0,1-.169.349L261.8,231.76l-.516,9.69,5.452.282,12.939-13.07a.5.5,0,0,1,.381-.148l6.837.352.613-11.518a.5.5,0,0,1,.154-.335l5.157-4.921Z" transform="translate(-21.409 -25.101)" fill="#fff"/><path d="M301.353,197.709l-22.493-1.16-.432,8.088,16.472.849-.254,4.852,15.7.81.538-10.17,9.145-6.939.726-13.647Z" transform="translate(-22.746 -23.117)" fill="#ffa780"/><path d="M310.348,211.648h-.026l-15.7-.81a.5.5,0,0,1-.474-.526l.228-4.352-15.973-.824a.5.5,0,0,1-.474-.526l.432-8.088a.5.5,0,0,1,.525-.473l22.287,1.149,19.251-17.18a.5.5,0,0,1,.832.4l-.726,13.647a.5.5,0,0,1-.2.372l-8.961,6.8-.526,9.939A.5.5,0,0,1,310.348,211.648Zm-15.176-1.783,14.7.758.512-9.672a.5.5,0,0,1,.2-.372l8.961-6.8.65-12.216-18.508,16.518a.5.5,0,0,1-.359.126l-21.994-1.134-.378,7.089,15.972.824a.5.5,0,0,1,.474.526Z" transform="translate(-22.746 -23.117)" fill="#fff"/><path d="M137.317,225.5l6.675-5.389,6.177.32,7.08-5.719,10.225.524,3.282-3.482.428-7.97-24.13-1.245-13.766,10.238-.2-.01-.665,12.481Z" transform="translate(-11.698 -24.793)" fill="#ffd8c3"/><path d="M137.317,226h-.026l-4.892-.252a.5.5,0,0,1-.474-.526l.665-12.481a.5.5,0,0,1,.525-.473h.02l13.622-10.131a.5.5,0,0,1,.324-.1l24.13,1.245a.5.5,0,0,1,.474.526l-.428,7.97a.5.5,0,0,1-.135.316l-3.282,3.482a.5.5,0,0,1-.389.156l-10.034-.514-6.932,5.6a.5.5,0,0,1-.34.11l-5.986-.31-6.526,5.269A.5.5,0,0,1,137.317,226Zm-4.367-1.226,4.2.217,6.526-5.269a.5.5,0,0,1,.34-.11l5.986.31,6.931-5.6a.5.5,0,0,1,.34-.11l9.994.512,3-3.18.391-7.287-23.449-1.21-13.622,10.13-.02.014Z" transform="translate(-11.698 -24.793)" fill="#fff"/><path d="M215.362,233.464l-.728,13.687.2-.158,6.563.339,1.449-27.213-5.157-1.31.36-6.759.313-5.893-9.844-.507-1.07,20.119Z" transform="translate(-17.375 -25.028)" fill="#f7982e"/><path d="M221.4,247.833h-.026L215,247.5l-.054.042a.5.5,0,0,1-.808-.42l.716-13.461-7.75-7.536a.5.5,0,0,1-.151-.385l1.07-20.119a.5.5,0,0,1,.525-.473l9.844.507a.5.5,0,0,1,.474.526l-.651,12.241,4.759,1.209a.5.5,0,0,1,.376.511L221.9,247.359A.5.5,0,0,1,221.4,247.833Zm-6.23-1.323,5.757.3,1.4-26.3-4.759-1.209a.5.5,0,0,1-.376-.511l.646-12.151-8.845-.456L207.96,225.57l7.75,7.536a.5.5,0,0,1,.151.385Z" transform="translate(-17.375 -25.028)" fill="#fff"/><path d="M174.036,203.883l-.424,7.971-3.286,3.478-.217,4.16,25.094,1.295.841-15.77Z" transform="translate(-14.55 -24.894)" fill="#ffd8c3"/><path d="M174.036,203.383h.026l22.007,1.135a.5.5,0,0,1,.474.526l-.841,15.77a.5.5,0,0,1-.525.473l-25.094-1.295a.5.5,0,0,1-.474-.525l.217-4.16a.5.5,0,0,1,.136-.317l3.16-3.345.414-7.788A.5.5,0,0,1,174.036,203.383Zm21.482,2.109-21.009-1.084-.4,7.473a.5.5,0,0,1-.136.317l-3.16,3.345-.182,3.477,24.1,1.243Z" transform="translate(-14.55 -24.894)" fill="#fff"/><path d="M375.513,136.816l1.427-26.809-18.017-.93-.395,7.4,11.327.584-.169,3.236-16.216-.837.357-6.7-8.493-.437-.357,6.7-6.693-.345-.864,16.177,19.562,1.009Z" transform="translate(-27.211 -17.72)" fill="#ffd8c3"/><path d="M375.514,137.316h-.026l-38.093-1.965a.5.5,0,0,1-.474-.526l.864-16.177a.5.5,0,0,1,.525-.473l6.195.319.33-6.2a.5.5,0,0,1,.525-.473l8.493.437a.5.5,0,0,1,.474.526l-.33,6.2,15.217.785.117-2.237-10.827-.558a.5.5,0,0,1-.474-.526l.395-7.4a.5.5,0,0,1,.525-.473l18.017.93a.5.5,0,0,1,.474.526l-1.427,26.809A.5.5,0,0,1,375.514,137.316Zm-37.568-2.939,37.095,1.914,1.374-25.811L359.4,109.6l-.341,6.4,10.827.558a.5.5,0,0,1,.474.525l-.169,3.236a.5.5,0,0,1-.525.473l-16.216-.837a.5.5,0,0,1-.474-.526l.33-6.2-7.494-.386-.33,6.2a.5.5,0,0,1-.525.473l-6.195-.319Z" transform="translate(-27.211 -17.72)" fill="#fff"/><path d="M337.287,136.956l19.562,1.009L355.2,168.933l-19.563-1.01Z" transform="translate(-27.076 -19.83)" fill="#ffd8c3"/><path d="M336.814,136.431l20.561,1.061-1.7,31.966L335.112,168.4Zm19.509,2.008-18.564-.958-1.6,29.968,18.565.959Z" transform="translate(-27.076 -19.83)" fill="#fff"/><path d="M235.913,218.958l-11.923,2.168-1.449,27.214,10.609-10.23,1.739.092.581-10.92Z" transform="translate(-18.517 -26.035)" fill="#f7982e"/><path d="M235.913,218.458a.5.5,0,0,1,.5.527l-1.024,19.243a.5.5,0,0,1-.526.473l-1.522-.08L222.888,248.7a.5.5,0,0,1-.846-.387l1.449-27.214a.5.5,0,0,1,.41-.465l11.923-2.168A.5.5,0,0,1,235.913,218.458Zm-1.5,19.217.964-18.112-10.912,1.984L223.108,247.1l9.7-9.349a.5.5,0,0,1,.373-.139Z" transform="translate(-18.517 -26.035)" fill="#fff"/><path d="M135.836,226.27l-4.892-.256.667-12.477-15.186-.784-2.942,4.369-.591,11.092,2.444,4.993,8.493.437,5.091,6.172,6.177.32,3.5-3.991-3.107-3.462Z" transform="translate(-10.22 -25.565)" fill="#ffd8c3"/><path d="M116.425,212.253h.026l15.186.784a.5.5,0,0,1,.474.526l-.641,11.978,4.393.23a.5.5,0,0,1,.473.526L136,232.5l2.968,3.308a.5.5,0,0,1,0,.664l-3.5,3.991a.5.5,0,0,1-.4.169l-6.177-.32a.5.5,0,0,1-.36-.181l-4.951-6-8.273-.426a.5.5,0,0,1-.423-.28l-2.444-4.993a.5.5,0,0,1-.05-.246l.591-11.092a.5.5,0,0,1,.085-.253l2.942-4.369A.5.5,0,0,1,116.425,212.253Zm14.66,1.757-14.4-.743-2.707,4.02-.576,10.824,2.257,4.612,8.2.422a.5.5,0,0,1,.36.181l4.951,6,5.716.3,3.051-3.476-2.81-3.131a.5.5,0,0,1-.127-.361l.315-5.913-4.393-.23a.5.5,0,0,1-.473-.526Z" transform="translate(-10.22 -25.565)" fill="#fff"/><path d="M341.368,194.211l12.909-22.741-19.564-1.009-.255-.014-10.294,9.191-.726,13.648Z" transform="translate(-26.152 -22.364)" fill="#ffd8c3"/><path d="M341.368,194.711h-.026l-17.931-.925a.5.5,0,0,1-.474-.526l.726-13.648a.5.5,0,0,1,.166-.346l10.294-9.191a.5.5,0,0,1,.36-.126l.255.014,19.563,1.009a.5.5,0,0,1,.409.746L341.8,194.458A.5.5,0,0,1,341.368,194.711Zm-17.405-1.9,17.123.884,12.357-21.768-18.806-.97-9.985,8.915Z" transform="translate(-26.152 -22.364)" fill="#fff"/><path d="M312.88,213.667l19.819,1.022-.923,17.333L311.957,231Z" transform="translate(-25.284 -25.635)" fill="#ef671f"/><path d="M312.408,213.142l20.818,1.074-.977,18.331-20.818-1.07Zm19.766,2.021-18.821-.971-.87,16.338,18.821.967Z" transform="translate(-25.284 -25.635)" fill="#fff"/><path d="M209.794,254.164l-.3,5.682-4.407,2.726-.218,4.161,2.482,2.473,2.253-.494,11.116-8.811.488-9.185-6.564-.339Z" transform="translate(-17.18 -28.413)" fill="#f7982e"/><path d="M214.641,249.877h.026l6.564.339a.5.5,0,0,1,.473.526l-.488,9.185a.5.5,0,0,1-.189.365L209.911,269.1a.5.5,0,0,1-.2.1l-2.253.494a.5.5,0,0,1-.46-.134l-2.482-2.473a.5.5,0,0,1-.146-.38l.218-4.161a.5.5,0,0,1,.236-.4l4.185-2.588.288-5.421a.5.5,0,0,1,.191-.367l4.847-3.787A.5.5,0,0,1,214.641,249.877Zm6.038,1.313-5.877-.3-4.521,3.532-.29,5.454a.5.5,0,0,1-.236.4l-4.185,2.588-.193,3.677,2.13,2.123,1.873-.411,10.849-8.6Z" transform="translate(-17.18 -28.413)" fill="#fff"/><path d="M289.5,231.261l20.719,1.069-.529,9.939L288.971,241.2Z" transform="translate(-23.544 -26.966)" fill="#ef671f"/><path d="M289.027,230.736l21.717,1.12-.582,10.938-21.717-1.12Zm20.666,2.067-19.72-1.017-.476,8.941,19.72,1.017Z" transform="translate(-23.544 -26.966)" fill="#fff"/><path d="M255.357,182.163l-.385,7.164-7.934,16.738-2.368-.124-.6,11.181,5.307.278,4.349-3.512.092-1.734.163-3.12,10.646-12.947.38-6.237,10.808.557.385-7.17Z" transform="translate(-20.147 -23.251)" fill="#ffa780"/><path d="M255.357,181.663h.026l20.848,1.075a.5.5,0,0,1,.474.526l-.385,7.17a.5.5,0,0,1-.525.473l-10.313-.532-.35,5.743a.5.5,0,0,1-.113.287l-10.542,12.82-.246,4.69a.5.5,0,0,1-.185.363l-4.349,3.512a.5.5,0,0,1-.34.11l-5.307-.278a.5.5,0,0,1-.473-.526l.6-11.181a.5.5,0,0,1,.525-.473l2.034.106,7.749-16.346.379-7.066A.5.5,0,0,1,255.357,181.663Zm20.322,2.049-19.849-1.024-.358,6.666a.5.5,0,0,1-.047.187l-7.934,16.738a.5.5,0,0,1-.478.285l-1.869-.1-.542,10.182,4.617.242,4.026-3.251.242-4.631a.5.5,0,0,1,.113-.292L264.143,195.9l.37-6.076a.5.5,0,0,1,.525-.469l10.31.532Z" transform="translate(-20.147 -23.251)" fill="#fff"/><path d="M253.2,214.6l-.091,1.735-4.349,3.512-5.308-.278-.411,7.718-6.564-.338-.581,10.919,2.9.152,6.37.328,4.065,3.686,9.652.5.551-10.4L274.6,218.776l.163-3.063Z" transform="translate(-19.528 -25.705)" fill="#ffa780"/><path d="M253.2,214.1h.026l21.556,1.113a.5.5,0,0,1,.474.526L275.1,218.8a.5.5,0,0,1-.169.349l-15.008,13.216-.54,10.19a.5.5,0,0,1-.525.473l-9.652-.5a.5.5,0,0,1-.31-.129l-3.933-3.566-9.087-.471a.5.5,0,0,1-.473-.526l.581-10.919a.5.5,0,0,1,.525-.473l6.065.313.385-7.22a.5.5,0,0,1,.525-.473l5.116.268,4.026-3.251.08-1.512A.5.5,0,0,1,253.2,214.1Zm21.031,2.086-20.557-1.061-.065,1.236a.5.5,0,0,1-.185.363l-4.349,3.512a.5.5,0,0,1-.34.11l-4.809-.252-.385,7.219a.5.5,0,0,1-.525.473l-6.065-.313-.528,9.921,2.4.125,6.369.328a.5.5,0,0,1,.31.129l3.933,3.566,8.975.462.524-9.9a.5.5,0,0,1,.169-.349l15.008-13.216Z" transform="translate(-19.528 -25.705)" fill="#fff"/><path d="M265.433,197.222l-10.648,12.946-.164,3.121,21.555,1.112.883-16.579Z" transform="translate(-20.945 -24.39)" fill="#ffa780"/><path d="M265.433,196.722h.026l11.626.6a.5.5,0,0,1,.474.526l-.883,16.579a.5.5,0,0,1-.525.473L254.6,213.788a.5.5,0,0,1-.474-.526l.164-3.121a.5.5,0,0,1,.113-.291L265.047,196.9A.5.5,0,0,1,265.433,196.722Zm11.1,1.573-10.874-.561-10.384,12.624-.129,2.456,20.557,1.06Z" transform="translate(-20.945 -24.39)" fill="#fff"/><path d="M331.733,232.1l-19.819-1.021-.53,9.935,12.355.638,4.321,10.034,23.227-35.961-18.633-.96Z" transform="translate(-25.24 -25.718)" fill="#ef671f"/><path d="M332.656,214.267h.026l18.633.96a.5.5,0,0,1,.394.771L328.482,251.96a.5.5,0,0,1-.879-.074l-4.2-9.748-12.045-.622a.5.5,0,0,1-.474-.526l.53-9.935a.5.5,0,0,1,.525-.473l19.32,1,.9-16.838A.5.5,0,0,1,332.656,214.267Zm17.744,1.915-17.271-.89-.9,16.838a.5.5,0,0,1-.525.473l-19.32-1-.476,8.936,11.855.612a.5.5,0,0,1,.433.3l3.95,9.173Z" transform="translate(-25.24 -25.718)" fill="#fff"/><path d="M288.937,242.01l-.419,7.856,17,.877,3.945-4.084.188-3.58Z" transform="translate(-23.51 -27.779)" fill="#ef671f"/><path d="M288.936,241.51h.026l20.716,1.069a.5.5,0,0,1,.474.526l-.188,3.58a.5.5,0,0,1-.14.321l-3.945,4.084a.5.5,0,0,1-.385.152l-17-.877a.5.5,0,0,1-.474-.526l.419-7.856A.5.5,0,0,1,288.936,241.51Zm20.191,2.043-19.718-1.018-.366,6.857,16.275.84,3.657-3.786Z" transform="translate(-23.51 -27.779)" fill="#fff"/><path d="M323.123,243.808l-12.355-.637-.188,3.579-.433,8.147-6.729,8.692-.221,4.22,14.734.76,9.509-14.724Z" transform="translate(-24.621 -27.867)" fill="#ef671f"/><path d="M310.767,242.671h.026l12.355.637a.5.5,0,0,1,.434.3l4.317,10.037a.5.5,0,0,1-.039.469l-9.509,14.724a.5.5,0,0,1-.446.228l-14.734-.76a.5.5,0,0,1-.474-.526l.221-4.22a.5.5,0,0,1,.1-.28l6.633-8.568.612-11.57A.5.5,0,0,1,310.767,242.671Zm12.019,1.62-11.546-.6-.161,3.08-.433,8.147a.5.5,0,0,1-.1.28l-6.633,8.568-.187,3.564,13.945.719,9.207-14.257Z" transform="translate(-24.621 -27.867)" fill="#fff"/><path d="M288.046,258.717l13.511.7.237-4.506,3.69-3.517-17-.877Z" transform="translate(-23.474 -28.423)" fill="#ef671f"/><path d="M301.557,259.915h-.026l-13.511-.7a.5.5,0,0,1-.473-.526l.436-8.2a.5.5,0,0,1,.525-.473l17,.877a.5.5,0,0,1,.319.861l-3.546,3.38-.226,4.308A.5.5,0,0,1,301.557,259.915Zm-12.985-1.672,12.512.647.21-4.007a.5.5,0,0,1,.154-.336l2.849-2.716-15.343-.792Z" transform="translate(-23.474 -28.423)" fill="#fff"/><path d="M281.027,230.85l-6.548,6.614-.579,10.864,13.514.7.419-7.857.529-9.939Z" transform="translate(-22.404 -26.935)" fill="#ffa780"/><path d="M281.026,230.35h.026l7.335.378a.5.5,0,0,1,.474.526l-.947,17.8a.5.5,0,0,1-.525.473l-13.514-.7a.5.5,0,0,1-.474-.526l.579-10.864a.5.5,0,0,1,.144-.325l6.548-6.614A.5.5,0,0,1,281.026,230.35Zm6.809,1.352-6.611-.341-6.257,6.319-.542,10.173,12.515.645Z" transform="translate(-22.404 -26.935)" fill="#fff"/><path d="M376.979,139l-18.529-.955L356.8,169.014l24.708,1.275,1.648-30.967Z" transform="translate(-28.677 -19.912)" fill="#ffd8c3"/><path d="M358.45,137.547h.026l24.708,1.275a.5.5,0,0,1,.473.526l-1.648,30.967a.5.5,0,0,1-.525.473l-24.708-1.275a.5.5,0,0,1-.474-.526l1.648-30.967A.5.5,0,0,1,358.45,137.547Zm24.183,2.248-5.679-.294-18.031-.929-1.595,29.968,23.71,1.223Z" transform="translate(-28.677 -19.912)" fill="#fff"/><path d="M340.577,196.083l-17.928-.925L313.5,202.1l-.542,10.169,19.819,1.022,18.633.96,1.008-1.566,10.464-15.45Z" transform="translate(-25.359 -24.234)" fill="#ffd8c3"/><path d="M322.649,194.658h.026l40.234,2.075a.5.5,0,0,1,.388.78l-10.461,15.445-1,1.561a.5.5,0,0,1-.446.229l-38.452-1.983a.5.5,0,0,1-.474-.526L313,202.07a.5.5,0,0,1,.2-.372l9.148-6.939A.5.5,0,0,1,322.649,194.658Zm39.323,3.029-39.166-2.02-8.818,6.688-.5,9.438,37.662,1.942.851-1.322.007-.01Z" transform="translate(-25.359 -24.234)" fill="#fff"/><path d="M342.835,194.292l22.3,1.151,15.312-22.616-24.708-1.275Z" transform="translate(-27.62 -22.448)" fill="#ffd8c3"/><path d="M365.14,195.943h-.026l-22.3-1.151a.5.5,0,0,1-.409-.746l12.909-22.74a.5.5,0,0,1,.461-.253l24.708,1.275a.5.5,0,0,1,.388.78l-15.312,22.616A.5.5,0,0,1,365.14,195.943Zm-21.47-2.108,21.214,1.095,14.657-21.649-23.515-1.213Z" transform="translate(-27.62 -22.448)" fill="#fff"/><path d="M259.055,244.449l-9.652-.5-4.063-3.687-6.37-.328-.406,7.627-.35,6.583,3.281.172.181-3.467,3.089.162-.305,5.723-5.212-.273-.182,3.466,10.616.548,15.549-15.71Z" transform="translate(-19.703 -27.622)" fill="#ffa780"/><path d="M238.97,239.436H239l6.37.328a.5.5,0,0,1,.31.129l3.931,3.567,15.65.806a.5.5,0,0,1,.33.851l-15.549,15.71a.5.5,0,0,1-.381.148l-10.616-.548a.5.5,0,0,1-.474-.526l.182-3.466a.5.5,0,0,1,.525-.473l4.713.247.252-4.724-2.09-.109-.155,2.968a.5.5,0,0,1-.525.473l-3.281-.172a.5.5,0,0,1-.473-.526l.756-14.21A.5.5,0,0,1,238.97,239.436Zm6.166,1.318-5.693-.293-.7,13.212,2.282.12.155-2.968a.5.5,0,0,1,.525-.473l3.089.162a.5.5,0,0,1,.473.526l-.305,5.723a.5.5,0,0,1-.525.473l-4.713-.247-.13,2.467,9.892.511,14.606-14.757-14.713-.758a.5.5,0,0,1-.31-.129Z" transform="translate(-19.703 -27.622)" fill="#fff"/><path d="M167.85,216.226l-10.231-.528-7.083,5.718-6.177-.319-6.671,5.4-.341,6.409,3.106,3.461,26.254,1.354.923-17.331Z" transform="translate(-12.07 -25.788)" fill="#ffd8c3"/><path d="M157.618,215.2h.026l10.231.528a.5.5,0,0,1,.474.526l-.221,4.16-.923,17.331a.5.5,0,0,1-.525.473l-26.254-1.354a.5.5,0,0,1-.346-.165l-3.106-3.461a.5.5,0,0,1-.127-.361l.341-6.409a.5.5,0,0,1,.185-.362l6.671-5.4a.5.5,0,0,1,.34-.111l5.986.309,6.934-5.6A.5.5,0,0,1,157.618,215.2Zm9.706,1.5-9.54-.492-6.934,5.6a.5.5,0,0,1-.34.11l-5.986-.309-6.349,5.136-.318,5.98,2.829,3.152,25.548,1.318Z" transform="translate(-12.07 -25.788)" fill="#fff"/><path d="M194.9,226.4l.226-4.332-25.093-1.295-.923,17.332,16.985.876.424-7.972Z" transform="translate(-14.474 -26.172)" fill="#ffd8c3"/><path d="M170.033,220.273h.026l25.093,1.295a.5.5,0,0,1,.474.525l-.226,4.332a.5.5,0,0,1-.258.412L187,231.313l-.409,7.695a.5.5,0,0,1-.525.473l-16.985-.876a.5.5,0,0,1-.474-.526l.923-17.332A.5.5,0,0,1,170.033,220.273Zm24.568,2.269L170.506,221.3l-.87,16.333,15.986.825.4-7.474a.5.5,0,0,1,.258-.412l8.137-4.475Z" transform="translate(-14.474 -26.172)" fill="#fff"/><path d="M209.31,252.426l4.646-3.628.728-13.687-7.911-7.694-.9,16.8-7.39,8.831,9.411.485Z" transform="translate(-16.697 -26.675)" fill="#f7982e"/><path d="M207.9,254.031h-.026l-9.411-.485a.5.5,0,0,1-.358-.82l7.283-8.7.887-16.632a.5.5,0,0,1,.848-.332l7.911,7.694a.5.5,0,0,1,.151.385l-.728,13.687a.5.5,0,0,1-.192.368l-6.058,4.733A.5.5,0,0,1,207.9,254.031Zm-8.384-1.433,8.223.424,1.265-.99,4.467-3.488.7-13.233-6.959-6.768-.837,15.7a.5.5,0,0,1-.116.294Z" transform="translate(-16.697 -26.675)" fill="#fff"/><path d="M197.356,205.111l-.839,15.775-.226,4.332-8.381,4.606-.424,7.971,6.95.359,4.044,4.03,6.563.345.895-16.8,1.072-20.122Z" transform="translate(-15.864 -24.987)" fill="#ffd8c3"/><path d="M197.355,204.611h.026l9.653.5a.5.5,0,0,1,.474.526l-1.967,36.921a.5.5,0,0,1-.526.473l-6.563-.345a.5.5,0,0,1-.327-.145l-3.908-3.895-6.759-.349a.5.5,0,0,1-.474-.526l.424-7.971a.5.5,0,0,1,.258-.412l8.137-4.472.212-4.054.839-15.776A.5.5,0,0,1,197.355,204.611Zm9.127,1.471-8.654-.446-.813,15.277-.226,4.332a.5.5,0,0,1-.258.412l-8.137,4.472-.383,7.194,6.45.333a.5.5,0,0,1,.327.145L198.7,241.7l5.873.309Z" transform="translate(-15.864 -24.987)" fill="#fff"/><path d="M206.441,269.514l-2.482-2.474.218-4.16,4.4-2.73.309-5.677-1.413,1.1-9.41-.484-4.6,5.5-.544,10.227,7.205,6.455,4.246.223,4.049-3.316.27-5.152Z" transform="translate(-16.276 -28.722)" fill="#f7982e"/><path d="M204.371,277.994h-.026l-4.246-.223a.5.5,0,0,1-.307-.127l-7.205-6.455a.5.5,0,0,1-.166-.4l.544-10.227a.5.5,0,0,1,.116-.294l4.6-5.5a.5.5,0,0,1,.409-.178l9.223.475,1.266-.99a.5.5,0,0,1,.807.421l-.309,5.677a.5.5,0,0,1-.236.4l-4.179,2.593-.193,3.677,2.131,2.125,1.982-.43a.5.5,0,0,1,.605.515l-.27,5.152a.5.5,0,0,1-.183.361l-4.049,3.316A.5.5,0,0,1,204.371,277.994Zm-4.044-1.213,3.877.2,3.728-3.053.224-4.278-1.608.349a.5.5,0,0,1-.459-.135l-2.482-2.474a.5.5,0,0,1-.146-.38l.218-4.16a.5.5,0,0,1,.236-.4l4.179-2.593.235-4.318-.546.427a.5.5,0,0,1-.334.105l-9.161-.472-4.333,5.179-.523,9.821Z" transform="translate(-16.276 -28.722)" fill="#fff"/><path d="M233.918,239.764l-1.738-.091L221.57,249.905l-.489,9.186L209.96,267.9l-.27,5.152,10.728-8.787,13.319.687.369-6.933-4.825-.253.295-5.546,6.833-4.682.406-7.627Z" transform="translate(-17.545 -27.603)" fill="#f7982e"/><path d="M232.18,239.173h.026l4.634.242a.5.5,0,0,1,.473.526l-.406,7.627a.5.5,0,0,1-.217.386l-6.629,4.542-.255,4.8,4.325.227a.5.5,0,0,1,.473.526l-.369,6.933a.5.5,0,0,1-.525.473l-13.126-.677-10.578,8.664a.5.5,0,0,1-.816-.413l.27-5.152a.5.5,0,0,1,.189-.366l10.945-8.672.477-8.961a.5.5,0,0,1,.152-.333l10.609-10.232A.5.5,0,0,1,232.18,239.173Zm4.108,1.215-3.917-.2-10.311,9.945-.478,8.989a.5.5,0,0,1-.189.365l-10.945,8.672-.2,3.8,9.852-8.07a.5.5,0,0,1,.343-.113l12.82.661.316-5.935-4.325-.227a.5.5,0,0,1-.473-.526l.295-5.546a.5.5,0,0,1,.217-.386l6.629-4.542Z" transform="translate(-17.545 -27.603)" fill="#fff"/><path d="M308.381,174.918l-8.024,1.672-.608,11.44,8.208-5.139Z" transform="translate(-24.36 -22.702)" fill="#ffa780"/><path d="M308.381,174.418a.5.5,0,0,1,.5.527l-.424,7.973a.5.5,0,0,1-.234.4l-8.208,5.139a.5.5,0,0,1-.765-.45l.608-11.44a.5.5,0,0,1,.4-.463l8.024-1.672A.5.5,0,0,1,308.381,174.418Zm-.91,8.187.376-7.065L300.836,177,300.3,187.1Z" transform="translate(-24.36 -22.702)" fill="#fff"/><path d="M145.171,252.941l-11.335,14.153-.319,5.985,9.073.469,5.993-7.686,13.252.683,2.541,5,5.087-3.473-8.721-14.325Z" transform="translate(-11.781 -28.607)" fill="#ffd8c3"/><path d="M145.171,252.441h.026l15.572.8a.5.5,0,0,1,.4.239l8.721,14.325a.5.5,0,0,1-.145.673l-5.087,3.473a.5.5,0,0,1-.728-.186l-2.41-4.739-12.7-.655-5.833,7.48a.5.5,0,0,1-.42.192l-9.073-.469a.5.5,0,0,1-.474-.526l.319-5.985a.5.5,0,0,1,.109-.286l11.335-14.153A.5.5,0,0,1,145.171,252.441Zm15.283,1.789-15.052-.776-11.074,13.828-.284,5.324,8.313.429,5.833-7.48a.5.5,0,0,1,.42-.192l13.252.683a.5.5,0,0,1,.42.273l2.283,4.49,4.226-2.884Z" transform="translate(-11.781 -28.607)" fill="#fff"/><path d="M160.6,253.094l.311-5.836-8.559-.441.1-1.907-12.159-.628-8.044,9.318-.573,10.746,2.123.112-.1,1.986,11.333-14.151Z" transform="translate(-11.641 -27.951)" fill="#ffd8c3"/><path d="M140.3,243.782h.026l12.159.628a.5.5,0,0,1,.474.526l-.074,1.407,8.059.415a.5.5,0,0,1,.474.526l-.311,5.836a.5.5,0,0,1-.525.473l-15.316-.786-11.173,13.951a.5.5,0,0,1-.89-.339l.078-1.487-1.624-.086a.5.5,0,0,1-.473-.526l.573-10.746a.5.5,0,0,1,.121-.3l8.044-9.318A.5.5,0,0,1,140.3,243.782Zm11.633,1.6-11.414-.589-7.773,9-.537,10.076,1.624.085a.5.5,0,0,1,.473.526l-.023.435,10.362-12.938a.5.5,0,0,1,.416-.187l15.074.774.257-4.838-8.059-.415a.5.5,0,0,1-.474-.526Z" transform="translate(-11.641 -27.951)" fill="#fff"/><path d="M182.7,244.946l-15.832-.817-.172,3.293-3.411-.179-.311,5.84,22.714,1.172.033-.635Z" transform="translate(-14.01 -27.94)" fill="#ffd8c3"/><path d="M166.867,243.629h.026l15.832.817a.5.5,0,0,1,.446.335l3.022,8.674a.5.5,0,0,1,.027.191l-.033.635a.5.5,0,0,1-.525.473l-22.714-1.172a.5.5,0,0,1-.474-.526l.311-5.84a.5.5,0,0,1,.526-.473l2.911.153.146-2.794A.5.5,0,0,1,166.867,243.629Zm15.471,1.8-15-.774-.146,2.794a.5.5,0,0,1-.526.473l-2.912-.153-.257,4.841,21.714,1.121,0-.038Z" transform="translate(-14.01 -27.94)" fill="#fff"/><path d="M171.7,268.131l6.749-4.607,4.068.213,2.886-3.328.285-5.429-22.708-1.172Z" transform="translate(-14.01 -28.672)" fill="#ffd8c3"/><path d="M171.7,268.631a.5.5,0,0,1-.427-.24l-8.721-14.322a.5.5,0,0,1,.453-.759l22.708,1.172a.5.5,0,0,1,.474.526l-.285,5.429a.5.5,0,0,1-.122.3l-2.886,3.328a.5.5,0,0,1-.4.172l-3.9-.2-6.609,4.512A.5.5,0,0,1,171.7,268.631Zm-7.8-14.274,7.955,13.064,6.314-4.31a.5.5,0,0,1,.308-.086l3.824.2,2.613-3.014.249-4.757Z" transform="translate(-14.01 -28.672)" fill="#fff"/><path d="M197.271,252.428l2.2-5.014-3.668-.192-.859,1.959-4.269-.22-.164,3.119,3.089.162,1.736.091Z" transform="translate(-16.094 -28.174)" fill="#ffd8c3"/><path d="M197.271,252.928h-.025l-1.932-.1-4.826-.252a.5.5,0,0,1-.473-.526l.164-3.119a.5.5,0,0,1,.525-.473l3.925.2.72-1.642a.5.5,0,0,1,.484-.3l3.668.192a.5.5,0,0,1,.432.7l-2.2,5.014A.5.5,0,0,1,197.271,252.928Zm-6.231-1.322,4.326.226,1.587.079,1.773-4.036-2.6-.136-.72,1.642a.5.5,0,0,1-.484.3l-3.771-.194Z" transform="translate(-16.094 -28.174)" fill="#fff"/><path d="M80.174,233.887l-6.883-.355-3.642,5.375.011,2.2,2.058.107,2.619-3.113-.3,5.549-2.133,1.277-.6,11.208,1.93.1,2.649-3.688,3.217.169-3.383,2.951-.248,4.737,4.892.256,3.513-2.948.348-6.528-4.71-4.874Z" transform="translate(-6.948 -27.138)" fill="#ffd8c3"/><path d="M73.291,233.032h.026l6.883.355a.5.5,0,0,1,.474.526l-.643,12.214,4.559,4.718a.5.5,0,0,1,.14.374l-.348,6.528a.5.5,0,0,1-.178.356l-3.513,2.948a.5.5,0,0,1-.348.116l-4.892-.256a.5.5,0,0,1-.473-.526l.248-4.737a.5.5,0,0,1,.171-.351l2.453-2.14-1.712-.09-2.49,3.466a.5.5,0,0,1-.432.208l-1.93-.1a.5.5,0,0,1-.473-.526l.6-11.208a.5.5,0,0,1,.242-.4l1.9-1.141.2-3.792-1.657,1.97a.5.5,0,0,1-.409.177l-2.058-.107a.5.5,0,0,1-.474-.5l-.011-2.2a.5.5,0,0,1,.086-.283l3.642-5.375A.5.5,0,0,1,73.291,233.032Zm6.357,1.328-6.1-.315-3.4,5.013.008,1.577,1.338.07,2.459-2.923a.5.5,0,0,1,.882.348l-.3,5.549a.5.5,0,0,1-.242.4l-1.9,1.141-.556,10.443,1.158.061,2.489-3.466a.5.5,0,0,1,.432-.208l3.217.169a.5.5,0,0,1,.3.876l-3.224,2.812L76,259.938l4.2.22,3.2-2.681.325-6.093-4.559-4.717a.5.5,0,0,1-.14-.374Z" transform="translate(-6.948 -27.138)" fill="#fff"/><path d="M94.531,241.157l-4.246-.223-4.273-3.34s.156-1.772.262-3.411l-3.169-.166-2.124-.111-.661,12.428,4.71,4.875.233-4.449,2.7.142,6.471-4.012Z" transform="translate(-7.755 -27.166)" fill="#ffd8c3"/><path d="M80.98,233.407h.027l5.293.277a.5.5,0,0,1,.473.532c-.081,1.25-.192,2.59-.24,3.151l3.936,3.076,4.089.215a.5.5,0,0,1,.473.527l-.1,1.734a.5.5,0,0,1-.236.4l-6.471,4.012a.5.5,0,0,1-.29.074l-2.2-.116-.207,3.949a.5.5,0,0,1-.859.321l-4.71-4.875a.5.5,0,0,1-.14-.374l.661-12.428A.5.5,0,0,1,80.98,233.407Zm4.76,1.25-4.287-.225-.623,11.711,3.76,3.892.173-3.3a.5.5,0,0,1,.526-.473l2.545.134L93.95,242.6,94,241.63l-3.745-.2a.5.5,0,0,1-.282-.105l-4.273-3.34a.5.5,0,0,1-.19-.438C85.514,237.535,85.639,236.114,85.74,234.657Z" transform="translate(-7.755 -27.166)" fill="#fff"/><path d="M87.2,261.3l-7.953,7.932,6.608.341,2.24,7.984,13.986-14.62-4.228-7.865-10.293-.531Z" transform="translate(-7.674 -28.727)" fill="#ffd8c3"/><path d="M87.562,254.037h.026l10.293.531a.5.5,0,0,1,.415.263l4.228,7.865a.5.5,0,0,1-.079.582L88.459,277.9a.5.5,0,0,1-.843-.211l-2.143-7.639-6.25-.323a.5.5,0,0,1-.327-.853l7.817-7.8.35-6.568A.5.5,0,0,1,87.562,254.037Zm9.987,1.516-9.514-.491-.333,6.261a.5.5,0,0,1-.146.327L80.4,268.787l5.484.283a.5.5,0,0,1,.456.364l2,7.14,13.129-13.724Z" transform="translate(-7.674 -28.727)" fill="#fff"/><path d="M108.508,240.441l.5-9.289-9.524-.492-4.02,3.731-8.721-.45c-.106,1.635-.262,3.407-.262,3.407l4.273,3.346,4.246.223-.091,1.735-6.471,4.011-.323,6.067,10.294.531.558-6.927Z" transform="translate(-8.221 -26.921)" fill="#ffd8c3"/><path d="M99.48,230.161h.026l9.524.492a.5.5,0,0,1,.474.526l-.5,9.289a.5.5,0,0,1-.237.4l-9.328,5.761L98.9,253.3a.5.5,0,0,1-.524.459l-10.294-.531a.5.5,0,0,1-.474-.526l.323-6.067a.5.5,0,0,1,.236-.4l6.249-3.873.051-.975-3.747-.2a.5.5,0,0,1-.282-.106l-4.273-3.346a.5.5,0,0,1-.19-.437c0-.018.156-1.785.261-3.4a.5.5,0,0,1,.525-.467l8.51.439,3.865-3.587A.5.5,0,0,1,99.48,230.161Zm9,1.465-8.813-.455L95.8,234.758a.5.5,0,0,1-.366.133l-8.229-.425c-.076,1.092-.165,2.168-.206,2.656l3.936,3.082,4.088.214a.5.5,0,0,1,.473.525l-.091,1.735a.5.5,0,0,1-.236.4L88.92,246.95l-.282,5.306,9.309.481.519-6.443a.5.5,0,0,1,.236-.385l9.321-5.756Z" transform="translate(-8.221 -26.921)" fill="#fff"/><path d="M87.478,278.75l-2.24-7.985-6.611-.341L72,277.035l-.954,17.912,4.761.25.406-7.626,2.316.122-.775,14.553,3.86.2,9.719-9.94Z" transform="translate(-7.053 -29.93)" fill="#ffd8c3"/><path d="M78.627,269.924h.026l6.611.341a.5.5,0,0,1,.456.364l6.1,21.742a.5.5,0,0,1-.124.485l-9.719,9.94a.5.5,0,0,1-.384.15l-3.86-.2a.5.5,0,0,1-.473-.526l.748-14.053-1.317-.069-.379,7.127a.5.5,0,0,1-.525.473l-4.761-.25a.5.5,0,0,1-.473-.526l.954-17.912a.5.5,0,0,1,.146-.327l6.626-6.611A.5.5,0,0,1,78.627,269.924Zm6.227,1.322-6.031-.311-6.333,6.318-.917,17.22,3.763.2.379-7.127a.5.5,0,0,1,.526-.473l2.316.122a.5.5,0,0,1,.473.526l-.748,14.053,3.135.164,9.359-9.572Z" transform="translate(-7.053 -29.93)" fill="#fff"/><path d="M117.755,243.481l-8.366-.433.1-1.8-9.543,5.894-.561,6.923,4.226,7.865,16.222.838,1.024-16.922Z" transform="translate(-9.197 -27.721)" fill="#ffd8c3"/><path d="M109.486,240.744a.5.5,0,0,1,.5.527l-.07,1.3,7.866.407a.5.5,0,0,1,.277.1l3.1,2.362a.5.5,0,0,1,.2.428l-1.024,16.922a.5.5,0,0,1-.525.469l-16.222-.838a.5.5,0,0,1-.415-.263L98.942,254.3a.5.5,0,0,1-.058-.277l.561-6.923a.5.5,0,0,1,.236-.385l9.543-5.894A.5.5,0,0,1,109.486,240.744Zm8.089,3.228-8.212-.425a.5.5,0,0,1-.473-.526l.046-.85-8.514,5.259-.529,6.524,4.023,7.487,15.446.8.978-16.161Z" transform="translate(-9.197 -27.721)" fill="#fff"/><path d="M88.822,278.238l3.857,13.754,26.313-26.905.038-.636-16.222-.837Z" transform="translate(-8.398 -29.414)" fill="#ffd8c3"/><path d="M92.68,292.492a.5.5,0,0,1-.481-.365l-3.857-13.754a.5.5,0,0,1,.12-.481l13.986-14.625a.5.5,0,0,1,.387-.154l16.222.837a.5.5,0,0,1,.473.529l-.038.636a.5.5,0,0,1-.142.32L93.037,292.341A.5.5,0,0,1,92.68,292.492Zm-3.3-14.115,3.547,12.646,25.527-26.1-15.443-.8Z" transform="translate(-8.398 -29.414)" fill="#fff"/><path d="M2.236,296.092l-.422,4.324,3.023,1.372,19.8-15.665.182-3.466L20.634,281.4Z" transform="translate(-1.814 -30.76)" fill="#ffd8c3"/><path d="M4.837,302.288a.5.5,0,0,1-.207-.045l-3.023-1.372a.5.5,0,0,1-.291-.5l.422-4.324a.5.5,0,0,1,.186-.342l18.4-14.694a.5.5,0,0,1,.456-.088l4.189,1.259a.5.5,0,0,1,.355.505l-.182,3.466a.5.5,0,0,1-.189.366L5.148,302.18A.5.5,0,0,1,4.837,302.288Zm-2.491-2.179,2.42,1.1,19.388-15.335.149-2.848-3.562-1.07-18.028,14.4Z" transform="translate(-1.814 -30.76)" fill="#fff"/><path d="M272.14,248.866,272.715,238l-6.548,6.614-15.545,15.709,21.045,1,2.959-6.024.08-.164,2.7.141-.637,11.96,4.246.223,3.825-2.761.369-6.934.436-8.2Z" transform="translate(-20.642 -27.476)" fill="#ffa780"/><path d="M272.715,237.5a.5.5,0,0,1,.5.526l-.548,10.363,13.008.673a.5.5,0,0,1,.473.526l-.805,15.137a.5.5,0,0,1-.207.379l-3.825,2.761a.5.5,0,0,1-.319.094l-4.246-.223a.5.5,0,0,1-.473-.526l.61-11.46-1.874-.1-2.894,5.891a.5.5,0,0,1-.473.279l-21.045-1a.5.5,0,0,1-.332-.851l22.093-22.323A.5.5,0,0,1,272.715,237.5Zm12.407,12.535-13.008-.673a.5.5,0,0,1-.473-.526l.505-9.551-5.624,5.681L251.767,259.88l19.6.93,2.895-5.893a.5.5,0,0,1,.475-.279l2.7.142a.5.5,0,0,1,.473.526l-.61,11.46,3.571.187,3.488-2.518Z" transform="translate(-20.642 -27.476)" fill="#fff"/><path d="M396.1,102.3,377.921,79.115l-1.384-.073-11.763,8.752.5-9.331-7.912-.408-.382,7.19,7.527.388-.536,9.969-7.526-.387-.36,6.759-17.44-.9,1.444-27.123,11.689-8.694.54-10.148L374.9,56.276l.643-12.068,8.336-7.545,1.463-27.472,25.646,1.323.276.441L438.082,53.8l9.793.506,7.93-3.892-.568,10.666-6.826,3.347-.321,5.3,9.812.507-.348,6.644-10.972,5.781-29.943-1.544Zm-55.355-3.12,13.445.693.36-6.759,7.527.387.321-5.975-7.525-.388.594-11.184,11.907.614L367,83.648l8.925-6.64,3.012.158,17.324,22.1,19.577-20.194,30.3,1.563,9.48-4.995.184-3.51-9.828-.508.513-8.475L453.3,59.8l.324-6.09-6.735,3.306.031-.757-9.984-.515L409.845,12.458l-22.612-1.167-1.4,26.3L377.5,45.138l-.705,13.238L354.2,57.211l-.484,9.092L342.032,75Z" transform="translate(-27.382 -10.241)" fill="#fff"/><path d="M242.677,227.788l-8.56-.441.422-8.059-10.676,1.941-.179-.984-.246.969-5.952-1.512.459-8.576,12.739.657.295-5.545,12.809.66Zm-6.458-2.336,4.567.235.9-16.9-8.815-.454-.295,5.545-12.739-.657-.264,4.942,4.151,1.054,12.948-2.354Z" transform="translate(-18.214 -25.152)" fill="#fff"/><path d="M295.106,211.763l17.132.883-1.03,19.333-22.717-1.172.715-13.416Zm15.028,2.778-14.271-.736-4.7,4.487-.566,10.622,18.722.966Z" transform="translate(-23.587 -25.568)" fill="#fff"/><path d="M276.145,205.565l18.469.952-.33,6.249-5.3,5.058-.672,12.617-7.885-.406-13.1,13.229-7.623-.394.629-11.819L275.5,217.7l.139-2.644Zm16.367,2.847-14.476-.746-.582,10.978L262.289,232l-.478,8.98,4.728.244,13.1-13.229,6.786.35.608-11.416,5.3-5.058Z" transform="translate(-21.409 -25.101)" fill="#fff"/><path d="M311.294,212.2l-17.7-.913.254-4.852-16.473-.85.538-10.085,23.079,1.19,20.89-18.643-.879,16.509-9.145,6.939Zm-15.6-2.807,13.7.707.51-9.636,9.146-6.939.574-10.785-17.919,15.992-21.906-1.13-.325,6.091,16.471.849Z" transform="translate(-22.746 -23.117)" fill="#fff"/><path d="M137.648,226.519l-6.275-.324.771-14.478.837.043,13.766-10.238,25.49,1.315-.5,9.337-3.851,4.085-10.3-.528L150.5,221.45l-6.177-.32Zm-4.171-2.218,3.51.181,6.675-5.389,6.177.32,7.08-5.719,10.145.52,2.714-2.879.355-6.6-22.769-1.175-13.309,9.9Z" transform="translate(-11.698 -24.793)" fill="#fff"/><path d="M213.518,249.3l.821-15.433-7.913-7.694,1.148-21.569,11.841.61-.682,12.831,5.157,1.31-1.546,29.03-7.186-.371Zm2.176-3.261,4.758.246,1.353-25.4-5.157-1.31.663-12.471-7.847-.4-.993,18.668,7.913,7.694Z" transform="translate(-17.375 -25.028)" fill="#fff"/><path d="M173.091,202.833l24,1.238-.948,17.767-27.09-1.4.289-5.527,3.286-3.479Zm21.9,3.132-20.01-1.032-.391,7.341-3.286,3.478-.146,2.794,23.1,1.192Z" transform="translate(-14.55 -24.894)" fill="#fff"/><path d="M376.459,137.866,336.368,135.8l.971-18.174,6.693.345.357-6.7,10.49.54-.357,6.7,14.218.733L368.8,118l-11.328-.584.5-9.394,20.014,1.033ZM338.472,133.9l36.1,1.862,1.321-24.812-16.02-.827-.288,5.4,11.326.584-.274,5.233-18.215-.94.357-6.7-6.5-.334-.357,6.7-6.693-.345Z" transform="translate(-27.211 -17.72)" fill="#fff"/><path d="M336.342,135.906l21.56,1.112-1.754,32.965-21.561-1.113Zm19.456,3.007-17.565-.906-1.543,28.97,17.566.907Z" transform="translate(-27.076 -19.83)" fill="#fff"/><path d="M236.979,217.748l-1.145,21.5-2.3-.121-12.124,11.691,1.626-30.539Zm-3.035,19.4.9-16.981-9.9,1.8-1.272,23.889,9.094-8.77Z" transform="translate(-18.517 -26.035)" fill="#fff"/><path d="M115.911,211.725l16.751.865L132,225.068l4.892.256-.373,7,3.423,3.814-4.408,5.022-7.1-.368-5.091-6.172-8.641-.445-2.817-5.755.619-11.627Zm14.647,2.759-13.62-.7-2.472,3.671-.562,10.556,2.071,4.231,8.345.43,5.091,6.172,5.254.272,2.6-2.96-2.79-3.109.311-5.827-4.893-.256Z" transform="translate(-10.22 -25.565)" fill="#fff"/><path d="M341.933,195.242l-19.548-1.009.8-15.063,10.913-9.744.667.036,21.18,1.093Zm-17.444-2.9,16.314.842,11.8-20.8-17.792-.918-9.676,8.64Z" transform="translate(-26.152 -22.364)" fill="#fff"/><path d="M311.935,212.617l21.817,1.125-1.03,19.33-21.817-1.121Zm19.713,3.019-17.822-.919-.817,15.339,17.822.916Z" transform="translate(-25.284 -25.635)" fill="#fff"/><path d="M214.319,249.359l7.937.41-.565,10.635-11.651,9.235-3.012.661-3.185-3.174.269-5.13,4.408-2.726.3-5.614Zm5.833,2.3-5.191-.268-4.194,3.277-.306,5.749-4.407,2.726-.167,3.193,1.779,1.773,1.493-.328,10.581-8.387Z" transform="translate(-17.18 -28.413)" fill="#fff"/><path d="M288.554,230.211l22.716,1.172-.635,11.936-22.716-1.172Zm20.613,3.066-18.721-.966-.422,7.942,18.721.966Z" transform="translate(-23.544 -26.966)" fill="#fff"/><path d="M254.412,181.113l22.846,1.178-.493,9.167L265.95,190.9l-.339,5.572-10.643,12.943-.261,4.971-4.994,4.032-6.689-.351.7-13.178,2.7.141,7.563-15.954Zm20.741,3.072-18.851-.972-.342,6.365L247.655,207.1l-2.039-.107-.489,9.184,3.926.206,3.7-2.991.248-4.737L263.654,195.7l.42-6.9,10.8.557Z" transform="translate(-20.147 -23.251)" fill="#fff"/><path d="M252.256,213.55l23.554,1.216-.238,4.483L260.407,232.6l-.581,10.977-11.005-.567-4.065-3.686-9.909-.514.688-12.915,6.564.338.411-7.719,5.923.31,3.7-2.991Zm21.451,3.11-19.559-1.01-.062,1.183-4.994,4.032-4.692-.246-.411,7.717L237.425,228l-.475,8.923,1.9.1,6.725.346,4.065,3.686,8.3.428.52-9.822L273.62,218.3Z" transform="translate(-19.528 -25.705)" fill="#fff"/><path d="M264.981,196.2l13.13.677-.989,18.576-23.552-1.215.233-4.449Zm11.026,2.572-10.122-.522-10.119,12.3-.094,1.792,19.559,1.009Z" transform="translate(-20.945 -24.39)" fill="#fff"/><path d="M331.711,213.717l21.356,1.1-25.182,38.988-4.817-11.184-12.735-.657.636-11.932,19.819,1.021Zm17.8,2.92-15.909-.82-.923,17.337-19.819-1.021-.423,7.938,11.976.618,3.826,8.883Z" transform="translate(-25.24 -25.718)" fill="#fff"/><path d="M287.991,240.96l22.712,1.173-.26,4.953-4.521,4.68-18.457-.952Zm20.61,3.067-18.72-.966-.312,5.859,15.547.8,3.369-3.487Z" transform="translate(-23.51 -27.779)" fill="#fff"/><path d="M309.821,242.121l13.975.72,4.773,11.1L318.457,269.6l-16.311-.841.29-5.532,6.729-8.692Zm12.629,2.654-10.736-.553-.135,2.581-.449,8.46-6.729,8.691-.152,2.909,13.157.678,8.905-13.79Z" transform="translate(-24.621 -27.867)" fill="#fff"/><path d="M302.5,260.466l-15.509-.8.543-10.2,20.318,1.048-5.084,4.846Zm-13.405-2.7,11.513.6.205-3.905,2.3-2.189-13.684-.706Z" transform="translate(-23.474 -28.423)" fill="#fff"/><path d="M280.631,229.828l8.782.453-1.054,19.793-15.511-.8.652-12.244Zm6.678,2.347-5.887-.3-5.965,6.025-.505,9.483,11.516.594Z" transform="translate(-22.404 -26.935)" fill="#fff"/><path d="M357.5,137l26.706,1.378-1.754,32.964-26.706-1.378Zm24.6,3.272L376.927,140l-17.532-.9-1.542,28.97,22.711,1.172Z" transform="translate(-28.677 -19.912)" fill="#fff"/><path d="M322.335,194.14l42.37,2.185-11.452,16.909-1.315,2.043-40.031-2.064.62-11.633Zm38.725,4-38.1-1.965-8.487,6.438-.464,8.706,36.873,1.9.707-1.1Z" transform="translate(-25.359 -24.234)" fill="#fff"/><path d="M365.652,196.471l-24.486-1.263,14.014-24.686,27.1,1.4ZM344.5,193.377l20.124,1.038,14-20.681-22.321-1.152Z" transform="translate(-27.62 -22.448)" fill="#fff"/><path d="M238.025,238.886l7.723.4,4.063,3.687,17.7.912L250.078,261.5l-12.063-.623.287-5.464,5.213.273.2-3.725-1.091-.057-.181,3.467-5.28-.277Zm6.907,2.358-5.016-.258-.65,12.213,1.283.067.181-3.467,5.087.266-.412,7.72-5.211-.273-.077,1.468,9.169.473,13.663-13.8L249,244.932Z" transform="translate(-19.703 -27.622)" fill="#fff"/><path d="M157.288,214.68l11.614.6-.274,5.161-.977,18.328-27.666-1.427-3.66-4.078.387-7.267,7.315-5.917,6.178.319Zm9.51,2.493-8.849-.456-7.083,5.718-6.177-.319-6.027,4.875-.3,5.552,2.552,2.843,24.842,1.281Z" transform="translate(-12.07 -25.788)" fill="#fff"/><path d="M169.088,219.723l27.089,1.4-.308,5.887-8.381,4.609-.448,8.414-18.982-.979Zm24.987,3.292-23.1-1.192-.817,15.335,14.987.773.4-7.531,8.38-4.608Z" transform="translate(-14.474 -26.172)" fill="#fff"/><path d="M208.219,254.549l-11.786-.608,8.462-10.113,1-18.665,9.815,9.546-.777,14.6Zm-7.679-2.4,7.035.363,1.118-.875,4.288-3.348.68-12.779-6.007-5.842-.8,14.933Z" transform="translate(-16.697 -26.675)" fill="#fff"/><path d="M196.41,204.061l11.65.6-2.073,38.92-7.943-.417L194,239.134l-7.567-.391.507-9.527,8.38-4.606.2-3.776Zm9.546,2.494-7.655-.394-.786,14.779-.255,4.887-8.381,4.606-.341,6.416,6.333.327,4.044,4.03,5.183.272Z" transform="translate(-15.864 -24.987)" fill="#fff"/><path d="M204.7,278.513l-4.985-.261-7.825-7.01.588-11.038,5.134-6.136,9.535.491,2.853-2.23-.457,8.4-4.4,2.73-.167,3.193,1.78,1.775,2.995-.65-.362,6.9Zm-4.176-2.222,3.508.184,3.407-2.79.178-3.4-1.5.326-3.184-3.174.269-5.128,4.4-2.731.162-2.981-9.259-.477-4.066,4.86-.5,9.415Z" transform="translate(-16.276 -28.722)" fill="#fff"/><path d="M231.8,238.652l6.067.317-.485,9.119-6.833,4.682-.216,4.054,4.825.253-.475,8.93-13.93-.718-12.179,9.976.412-7.863,11.122-8.813.486-9.129Zm3.964,2.21-3.2-.167-10.013,9.657-.492,9.243-11.121,8.812-.128,2.441,9.276-7.6,12.708.655.263-4.937-4.825-.253.374-7.038L235.435,247Z" transform="translate(-17.545 -27.603)" fill="#fff"/><path d="M309.449,173.674l-.521,9.789-10.28,6.436.751-14.131Zm-2.463,8.645.328-6.157-6,1.25-.465,8.749Z" transform="translate(-24.36 -22.702)" fill="#fff"/><path d="M144.711,251.916l16.612.857,9.489,15.587L164,273.009l-2.794-5.5-12.154-.626-5.993,7.686-10.593-.547.389-7.306Zm15.453,2.8-14.533-.75-10.814,13.5-.249,4.664,7.553.39,5.993-7.686,14.35.74,2.288,4.5,3.364-2.3Z" transform="translate(-11.781 -28.607)" fill="#fff"/><path d="M139.859,243.258l13.647.7-.1,1.907,8.56.441-.417,7.833-16.057-.824-12.955,16.176.215-4.091-2.124-.112.645-12.087Zm11.544,2.6-10.67-.551-7.5,8.689-.5,9.406,2.038.107,9.8-12.239,15.087.775.2-3.839-8.559-.441Z" transform="translate(-11.641 -27.951)" fill="#fff"/><path d="M165.921,243.079l17.5.9,3.307,9.494-.1,1.829-24.712-1.275.417-7.838,3.41.179Zm16.055,2.831-14.162-.731-.172,3.294-3.412-.179-.2,3.842,20.487,1.057Z" transform="translate(-14.01 -27.94)" fill="#fff"/><path d="M171.391,269.551l-10.253-16.838,25.6,1.321-.355,6.771-3.431,3.957-4.219-.221Zm-6.577-14.646L172,266.712l6.157-4.2,3.917.206,2.341-2.7.214-4.086Z" transform="translate(-14.01 -28.672)" fill="#fff"/><path d="M197.909,253.461l-2.62-.13-5.826-.3.268-5.115,4.577.236.859-1.959,5.8.3Zm-6.344-2.328,3.826.2,1.241.062,1.343-3.058-1.532-.08-.858,1.958-3.962-.2Z" transform="translate(-16.094 -28.174)" fill="#fff"/><path d="M72.78,232.5l8.445.436-.684,13,4.711,4.874-.394,7.4-4.147,3.48-6.284-.329.285-5.447-.976,1.358-3.475-.183.678-12.739,2.133-1.277.108-2.035-1.016,1.208-3.5-.182-.018-3.459Zm6.343,2.33-5.32-.274-3.152,4.652,0,.95.618.032,4.221-5.018-.482,9.063-2.133,1.277-.515,9.678.385.02,2.649-3.688,6.227.328-4.924,4.3-.174,3.316,3.5.183,2.878-2.415.3-5.659L78.5,246.7Z" transform="translate(-6.948 -27.138)" fill="#fff"/><path d="M80.035,232.856l7.3.383-.066,1.01c-.07,1.084-.163,2.235-.218,2.891l3.6,2.812,4.932.259-.179,3.255-7.18,4.451-2.016-.106-.3,5.746-6.61-6.841Zm5.17,2.273-3.279-.172-.585,11,2.81,2.908.165-3.152,3.388.178,5.762-3.572.012-.213-3.56-.187-4.95-3.868.048-.541C85.016,237.494,85.113,236.387,85.205,235.13Z" transform="translate(-7.755 -27.166)" fill="#fff"/><path d="M86.617,253.487l11.853.612,4.839,9-15.7,16.412-2.519-8.981-8.141-.42,9.276-9.251Zm10.625,2.551-8.734-.451-.327,6.146-6.63,6.612,5.076.262,1.96,6.988,12.272-12.828Z" transform="translate(-7.674 -28.727)" fill="#fff"/><path d="M99.109,229.641l10.947.565-.577,10.811-9.558,5.9-.6,7.391-12.265-.633.4-7.589,6.471-4.01.011-.214-3.563-.187L85.434,237.8l.048-.54c0-.018.156-1.78.26-3.384l.064-.985,9.284.479Zm8.843,2.459-8.1-.418-4.02,3.731-8.161-.421c-.055.748-.111,1.446-.149,1.9l3.6,2.818,4.929.259-.17,3.256-6.471,4.011-.242,4.545,8.324.43.521-6.463,9.529-5.884Z" transform="translate(-8.221 -26.921)" fill="#fff"/><path d="M78.235,269.4l7.772.4,6.447,22.99L82.015,303.47l-5.311-.278.775-14.553-.319-.017-.406,7.625L70,295.893,71.023,276.6Zm6.234,2.324-5.45-.281-6.039,6.026L72.1,294l2.764.145.406-7.626,4.313.227L78.808,301.3l2.409.126,9-9.2Z" transform="translate(-7.053 -29.93)" fill="#fff"/><path d="M110.587,239.388l-.146,2.713,7.674.4,3.769,2.872-1.116,18.444-17.774-.918-4.632-8.621.626-7.722Zm6.807,5.075L108.336,244l.048-.9-7.486,4.624-.5,6.125,3.82,7.109,14.669.757.932-15.4Z" transform="translate(-9.197 -27.721)" fill="#fff"/><path d="M92.184,293.929l-4.479-15.97,14.7-15.368,17.686.913-.12,2.015Zm-2.245-15.412,3.236,11.538,24.147-24.691-14.108-.728Z" transform="translate(-8.398 -29.414)" fill="#fff"/><path d="M4.98,302.95l-4.23-1.919.532-5.457L20.42,280.289l5.443,1.636-.246,4.7Zm-2.1-3.149,1.816.824,18.971-15.006.117-2.231-2.935-.882L3.19,296.61Z" transform="translate(-1.814 -30.76)" fill="#fff"/><path d="M273.853,235.433l-.661,12.486,13.508.7-.884,16.615-4.5,3.247-5.6-.294.637-11.96-1.044-.055-3.038,6.184-23.943-1.137ZM284.6,250.511l-13.508-.7.489-9.239-4.7,4.748-13.966,14.113,18.147.862L274.1,254.1l4.361.228-.637,11.96,2.895.152,3.151-2.275Z" transform="translate(-20.642 -27.476)" fill="#fff"/></g><g transform="translate(770.894 6153.782)"><text transform="translate(4.106 20.218)" fill="#3f3f3f" font-size="14" font-family="NotoSansJP-Bold, Noto Sans JP" font-weight="700"><tspan x="0" y="16">中部地方</tspan></text><text transform="translate(68.106 -0.782)" fill="#ef671f" font-size="40" font-family="Montserrat-MediumItalic, Montserrat" font-weight="500" font-style="italic"><tspan x="0" y="39">11</tspan><tspan y="39" font-size="28">%</tspan></text><path d="M347.325,233.546,310.353,101.307h-119.7v-2H311.87l37.381,133.7Z" transform="translate(-189.145 -55.091)" fill="#ef671f"/><circle cx="3" cy="3" r="3" transform="translate(156.106 175.152)" fill="#3f3f3f"/></g><g transform="translate(1051.894 6343.782)"><text transform="translate(7.106 -24.782)" fill="#3f3f3f" font-size="14" font-family="NotoSansJP-Bold, Noto Sans JP" font-weight="700"><tspan x="0" y="16">関東地方</tspan></text><text transform="translate(3.106 -8.782)" fill="#ef671f" font-size="48" font-family="Montserrat-MediumItalic, Montserrat" font-weight="500" font-style="italic"><tspan x="0" y="46">49</tspan><tspan y="46" font-size="28">%</tspan></text><path d="M511.458,101.307H414.29l-.249-.162L341.929,54.2l1.091-1.676,71.864,46.786h96.574Z" transform="translate(-418.352 -55.091)" fill="#ef671f"/><circle cx="3" cy="3" r="3" transform="translate(-78.978 -4.782)" fill="#3f3f3f"/></g><g transform="translate(628.894 6249.782)"><text transform="translate(3.106 20.218)" fill="#3f3f3f" font-size="14" font-family="NotoSansJP-Bold, Noto Sans JP" font-weight="700"><tspan x="0" y="16">近畿地方</tspan></text><text transform="translate(67.106 -4.782)" fill="#ef671f" font-size="44" font-family="Montserrat-MediumItalic, Montserrat" font-weight="500" font-style="italic"><tspan x="0" y="43">17</tspan><tspan y="43" font-size="28">%</tspan></text><path d="M447.926,153.988l-128.1-52.68H190.652v-2h129.57l.183.075,128.282,52.756Z" transform="translate(-189.145 -55.091)" fill="#ef671f"/><circle cx="3" cy="3" r="3" transform="translate(256.106 95.152)" fill="#3f3f3f"/></g></g></svg>