<svg xmlns="http://www.w3.org/2000/svg" xmlns:xlink="http://www.w3.org/1999/xlink" width="574" height="280" viewBox="0 0 574 280"><defs><clipPath id="a"><rect width="574" height="280" transform="translate(616 6129)" fill="#fff" stroke="#707070" stroke-width="1"/></clipPath></defs><g transform="translate(-616 -6129)" clip-path="url(#a)"><g transform="translate(893 6145.017)"><circle cx="54.239" cy="54.239" r="54.239" fill="#fff"/><path d="M54.239,1A53.253,53.253,0,0,0,33.516,103.294,53.253,53.253,0,0,0,74.962,5.183,52.9,52.9,0,0,0,54.239,1m0-1A54.239,54.239,0,1,1,0,54.239,54.239,54.239,0,0,1,54.239,0Z" fill="#ef671f"/><text transform="translate(11.739 60.276)" fill="#ef671f" font-size="17" font-family="NotoSansJP-Bold, Noto Sans JP" font-weight="700"><tspan x="0" y="0">アルバイト</tspan></text></g><g transform="translate(1047.949 6211.386)"><circle cx="64.526" cy="64.526" r="64.526" fill="#fff"/><path d="M64.526,1A63.224,63.224,0,0,0,29.009,11.849,63.714,63.714,0,0,0,5.992,39.8a63.441,63.441,0,0,0,5.857,60.244A63.714,63.714,0,0,0,39.8,123.059a63.441,63.441,0,0,0,60.244-5.857,63.714,63.714,0,0,0,23.017-27.95A63.441,63.441,0,0,0,117.2,29.009,63.714,63.714,0,0,0,89.252,5.992,63.127,63.127,0,0,0,64.526,1m0-1A64.526,64.526,0,1,1,0,64.526,64.526,64.526,0,0,1,64.526,0Z" fill="#ef671f"/><text transform="translate(33.026 71.758)" fill="#ef671f" font-size="21" font-family="NotoSansJP-Bold, Noto Sans JP" font-weight="700"><tspan x="0" y="0">正社員</tspan></text></g><g transform="translate(940.693 6305.836)"><circle cx="42.082" cy="42.082" r="42.082" transform="translate(0)" fill="#fff"/><path d="M42.082,1A41.093,41.093,0,0,0,26.091,79.936,41.093,41.093,0,0,0,58.073,4.228,40.824,40.824,0,0,0,42.082,1m0-1A42.082,42.082,0,1,1,0,42.082,42.082,42.082,0,0,1,42.082,0Z" transform="translate(0)" fill="#ef671f"/><text transform="translate(14.157 47.86)" fill="#ef671f" font-size="14" font-family="NotoSansJP-Bold, Noto Sans JP" font-weight="700"><tspan x="0" y="0">派遣社員</tspan></text></g><g transform="translate(-22 -6)"><g transform="translate(0 -51)"><g transform="translate(0 -94.627)"><g transform="translate(874 6300.454)"><rect width="8" height="154.174" fill="#fff3ed"/><rect width="8" height="13.958" transform="translate(0 140.216)" fill="#ffc3a3"/></g><g transform="translate(822 6300.454)"><rect width="8" height="154.174" fill="#fff3ed"/><rect width="8" height="19.541" transform="translate(0 134.633)" fill="#ffd789"/></g><g transform="translate(770 6300.454)"><rect width="8" height="154.174" fill="#fff3ed"/><rect width="8" height="30.707" transform="translate(0 123.467)" fill="#ffa780"/></g><g transform="translate(718 6300.454)"><rect width="8" height="154.174" fill="#fff3ed"/><rect width="8" height="100.494" transform="translate(0 53.679)" fill="#f7982e"/></g><g transform="translate(665 6300.454)"><rect width="9" height="154.174" fill="#fff3ed"/><rect width="9" height="103.286" transform="translate(0 50.888)" fill="#ef671f"/></g></g><rect width="217" height="1" transform="translate(665 6360)" fill="#ef671f"/></g><g transform="translate(64 -1670.079)"><text transform="translate(598 7986.079)" fill="#ef671f" font-size="14" font-family="NotoSansJP-Bold, Noto Sans JP" font-weight="700"><tspan x="0" y="16">正</tspan><tspan x="0" y="33">社</tspan><tspan x="0" y="50">員</tspan></text><text transform="translate(659 7986.079)" fill="#ef671f" font-size="14" font-family="NotoSansJP-Bold, Noto Sans JP" font-weight="700"><tspan x="1" y="16">パ </tspan><tspan x="8" y="33"> </tspan><tspan x="1" y="50">ト</tspan><tspan x="1" y="67">・</tspan></text><text transform="translate(641 7986.079)" fill="#ef671f" font-size="14" font-family="NotoSansJP-Bold, Noto Sans JP" font-weight="700"><tspan x="0" y="16">ア</tspan><tspan x="0" y="33">ル</tspan><tspan x="0" y="50">バ</tspan><tspan x="0" y="67">イ</tspan><tspan x="0" y="84">ト</tspan></text><text transform="translate(703 7986.079)" fill="#ef671f" font-size="14" font-family="NotoSansJP-Bold, Noto Sans JP" font-weight="700"><tspan x="0" y="16">派</tspan><tspan x="0" y="33">遣</tspan><tspan x="0" y="50">社</tspan><tspan x="0" y="67">員</tspan></text><text transform="translate(755 7986.079)" fill="#ef671f" font-size="14" font-family="NotoSansJP-Bold, Noto Sans JP" font-weight="700"><tspan x="0" y="16">契</tspan><tspan x="0" y="33">約</tspan><tspan x="0" y="50">社</tspan><tspan x="0" y="67">員</tspan></text><text transform="translate(806 7986.079)" fill="#ef671f" font-size="14" font-family="NotoSansJP-Bold, Noto Sans JP" font-weight="700"><tspan x="0" y="16">業</tspan><tspan x="0" y="33">務</tspan><tspan x="0" y="50">委</tspan><tspan x="0" y="67">託</tspan></text></g></g><rect width="2" height="11" transform="translate(708 6332)" fill="#ef671f"/></g></svg>