<svg xmlns="http://www.w3.org/2000/svg" xmlns:xlink="http://www.w3.org/1999/xlink" width="276" height="160" viewBox="0 0 276 160"><defs><clipPath id="a"><rect width="276" height="160" rx="4" transform="translate(-7.024 138)" fill="#fff"/></clipPath><clipPath id="b"><rect width="34.556" height="34.556" fill="#e3e3e3"/></clipPath></defs><g transform="translate(7.024 -138)" clip-path="url(#a)"><path d="M4,2A2,2,0,0,0,2,4v97a2,2,0,0,0,2,2H176a2,2,0,0,0,2-2V4a2,2,0,0,0-2-2H4M4,0H176a4,4,0,0,1,4,4v97a4,4,0,0,1-4,4H4a4,4,0,0,1-4-4V4A4,4,0,0,1,4,0Z" transform="translate(40.976 166)" fill="#ef671f"/><g transform="translate(14 -22.562)"><g transform="translate(-16.157 167.562)"><rect width="100" height="67" transform="translate(12.133 5)" fill="#fff"/><path d="M1,90.551v-6.04H19.524V79.545a7.347,7.347,0,0,1-5.369-2.282,7.5,7.5,0,0,1-2.282-5.5V15.785a7.5,7.5,0,0,1,2.282-5.5A7.347,7.347,0,0,1,19.524,8h86.444a7.347,7.347,0,0,1,5.369,2.282,7.5,7.5,0,0,1,2.282,5.5V71.759a7.5,7.5,0,0,1-2.282,5.5,7.347,7.347,0,0,1-5.369,2.282v4.966h18.524v6.04ZM19.524,73.5h86.444a1.553,1.553,0,0,0,1.141-.47,1.723,1.723,0,0,0,.47-1.275V15.785a1.723,1.723,0,0,0-.47-1.275,1.553,1.553,0,0,0-1.141-.47H19.524a1.553,1.553,0,0,0-1.141.47,1.723,1.723,0,0,0-.47,1.275V71.759a1.723,1.723,0,0,0,.47,1.275,1.553,1.553,0,0,0,1.141.47Zm-1.611,0v0Z" transform="translate(-1 -7.915)" fill="#ef671f"/></g><path d="M-19.68-3.576c-1.428.828-2.976,1.692-3.972,2.184l.888,1.32c1.044-.6,2.376-1.428,3.564-2.2Zm-.168-.912a11.389,11.389,0,0,0-1.872-2.1l-1.092.768a11.708,11.708,0,0,1,1.8,2.172ZM-14.3-6.744A14.949,14.949,0,0,1-16.188-4.56,12.27,12.27,0,0,1-17.3-6.852v-.12h4.632v-1.38H-14l.552-.624a14.79,14.79,0,0,0-2.232-1.248l-.828.9a16.568,16.568,0,0,1,1.656.972H-17.3v-1.8h-1.452v1.8H-23.28v1.38h4.524V-.72c0,.216-.084.288-.312.288s-1,.012-1.728-.024a5.922,5.922,0,0,1,.492,1.5,5.507,5.507,0,0,0,2.34-.288c.5-.228.66-.624.66-1.464V-3.924A9.933,9.933,0,0,0-13.356.228,5.732,5.732,0,0,1-12.3-1.044a8.678,8.678,0,0,1-3.108-2.448,27.649,27.649,0,0,0,2.364-2.376ZM-7-9.888C-7.08-8.3-6.912-2.856-11.7-.2A5,5,0,0,1-10.5.936,10.247,10.247,0,0,0-6.06-5.088,9.516,9.516,0,0,0-1.332.936,4.69,4.69,0,0,1-.228-.276C-4.7-2.376-5.3-7.548-5.4-9.2c.012-.252.024-.492.036-.684ZM1.272-4.32A16.2,16.2,0,0,0,1.74-7.668L.732-7.8A15.692,15.692,0,0,1,.24-4.668Zm4.56,2.592V-2.28H9.42v.552ZM9.42-3.852v.564H5.832v-.564ZM10.764-4.9H4.512V1.056h1.32v-1.8H9.42v.4c0,.144-.06.192-.228.192S8.472-.144,7.98-.18a4.729,4.729,0,0,1,.384,1.212,4.592,4.592,0,0,0,1.848-.2c.432-.192.552-.528.552-1.152ZM8.3-6.372v-.516h2.58v-.96H8.3v-.48h2.9v-1.02H8.3v-.816H6.888v.816H4.08v1.02H6.888v.48H4.4V-6.9a14.315,14.315,0,0,0-.672-1.632l-.684.288v-1.92H1.764v11.2H3.048V-7.692a10.033,10.033,0,0,1,.444,1.32l.936-.456L4.4-6.888H6.888v.516H3.708v1.02h7.86v-1.02ZM16.056-4.5h-1.74l.384-.108a5.129,5.129,0,0,0-.42-1.284H16.1a12.382,12.382,0,0,1-.432,1.284Zm-.2-3.42h1.56V-9.1h-1.56V-10.14h-1.32V-9.1H12.816V-7.92h1.716v.828H12.4v1.2h1.188l-.432.108a6.837,6.837,0,0,1,.4,1.284h-.9v1.2h1.884v.924H12.744v1.2h1.788V1.008h1.32V-1.176h1.692v-1.2H15.852V-3.3h1.824V-4.5h-.9c.168-.36.348-.828.552-1.272l-.468-.12h1v-1.2h-2Zm3.516,4A11.869,11.869,0,0,0,20.52-1.332,6.218,6.218,0,0,1,19.368-.108Zm2.5-.492a8.718,8.718,0,0,1-.636,1.86,9.03,9.03,0,0,1-.852-1.86ZM22.5-5.6l-.24.06H19.368V-8.412h2.388v.984c0,.132-.06.168-.24.18s-.84,0-1.428-.024A4.9,4.9,0,0,1,20.5-6.048a5.562,5.562,0,0,0,1.98-.2c.468-.192.6-.54.6-1.152V-9.66h-5V1.032h1.3V.324a4.141,4.141,0,0,1,.66.744A6.624,6.624,0,0,0,21.336-.216a6.3,6.3,0,0,0,1.5,1.272A4.936,4.936,0,0,1,23.76-.072,5.789,5.789,0,0,1,22.092-1.38,12.257,12.257,0,0,0,23.352-5.3Z" transform="translate(45.976 207.562)" fill="#ef671f"/></g><g transform="translate(206.226 113.473)"><g transform="translate(-12.141 119)"><circle cx="30.237" cy="30.237" r="30.237" transform="translate(8.394)" fill="#fff3ed"/><path d="M19.96,0,0,26.064l31.149.558Z" transform="translate(23.056 3.957) rotate(60)" fill="#fff3ed"/></g><g transform="translate(9.211 131.959)" clip-path="url(#b)"><path d="M66.212,38.133H70.5V33.615h5.692V31.443H70.5V29.536h5.692V27.365H71.435L78.359,16.48H73.371l-2.641,5.281c-1.027,2.142-1.408,2.993-2.259,4.577h-.147c-.792-1.584-1.174-2.347-2.259-4.577L63.4,16.48H58.32l6.895,10.885H60.491v2.171h5.721v1.907H60.491v2.171h5.721Z" transform="translate(-50.863 -9.934)" fill="#ef671f"/></g></g><g transform="translate(3 0.31)"><path d="M22.226,29.437,17.5,19.307l-5.5,7.7V4L29.9,18.061H20.468L25.1,28.095Z" transform="translate(113.976 183.681)" fill="#ef671f"/><path d="M653.648,1628.973l-7.808,10.759H647.1l12.242-7.789Z" transform="translate(-497.638 -1444)" fill="#ef671f"/><path d="M7.808,0,0,10.759H1.258L13.5,2.97Z" transform="translate(157.272 190.941) rotate(37)" fill="#ef671f"/></g></g></svg>