<svg xmlns="http://www.w3.org/2000/svg" xmlns:xlink="http://www.w3.org/1999/xlink" width="574" height="280" viewBox="0 0 574 280"><defs><clipPath id="a"><rect width="574" height="280" transform="translate(616 6129)" fill="#fff" stroke="#707070" stroke-width="1"/></clipPath><clipPath id="b"><rect width="284" height="206" transform="translate(0.469 0.262)" fill="none"/></clipPath></defs><g transform="translate(-616 -6129)" clip-path="url(#a)"><g transform="translate(746.024 5884.363)"><g transform="translate(0 13)"><g transform="translate(-131.024 265.289)"><g transform="translate(0 135)"><g transform="translate(-12 -15)"><text transform="translate(21.5 51.348)" fill="#ef671f" font-size="18" font-family="Montserrat-SemiBoldItalic, Montserrat" font-weight="600" font-style="italic"><tspan x="0" y="17">55</tspan></text><text transform="translate(44.5 54.348)" fill="#ef671f" font-size="11" font-family="NotoSansJP-Medium, Noto Sans JP" font-weight="500"><tspan x="0" y="13">歳以上</tspan></text></g><g transform="translate(45 -9)"><rect width="200" height="8" transform="translate(54.5 52.348)" fill="#ffebe0"/><rect width="70.909" height="8" transform="translate(54.5 52.348)" fill="#ffd789"/></g></g><g transform="translate(0 97)"><g transform="translate(-12 -15)"><text transform="translate(20.5 51.348)" fill="#ef671f" font-size="18" font-family="Montserrat-SemiBoldItalic, Montserrat" font-weight="600" font-style="italic"><tspan x="0" y="17">45</tspan></text><text transform="translate(44.5 54.348)" fill="#ef671f" font-size="11" font-family="NotoSansJP-Medium, Noto Sans JP" font-weight="500"><tspan x="0" y="13">〜</tspan></text><text transform="translate(55.5 51.348)" fill="#ef671f" font-size="18" font-family="Montserrat-SemiBoldItalic, Montserrat" font-weight="600" font-style="italic"><tspan x="0" y="17">54</tspan></text><text transform="translate(79.5 54.348)" fill="#ef671f" font-size="11" font-family="NotoSansJP-Medium, Noto Sans JP" font-weight="500"><tspan x="0" y="13">歳</tspan></text></g><g transform="translate(45 -9)"><rect width="200" height="8" transform="translate(54.5 52.348)" fill="#ffebe0"/><rect width="89.818" height="8" transform="translate(54.5 52.348)" fill="#ffa780"/></g></g><g transform="translate(0 59)"><g transform="translate(-12 -15)"><text transform="translate(21.5 51.348)" fill="#ef671f" font-size="18" font-family="Montserrat-SemiBoldItalic, Montserrat" font-weight="600" font-style="italic"><tspan x="0" y="17">35</tspan></text><text transform="translate(44.5 54.348)" fill="#ef671f" font-size="11" font-family="NotoSansJP-Medium, Noto Sans JP" font-weight="500"><tspan x="0" y="13">〜</tspan></text><text transform="translate(55.5 51.348)" fill="#ef671f" font-size="18" font-family="Montserrat-SemiBoldItalic, Montserrat" font-weight="600" font-style="italic"><tspan x="0" y="17">44</tspan></text><text transform="translate(79.5 54.348)" fill="#ef671f" font-size="11" font-family="NotoSansJP-Medium, Noto Sans JP" font-weight="500"><tspan x="0" y="13">歳</tspan></text></g><g transform="translate(45 -9)"><rect width="200" height="8" transform="translate(54.5 52.348)" fill="#ffebe0"/><rect width="137.091" height="8" transform="translate(54.5 52.348)" fill="#ef671f"/></g></g><g transform="translate(0 21)"><g transform="translate(-12 -15)"><text transform="translate(21.5 51.348)" fill="#ef671f" font-size="18" font-family="Montserrat-SemiBoldItalic, Montserrat" font-weight="600" font-style="italic"><tspan x="0" y="17">25</tspan></text><text transform="translate(44.5 54.348)" fill="#ef671f" font-size="11" font-family="NotoSansJP-Medium, Noto Sans JP" font-weight="500"><tspan x="0" y="13">〜</tspan></text><text transform="translate(56.5 51.348)" fill="#ef671f" font-size="18" font-family="Montserrat-SemiBoldItalic, Montserrat" font-weight="600" font-style="italic"><tspan x="0" y="17">34</tspan></text><text transform="translate(79.5 54.348)" fill="#ef671f" font-size="11" font-family="NotoSansJP-Medium, Noto Sans JP" font-weight="500"><tspan x="0" y="13">歳</tspan></text></g><g transform="translate(45 -9)"><rect width="200" height="8" transform="translate(54.5 52.348)" fill="#ffebe0"/><rect width="118.182" height="8" transform="translate(54.5 52.348)" fill="#f7982e"/></g></g><g transform="translate(0 -17)"><g transform="translate(-12 -15)"><text transform="translate(21.5 51.348)" fill="#ef671f" font-size="18" font-family="Montserrat-SemiBoldItalic, Montserrat" font-weight="600" font-style="italic"><tspan x="0" y="17">18</tspan></text><text transform="translate(43.5 54.348)" fill="#ef671f" font-size="11" font-family="NotoSansJP-Medium, Noto Sans JP" font-weight="500"><tspan x="0" y="13">〜</tspan></text><text transform="translate(56.5 51.348)" fill="#ef671f" font-size="18" font-family="Montserrat-SemiBoldItalic, Montserrat" font-weight="600" font-style="italic"><tspan x="0" y="17">24</tspan></text><text transform="translate(80.5 54.348)" fill="#ef671f" font-size="11" font-family="NotoSansJP-Medium, Noto Sans JP" font-weight="500"><tspan x="0" y="13">歳</tspan></text></g><g transform="translate(45 -9)"><rect width="200" height="8" transform="translate(54.5 52.348)" fill="#ffebe0"/><rect width="61.455" height="8" transform="translate(54.5 52.348)" fill="#ffc3a3"/></g></g></g></g></g><g transform="translate(1052.685 5928.716)"><g transform="translate(-122.154 224.022)" clip-path="url(#b)"><g transform="translate(0 13)"><g transform="translate(17.641 79.387)"><rect width="104" height="8" transform="translate(124.828 5.875)" fill="#fff3ed"/><rect width="105" height="8" transform="translate(19.828 5.875)" fill="#e0ecff"/><rect width="18" height="18" transform="translate(115.828 0.875)" fill="#ef671f"/><path d="M4,4V14H14V4H4M0,0H18V18H0Z" transform="translate(115.828 0.875)" fill="#fff"/></g><g transform="translate(106.8 35.881)"><path d="M21.412,46.767V35.006H15l5.453-17.535a4.507,4.507,0,0,1,8.339,0l5.453,17.535H27.83V46.767Zm3.21-34.961a3.756,3.756,0,0,1-2.753-1.149A3.756,3.756,0,0,1,20.72,7.9a3.756,3.756,0,0,1,1.15-2.754,3.872,3.872,0,0,1,5.506,0A3.756,3.756,0,0,1,28.525,7.9a3.756,3.756,0,0,1-1.149,2.753,3.756,3.756,0,0,1-2.753,1.15Z" transform="translate(40.786 -4)" fill="#ef671f"/><path d="M25.589,15.907a3.937,3.937,0,1,1,2.8-1.153,3.937,3.937,0,0,1-2.8,1.153ZM21.636,50.17V36.992H19V23.814a3.937,3.937,0,0,1,3.953-3.953h5.272a3.937,3.937,0,0,1,3.953,3.953V36.992H29.542V50.17Z" transform="translate(-20 -8)" fill="#096cc1"/></g></g><g transform="translate(37.641 119.088)"><circle cx="40" cy="40" r="40" transform="translate(-0.172 0.174)" fill="#fff3ed"/><g transform="translate(0 -27.846)"><text transform="translate(1.828 58.02)" fill="#ef671f" font-size="30" font-family="Montserrat-SemiBoldItalic, Montserrat" font-weight="600" font-style="italic"><tspan x="11.876" y="29">50</tspan><tspan y="29" font-size="22" font-family="Montserrat-MediumItalic, Montserrat" font-weight="500">%</tspan></text><text transform="translate(-0.172 42.02)" fill="#3f3f3f" font-size="12" font-family="NotoSansJP-Bold, Noto Sans JP" font-weight="700"><tspan x="28" y="14">男性</tspan></text></g></g><g transform="translate(165.641 119.088)"><circle cx="40" cy="40" r="40" transform="translate(-0.172 0.174)" fill="#fff3ed"/><g transform="translate(0 -27.846)"><text transform="translate(0.828 58.02)" fill="#ef671f" font-size="30" font-family="Montserrat-SemiBoldItalic, Montserrat" font-weight="600" font-style="italic"><tspan x="11.876" y="29">50</tspan><tspan y="29" font-size="22" font-family="Montserrat-MediumItalic, Montserrat" font-weight="500">%</tspan></text><text transform="translate(-0.172 42.02)" fill="#3f3f3f" font-size="12" font-family="NotoSansJP-Bold, Noto Sans JP" font-weight="700"><tspan x="28" y="14">女性</tspan></text></g></g></g></g></g></svg>