<svg xmlns="http://www.w3.org/2000/svg" xmlns:xlink="http://www.w3.org/1999/xlink" width="276" height="160" viewBox="0 0 276 160"><defs><clipPath id="a"><rect width="276" height="160" rx="4" transform="translate(-8.024 138)" fill="#fff"/></clipPath><clipPath id="b"><rect width="27" height="27" transform="translate(-0.173 -0.173)" fill="#ef671f"/></clipPath><clipPath id="c"><rect width="28" height="27" transform="translate(-0.434 0.385)" fill="#e3e3e3"/></clipPath><clipPath id="d"><rect width="27" height="27" transform="translate(0.282 0.053)" fill="#e3e3e3"/></clipPath><clipPath id="e"><rect width="28" height="27" transform="translate(-0.324 0.385)" fill="#e3e3e3"/></clipPath></defs><g transform="translate(8.024 -138)" clip-path="url(#a)"><g transform="translate(0 32)"><path d="M-26.6,247.471l-1.585-1.219,41.1-53.43L14.5,194.04Z" transform="translate(46.539 -37.945)" fill="#ef671f"/><path d="M-3.693,263.477l-1.923-.55,18.09-63.265,1.923.55Z" transform="translate(96.539 -37.945)" fill="#ef671f"/><path d="M4.678,250.611-.4,201.016l1.99-.2,5.082,49.6Z" transform="translate(156.539 -38.422)" fill="#ef671f"/><path d="M33.44,264.765-5.383,194.258l1.752-.965L35.192,263.8Z" transform="translate(206.539 -37.945)" fill="#ef671f"/><g transform="translate(46.539 -37.945)"><g transform="translate(12.706 152.962)"><path d="M98.126,31.324A16.609,16.609,0,0,0,96.1,32c0,1.157-.193,6.458-.193,6.458-.1,2.41-1.157,4.048-3.952,5.2l-1.06-.289c1.349-.771,2.024-1.542,2.12-2.12.289-.771.386-2.6.386-5.879,0,0,0-2.506-.1-3.373-.386-.1-2.12-.482-2.7-.578v-.771c1.06,0,3.566.1,4.434.1.964,0,2.12,0,3.084-.1Zm45.011,1.542a7.545,7.545,0,0,1-1.349.289c0,.867.1,7.132.1,8.578,0,.193-.193.289-.482.1-1.349-1.349-5.687-6.265-7.132-8,0,1.157.1,5.59.1,6.361a14.373,14.373,0,0,0,2.024.482l.1.867h-4.723v-.867a7.554,7.554,0,0,1,1.349-.482c.1-.482.1-6.65.1-7.132-.386,0-1.06-.1-1.542-.1V31.9h3.47c1.253,1.446,4.241,4.723,5.783,6.458,0-1.446-.1-4.819-.1-5.4a12.088,12.088,0,0,1-1.446-.193l-.1-.867c.289,0,1.928.1,2.217.1s1.638-.1,1.928-.1Zm-25.638,2.6c0,1.157-1.06,1.639-2.313,1.831v.867c2.506-.289,4.144-1.253,4.144-2.8v-.1c0-1.735-1.157-3.277-3.855-3.277h-5.2l.193.964a9.351,9.351,0,0,0,1.638.1c0,1.157.193,6.072.1,7.518-.289.1-1.253.289-1.638.386l-.1.867h5.976v-.675a18.447,18.447,0,0,0-2.024-.386c0-.289-.1-7.229-.1-7.614a11.684,11.684,0,0,1,1.928.1,2.039,2.039,0,0,1,1.349,2.12M46.85,13.2c-.675.1-3.566.675-4.53.867-1.06.289-10.891,8-11.566,9.831-.1.578,0,7.325,0,7.325l5.59.386-.193,1.831c-.771-.1-5.976,0-9.253,0-1.639,0-6.65.193-8.385.1l.193-1.735a11.561,11.561,0,0,0,3.663-.386c.964-.289,1.735-.675,1.735-1.639V24c-.386-1.06-8.578-11.373-10.7-13.012-.578-.193-4.723-.675-5.687-.867l.193-1.735H26.707l-.289,1.639c-.867.193-4.819.289-5.879.578,2.7,3.952,6.94,9.156,8.289,11.084.771-1.06,8-6.168,8.193-7.711-1.06-.193-4.434-.675-5.012-.675l-.289-1.735H47.911Zm40.1,15.036c-2.988-.193-8.193-.1-11.18,0l.193-1.542c.482,0,2.891-.386,3.47-.482v-5.4c-1.446,0-9.735.193-10.988.482v4.819s3.566.386,4.337.482l-.193,1.639c-3.181-.193-9.638-.193-12.722,0l.193-1.735c.964,0,3.566-.289,4.144-.386.1-1.157.1-3.084.1-5.012V18.7c0-.867,0-3.181-.1-4.048-.675,0-3.663-.289-4.434-.289l.193-1.542c2.7.193,10.891.193,13.108,0l-.193,1.446c-.675,0-3.566.482-4.434.482v4.241H79.428V12.722c-.771-.1-2.8-.482-3.663-.578l.193-1.446c1.831.1,9.156.1,11.084,0l-.1,1.542c-.578,0-2.7.386-3.47.482V26.408s3.084.386,3.759.482Zm55.42,1.639-2.024.1.386-3.47,2.024.1,1.928-.1-.386,3.373Zm2.313-6.168h-2.988V8.192h6.747l-.578,2.313Z" transform="translate(-7.719 -8.192)" fill="#ff0132"/><path d="M118.9,27.579h-1.542c-2.506-.1-7.325-1.446-7.325-5.783v-.386c0-4.241,4.819-5.687,7.325-5.783H118.9c2.506.1,7.325,1.446,7.325,5.783V21.8c0,4.241-4.819,5.687-7.325,5.783m11.566-6.072c0-4.916-4.723-7.9-11.951-8.1h-.771c-7.614.193-11.855,3.181-11.855,8.1V21.7c0,4.626,4.626,7.9,11.855,8.1h.771c7.229-.193,11.855-3.277,11.951-8.1Zm15.614,4.434h-2.12c-2.7-.193-7.614-1.831-7.711-6.458.1-4.626,5.012-6.168,7.711-6.361h2.12c2.7.193,7.614,1.735,7.711,6.361,0,4.626-5.012,6.361-7.711,6.458m12.433-6.458c-.193-5.2-5.108-8.578-13.108-8.771h-.578c-8,.193-13.012,3.277-13.108,8.674v.193c.193,5.4,5.108,8.578,13.108,8.771h.578c7.9-.193,12.915-3.373,13.108-8.867h0m-92.527,5.4c.289-.675,2.6-5.687,2.6-5.687l2.217,5.687Zm11.951,6.554c-.867-1.349-3.952-9.156-5.4-12.626l2.6-.386.289-1.349H71.485c-1.446,0-7.614,0-8.193-.1l-.1,1.349,3.084.771s-4.53,9.06-5.494,10.313c-.771.193-2.8.675-3.566.771l-.193,1.639c.578-.1,8.578,0,9.349,0l.193-1.542-2.8-.675s1.253-2.6,1.446-2.891c.867-.193,6.072-.289,6.072-.289l1.831,5.012a28.662,28.662,0,0,1-3.084.386l-.193,1.639h11.47l.193-1.446a24.9,24.9,0,0,1-3.566-.578m70.648,10.12c-1.06-2.217-2.8-6.458-3.277-7.614l1.253-.193.1-.867-5.108.193v.675l1.349.193c-.867,1.928-3.181,6.843-3.566,7.421-.386.1-.771.289-1.157.386l-.1.771c1.157-.1,3.759,0,4.144,0v-.675l-1.253-.386s.771-1.928,1.06-2.506H145.6l.964,2.506s-.867.193-1.542.289l-.1.675h5.2l.1-.771a3.75,3.75,0,0,1-1.639-.1Zm-6.265-3.277c.193-.482,1.542-3.663,1.542-3.663l1.446,3.663ZM127.1,41.555c-.675-1.349-2.41-5.59-3.277-7.614l1.349-.289V32.88l-5.2.193v.675l1.349.193c-.867,1.928-3.181,6.843-3.566,7.421a5.433,5.433,0,0,1-1.157.386l-.1.771h4.144v-.675l-1.253-.386s.771-1.928,1.06-2.506h3.566l.964,2.506s-.867.193-1.542.289l-.1.675h5.2l.1-.771a3.438,3.438,0,0,1-1.542-.1Zm-6.265-3.277c.193-.482,1.542-3.663,1.542-3.663l1.446,3.663Z" transform="translate(-26.86 -9.17)" fill="#ff0132"/></g><circle cx="4" cy="4" r="4" transform="translate(9.437 189.945)" fill="#ef671f"/><circle cx="4" cy="4" r="4" transform="translate(59.437 195.945)" fill="#ef671f"/><circle cx="4" cy="4" r="4" transform="translate(106.437 195.945)" fill="#ef671f"/><circle cx="4" cy="4" r="4" transform="translate(151.437 189.945)" fill="#ef671f"/></g></g><g transform="translate(22.505 -6)"><g transform="translate(-27.53 222)"><circle cx="23.5" cy="23.5" r="23.5" transform="translate(0 0)" fill="#fff3ed"/><g transform="translate(10.173 10.173)" clip-path="url(#b)"><path d="M16.7,16.8a4.664,4.664,0,0,1-4.8-4.8,4.665,4.665,0,0,1,4.8-4.8,4.665,4.665,0,0,1,4.8,4.8,4.664,4.664,0,0,1-4.8,4.8ZM6.667,26.869V23.734a3.541,3.541,0,0,1,.579-2.023,3.67,3.67,0,0,1,1.521-1.3,22.476,22.476,0,0,1,4-1.427A16.287,16.287,0,0,1,16.7,18.5a16.1,16.1,0,0,1,3.919.486,23.507,23.507,0,0,1,4.014,1.427,3.665,3.665,0,0,1,1.52,1.3,3.537,3.537,0,0,1,.58,2.023v3.135Z" transform="translate(-3.386 -3.266)" fill="#ef671f"/></g></g><g transform="translate(44.732 251.443)"><ellipse cx="24" cy="24.5" rx="24" ry="24.5" transform="translate(-0.261 -0.443)" fill="#fff3ed"/><g transform="translate(10.173 10.173)" clip-path="url(#c)"><path d="M16.7,16.8a4.664,4.664,0,0,1-4.8-4.8,4.665,4.665,0,0,1,4.8-4.8,4.665,4.665,0,0,1,4.8,4.8,4.664,4.664,0,0,1-4.8,4.8ZM6.667,26.869V23.734a3.541,3.541,0,0,1,.579-2.023,3.67,3.67,0,0,1,1.521-1.3,22.476,22.476,0,0,1,4-1.427A16.287,16.287,0,0,1,16.7,18.5a16.1,16.1,0,0,1,3.919.486,23.507,23.507,0,0,1,4.014,1.427,3.665,3.665,0,0,1,1.52,1.3,3.537,3.537,0,0,1,.58,2.023v3.135Z" transform="translate(-2.64 -3.067)" fill="#ef671f"/></g></g><g transform="translate(115.015 223.774)"><circle cx="24" cy="24" r="24" transform="translate(0.455 0.226)" fill="#fff3ed"/><g transform="translate(10.173 10.173)" clip-path="url(#d)"><path d="M16.7,16.8a4.664,4.664,0,0,1-4.8-4.8,4.665,4.665,0,0,1,4.8-4.8,4.665,4.665,0,0,1,4.8,4.8,4.664,4.664,0,0,1-4.8,4.8ZM6.667,26.869V23.734a3.541,3.541,0,0,1,.579-2.023,3.67,3.67,0,0,1,1.521-1.3,22.476,22.476,0,0,1,4-1.427A16.287,16.287,0,0,1,16.7,18.5a16.1,16.1,0,0,1,3.919.486,23.507,23.507,0,0,1,4.014,1.427,3.665,3.665,0,0,1,1.52,1.3,3.537,3.537,0,0,1,.58,2.023v3.135Z" transform="translate(-2.799 -3.475)" fill="#ef671f"/></g></g><g transform="translate(193.622 238.443)"><ellipse cx="24" cy="24.5" rx="24" ry="24.5" transform="translate(-0.152 -0.443)" fill="#fff3ed"/><g transform="translate(10.173 10.173)" clip-path="url(#e)"><path d="M16.7,16.8a4.664,4.664,0,0,1-4.8-4.8,4.665,4.665,0,0,1,4.8-4.8,4.665,4.665,0,0,1,4.8,4.8,4.664,4.664,0,0,1-4.8,4.8ZM6.667,26.869V23.734a3.541,3.541,0,0,1,.579-2.023,3.67,3.67,0,0,1,1.521-1.3,22.476,22.476,0,0,1,4-1.427A16.287,16.287,0,0,1,16.7,18.5a16.1,16.1,0,0,1,3.919.486,23.507,23.507,0,0,1,4.014,1.427,3.665,3.665,0,0,1,1.52,1.3,3.537,3.537,0,0,1,.58,2.023v3.135Z" transform="translate(-2.73 -3.067)" fill="#ef671f"/></g></g></g></g></svg>