<svg xmlns="http://www.w3.org/2000/svg" xmlns:xlink="http://www.w3.org/1999/xlink" width="180" height="180" viewBox="0 0 180 180"><defs><clipPath id="a"><circle cx="90" cy="90" r="90" transform="translate(-0.42)" fill="#fff" stroke="#707070" stroke-width="1"/></clipPath></defs><g transform="translate(0.42)" clip-path="url(#a)"><circle cx="90" cy="90" r="90" transform="translate(-0.42)" fill="#fff"/><path d="M90,1A89.663,89.663,0,0,0,72.062,2.808,88.507,88.507,0,0,0,40.24,16.2,89.263,89.263,0,0,0,7.994,55.357a88.544,88.544,0,0,0-5.185,16.7,89.877,89.877,0,0,0,0,35.875A88.507,88.507,0,0,0,16.2,139.76a89.263,89.263,0,0,0,39.158,32.246,88.544,88.544,0,0,0,16.7,5.185,89.877,89.877,0,0,0,35.875,0A88.507,88.507,0,0,0,139.76,163.8a89.263,89.263,0,0,0,32.246-39.158,88.545,88.545,0,0,0,5.185-16.7,89.877,89.877,0,0,0,0-35.875A88.507,88.507,0,0,0,163.8,40.24,89.263,89.263,0,0,0,124.643,7.994a88.545,88.545,0,0,0-16.7-5.185A89.663,89.663,0,0,0,90,1m0-1A90,90,0,1,1,0,90,90,90,0,0,1,90,0Z" transform="translate(-0.42)" fill="#707070"/><g transform="translate(-28.556 -9.084)"><rect width="261.53" height="217.877" rx="4" fill="#fff3ed"/><path d="M4,1A3,3,0,0,0,1,4V213.877a3,3,0,0,0,3,3H257.53a3,3,0,0,0,3-3V4a3,3,0,0,0-3-3H4M4,0H257.53a4,4,0,0,1,4,4V213.877a4,4,0,0,1-4,4H4a4,4,0,0,1-4-4V4A4,4,0,0,1,4,0Z" fill="#707070"/><g transform="translate(62.325 66.402)"><rect width="113.631" height="27.151" rx="4" transform="translate(0 0)" fill="#ef671f"/><path d="M16.635,17.144a7.1,7.1,0,0,1-3.2-.666,4.7,4.7,0,0,1-2.025-1.863,5.451,5.451,0,0,1-.693-2.781,7.988,7.988,0,0,1,.54-2.943A7.269,7.269,0,0,1,12.8,6.47a7.11,7.11,0,0,1,2.412-1.629,8.119,8.119,0,0,1,3.15-.585,7.142,7.142,0,0,1,3.222.666A4.7,4.7,0,0,1,23.61,6.785,5.451,5.451,0,0,1,24.3,9.566a7.988,7.988,0,0,1-.54,2.943,7.269,7.269,0,0,1-1.548,2.421,7.089,7.089,0,0,1-2.421,1.629A8.186,8.186,0,0,1,16.635,17.144Zm.162-1.6a5.883,5.883,0,0,0,2.358-.459,5.124,5.124,0,0,0,1.8-1.278,5.818,5.818,0,0,0,1.134-1.881,6.387,6.387,0,0,0,.4-2.25A3.956,3.956,0,0,0,22,7.685a3.359,3.359,0,0,0-1.44-1.341,5.114,5.114,0,0,0-2.34-.486,5.866,5.866,0,0,0-2.367.459,5.235,5.235,0,0,0-1.8,1.278,5.737,5.737,0,0,0-1.143,1.881,6.387,6.387,0,0,0-.4,2.25,3.9,3.9,0,0,0,.495,1.989,3.428,3.428,0,0,0,1.44,1.341A5.1,5.1,0,0,0,16.8,15.542ZM25.689,17l2.52-12.6h1.476l6.048,10.4-.54-.072L37.245,4.4h1.8L36.525,17H35.049L29,6.6l.54.072L27.489,17Z" transform="translate(31.173 3.017)" fill="#fff"/></g><g transform="translate(62.325 103.609)"><rect width="113.631" height="26.145" rx="4" transform="translate(0 0)" fill="#fff"/><path d="M4,1A3,3,0,0,0,1,4V22.145a3,3,0,0,0,3,3H109.631a3,3,0,0,0,3-3V4a3,3,0,0,0-3-3H4M4,0H109.631a4,4,0,0,1,4,4V22.145a4,4,0,0,1-4,4H4a4,4,0,0,1-4-4V4A4,4,0,0,1,4,0Z" transform="translate(0 0)" fill="#ef671f"/><path d="M12.513,17.144a7.1,7.1,0,0,1-3.2-.666,4.7,4.7,0,0,1-2.025-1.863,5.451,5.451,0,0,1-.693-2.781,7.988,7.988,0,0,1,.54-2.943A7.269,7.269,0,0,1,8.679,6.47a7.11,7.11,0,0,1,2.412-1.629,8.119,8.119,0,0,1,3.15-.585,7.142,7.142,0,0,1,3.222.666,4.7,4.7,0,0,1,2.025,1.863,5.451,5.451,0,0,1,.693,2.781,7.988,7.988,0,0,1-.54,2.943,7.269,7.269,0,0,1-1.548,2.421,7.089,7.089,0,0,1-2.421,1.629A8.186,8.186,0,0,1,12.513,17.144Zm.162-1.6a5.883,5.883,0,0,0,2.358-.459,5.124,5.124,0,0,0,1.8-1.278,5.818,5.818,0,0,0,1.134-1.881,6.387,6.387,0,0,0,.4-2.25,3.956,3.956,0,0,0-.486-1.989,3.359,3.359,0,0,0-1.44-1.341,5.114,5.114,0,0,0-2.34-.486,5.866,5.866,0,0,0-2.367.459A5.235,5.235,0,0,0,9.93,7.6,5.737,5.737,0,0,0,8.787,9.476a6.387,6.387,0,0,0-.4,2.25,3.9,3.9,0,0,0,.495,1.989,3.428,3.428,0,0,0,1.44,1.341A5.1,5.1,0,0,0,12.675,15.542Zm11.862-5.184h6.48l-.306,1.548h-6.5ZM23.367,17h-1.8l2.52-12.6h8.892l-.306,1.566h-7.11Zm12.6-6.642h6.48l-.306,1.548h-6.5ZM34.8,17H33l2.52-12.6h8.892L44.1,5.966h-7.11Z" transform="translate(32.179 3.017)" fill="#ef671f"/></g><path d="M22.7,30.625l-4.95-10.6L12,28.083V4L30.731,18.717H20.864l4.85,10.5Z" transform="translate(150.086 113.282)" fill="#ef671f"/><g transform="translate(177.859 104.924) rotate(-13)"><path d="M8.269,0,0,11.395H1.332L14.3,3.146Z" transform="translate(0 0)" fill="#ef671f"/><path d="M8.269,0,0,11.395H1.332L14.3,3.146Z" transform="translate(9.606 6.321) rotate(37)" fill="#ef671f"/></g></g><path d="M90,1A89.663,89.663,0,0,0,72.062,2.808,88.507,88.507,0,0,0,40.24,16.2,89.263,89.263,0,0,0,7.994,55.357a88.544,88.544,0,0,0-5.185,16.7,89.877,89.877,0,0,0,0,35.875A88.507,88.507,0,0,0,16.2,139.76a89.263,89.263,0,0,0,39.158,32.246,88.544,88.544,0,0,0,16.7,5.185,89.877,89.877,0,0,0,35.875,0A88.507,88.507,0,0,0,139.76,163.8a89.263,89.263,0,0,0,32.246-39.158,88.545,88.545,0,0,0,5.185-16.7,89.877,89.877,0,0,0,0-35.875A88.507,88.507,0,0,0,163.8,40.24,89.263,89.263,0,0,0,124.643,7.994a88.545,88.545,0,0,0-16.7-5.185A89.663,89.663,0,0,0,90,1m0-1A90,90,0,1,1,0,90,90,90,0,0,1,90,0Z" transform="translate(-0.42)" fill="#ef671f"/></g></svg>