<svg xmlns="http://www.w3.org/2000/svg" xmlns:xlink="http://www.w3.org/1999/xlink" width="276" height="160" viewBox="0 0 276 160"><defs><clipPath id="a"><rect width="276" height="160" rx="4" transform="translate(-7.024 138)" fill="#fff"/></clipPath><clipPath id="b"><rect width="34.556" height="34.556" fill="#e3e3e3"/></clipPath></defs><g transform="translate(7.024 -138)" clip-path="url(#a)"><path d="M4,2A2,2,0,0,0,2,4v97a2,2,0,0,0,2,2H176a2,2,0,0,0,2-2V4a2,2,0,0,0-2-2H4M4,0H176a4,4,0,0,1,4,4v97a4,4,0,0,1-4,4H4a4,4,0,0,1-4-4V4A4,4,0,0,1,4,0Z" transform="translate(40.976 166)" fill="#ef671f"/><g transform="translate(14 -22.562)"><g transform="translate(-16.157 167.562)"><rect width="100" height="67" transform="translate(12.133 5)" fill="#fff"/><path d="M1,90.551v-6.04H19.524V79.545a7.347,7.347,0,0,1-5.369-2.282,7.5,7.5,0,0,1-2.282-5.5V15.785a7.5,7.5,0,0,1,2.282-5.5A7.347,7.347,0,0,1,19.524,8h86.444a7.347,7.347,0,0,1,5.369,2.282,7.5,7.5,0,0,1,2.282,5.5V71.759a7.5,7.5,0,0,1-2.282,5.5,7.347,7.347,0,0,1-5.369,2.282v4.966h18.524v6.04ZM19.524,73.5h86.444a1.553,1.553,0,0,0,1.141-.47,1.723,1.723,0,0,0,.47-1.275V15.785a1.723,1.723,0,0,0-.47-1.275,1.553,1.553,0,0,0-1.141-.47H19.524a1.553,1.553,0,0,0-1.141.47,1.723,1.723,0,0,0-.47,1.275V71.759a1.723,1.723,0,0,0,.47,1.275,1.553,1.553,0,0,0,1.141.47Zm-1.611,0v0Z" transform="translate(-1 -7.915)" fill="#ef671f"/></g><text transform="translate(45.976 207.562)" fill="#ef671f" font-size="12" font-family="NotoSansJP-Bold, Noto Sans JP" font-weight="700"><tspan x="-24" y="0">求人情報</tspan></text></g><g transform="translate(206.226 113.473)"><g transform="translate(-12.141 119)"><circle cx="30.237" cy="30.237" r="30.237" transform="translate(8.394)" fill="#fff3ed"/><path d="M19.96,0,0,26.064l31.149.558Z" transform="translate(23.056 3.957) rotate(60)" fill="#fff3ed"/></g><g transform="translate(9.211 131.959)" clip-path="url(#b)"><path d="M66.212,38.133H70.5V33.615h5.692V31.443H70.5V29.536h5.692V27.365H71.435L78.359,16.48H73.371l-2.641,5.281c-1.027,2.142-1.408,2.993-2.259,4.577h-.147c-.792-1.584-1.174-2.347-2.259-4.577L63.4,16.48H58.32l6.895,10.885H60.491v2.171h5.721v1.907H60.491v2.171h5.721Z" transform="translate(-50.863 -9.934)" fill="#ef671f"/></g></g><g transform="translate(3 0.31)"><path d="M22.226,29.437,17.5,19.307l-5.5,7.7V4L29.9,18.061H20.468L25.1,28.095Z" transform="translate(113.976 183.681)" fill="#ef671f"/><path d="M653.648,1628.973l-7.808,10.759H647.1l12.242-7.789Z" transform="translate(-497.638 -1444)" fill="#ef671f"/><path d="M7.808,0,0,10.759H1.258L13.5,2.97Z" transform="translate(157.272 190.941) rotate(37)" fill="#ef671f"/></g></g></svg>