<svg xmlns="http://www.w3.org/2000/svg" xmlns:xlink="http://www.w3.org/1999/xlink" width="180" height="180" viewBox="0 0 180 180"><defs><clipPath id="a"><circle cx="90" cy="90" r="90" transform="translate(-0.42)" fill="#fff" stroke="#707070" stroke-width="1"/></clipPath></defs><g transform="translate(0.42)" clip-path="url(#a)"><circle cx="90" cy="90" r="90" transform="translate(-0.42)" fill="#fff"/><path d="M90,1A89.663,89.663,0,0,0,72.062,2.808,88.507,88.507,0,0,0,40.24,16.2,89.263,89.263,0,0,0,7.994,55.357a88.544,88.544,0,0,0-5.185,16.7,89.877,89.877,0,0,0,0,35.875A88.507,88.507,0,0,0,16.2,139.76a89.263,89.263,0,0,0,39.158,32.246,88.544,88.544,0,0,0,16.7,5.185,89.877,89.877,0,0,0,35.875,0A88.507,88.507,0,0,0,139.76,163.8a89.263,89.263,0,0,0,32.246-39.158,88.545,88.545,0,0,0,5.185-16.7,89.877,89.877,0,0,0,0-35.875A88.507,88.507,0,0,0,163.8,40.24,89.263,89.263,0,0,0,124.643,7.994a88.545,88.545,0,0,0-16.7-5.185A89.663,89.663,0,0,0,90,1m0-1A90,90,0,1,1,0,90,90,90,0,0,1,90,0Z" transform="translate(-0.42)" fill="#707070"/><g transform="translate(-28.556 -9.084)"><rect width="261.53" height="217.877" rx="4" fill="#fff3ed"/><path d="M4,1A3,3,0,0,0,1,4V213.877a3,3,0,0,0,3,3H257.53a3,3,0,0,0,3-3V4a3,3,0,0,0-3-3H4M4,0H257.53a4,4,0,0,1,4,4V213.877a4,4,0,0,1-4,4H4a4,4,0,0,1-4-4V4A4,4,0,0,1,4,0Z" fill="#707070"/><g transform="translate(62.325 66.402)"><rect width="113.631" height="27.151" rx="4" transform="translate(0 0)" fill="#ef671f"/><text transform="translate(31.173 3.017)" fill="#fff" font-size="18" font-family="Montserrat-MediumItalic, Montserrat" font-weight="500" font-style="italic"><tspan x="-14.868" y="17">ON</tspan></text></g><g transform="translate(62.325 103.609)"><rect width="113.631" height="26.145" rx="4" transform="translate(0 0)" fill="#fff"/><path d="M4,1A3,3,0,0,0,1,4V22.145a3,3,0,0,0,3,3H109.631a3,3,0,0,0,3-3V4a3,3,0,0,0-3-3H4M4,0H109.631a4,4,0,0,1,4,4V22.145a4,4,0,0,1-4,4H4a4,4,0,0,1-4-4V4A4,4,0,0,1,4,0Z" transform="translate(0 0)" fill="#ef671f"/><text transform="translate(32.179 3.017)" fill="#ef671f" font-size="18" font-family="Montserrat-MediumItalic, Montserrat" font-weight="500" font-style="italic"><tspan x="-18.99" y="17">OFF</tspan></text></g><path d="M22.7,30.625l-4.95-10.6L12,28.083V4L30.731,18.717H20.864l4.85,10.5Z" transform="translate(150.086 113.282)" fill="#ef671f"/><g transform="translate(177.859 104.924) rotate(-13)"><path d="M8.269,0,0,11.395H1.332L14.3,3.146Z" transform="translate(0 0)" fill="#ef671f"/><path d="M8.269,0,0,11.395H1.332L14.3,3.146Z" transform="translate(9.606 6.321) rotate(37)" fill="#ef671f"/></g></g><path d="M90,1A89.663,89.663,0,0,0,72.062,2.808,88.507,88.507,0,0,0,40.24,16.2,89.263,89.263,0,0,0,7.994,55.357a88.544,88.544,0,0,0-5.185,16.7,89.877,89.877,0,0,0,0,35.875A88.507,88.507,0,0,0,16.2,139.76a89.263,89.263,0,0,0,39.158,32.246,88.544,88.544,0,0,0,16.7,5.185,89.877,89.877,0,0,0,35.875,0A88.507,88.507,0,0,0,139.76,163.8a89.263,89.263,0,0,0,32.246-39.158,88.545,88.545,0,0,0,5.185-16.7,89.877,89.877,0,0,0,0-35.875A88.507,88.507,0,0,0,163.8,40.24,89.263,89.263,0,0,0,124.643,7.994a88.545,88.545,0,0,0-16.7-5.185A89.663,89.663,0,0,0,90,1m0-1A90,90,0,1,1,0,90,90,90,0,0,1,90,0Z" transform="translate(-0.42)" fill="#ef671f"/></g></svg>