<svg xmlns="http://www.w3.org/2000/svg" xmlns:xlink="http://www.w3.org/1999/xlink" width="179.994" height="179.994" viewBox="0 0 179.994 179.994"><defs><clipPath id="a"><circle cx="89.997" cy="89.997" r="89.997" transform="translate(-0.42)" fill="#fff" stroke="#707070" stroke-width="1"/></clipPath></defs><g transform="translate(0.42)" clip-path="url(#a)"><circle cx="89.997" cy="89.997" r="89.997" transform="translate(-0.42)" fill="#fff"/><path d="M90,1A89.661,89.661,0,0,0,72.06,2.808,88.5,88.5,0,0,0,40.239,16.2,89.26,89.26,0,0,0,7.993,55.356a88.545,88.545,0,0,0-5.185,16.7,89.876,89.876,0,0,0,0,35.874A88.5,88.5,0,0,0,16.2,139.756,89.26,89.26,0,0,0,55.356,172a88.545,88.545,0,0,0,16.7,5.185,89.876,89.876,0,0,0,35.874,0A88.5,88.5,0,0,0,139.756,163.8,89.26,89.26,0,0,0,172,124.639a88.545,88.545,0,0,0,5.185-16.7,89.876,89.876,0,0,0,0-35.874A88.5,88.5,0,0,0,163.8,40.239,89.26,89.26,0,0,0,124.639,7.993a88.545,88.545,0,0,0-16.7-5.185A89.661,89.661,0,0,0,90,1m0-1A90,90,0,1,1,0,90,90,90,0,0,1,90,0Z" transform="translate(-0.42)" fill="#707070"/><g transform="translate(-28.556 -9.083)"><rect width="261.538" height="217.87" rx="4" fill="#fff3ed"/><path d="M4,1A3,3,0,0,0,1,4V213.87a3,3,0,0,0,3,3H257.538a3,3,0,0,0,3-3V4a3,3,0,0,0-3-3H4M4,0H257.538a4,4,0,0,1,4,4V213.87a4,4,0,0,1-4,4H4a4,4,0,0,1-4-4V4A4,4,0,0,1,4,0Z" fill="#707070"/><g transform="translate(52.271 23.161)"><rect width="143.803" height="72.4" rx="4" transform="translate(0 0)" fill="#fff"/><path d="M4.968,13.46V10.772H9.5V13.46ZM7.56,6.1A9.389,9.389,0,0,1,5.616,8.636,16.507,16.507,0,0,0,3.528,6.86c.264-.24.5-.5.732-.756Zm3.1,3.648H6.048a11.164,11.164,0,0,0,3.036-4.3l-.756-.408-.2.06H5.064c.228-.324.444-.648.636-.984l-1.26-.24A9.946,9.946,0,0,1,.432,7.736a3.4,3.4,0,0,1,.792.864A15.149,15.149,0,0,0,2.7,7.592,15.1,15.1,0,0,1,4.716,9.4,13.444,13.444,0,0,1,.408,11.6a4.535,4.535,0,0,1,.636,1,15.026,15.026,0,0,0,2.808-1.26v3.6H4.968v-.468H9.5v.492h1.152Zm3.756,1.788V10.52h2.376v1.02Zm2.376-2.856v.984H14.412V8.684Zm1.068-.948H13.368v7.152h1.044v-2.5h2.376v1.356c0,.156-.048.2-.216.216-.144.012-.672.012-1.2-.012a4.675,4.675,0,0,1,.372.96A4.057,4.057,0,0,0,17.4,14.72c.348-.156.456-.432.456-.948Zm3.66,5.9c0,.168-.06.216-.252.228s-.828.012-1.5-.012a3.89,3.89,0,0,1,.4,1.056,4.961,4.961,0,0,0,1.92-.2c.408-.168.54-.468.54-1.056V7.508h-1.1Zm-1.356-5.8H19.128v4.884H20.16Zm.564-2.088c.336-.456.672-.984,1-1.5l-1.212-.372a11.35,11.35,0,0,1-1.056,1.872H16l.612-.228A7.209,7.209,0,0,0,15.456,3.92l-1.044.36a7.983,7.983,0,0,1,1,1.476H12.66v1.02H23.352V5.756Z" transform="translate(26.146 4.022)" fill="#3f3f3f"/><rect width="12.067" height="12.067" rx="2" transform="translate(8.045 8.044)" fill="#fff"/><path d="M2,1A1,1,0,0,0,1,2v8.067a1,1,0,0,0,1,1h8.067a1,1,0,0,0,1-1V2a1,1,0,0,0-1-1H2M2,0h8.067a2,2,0,0,1,2,2v8.067a2,2,0,0,1-2,2H2a2,2,0,0,1-2-2V2A2,2,0,0,1,2,0Z" transform="translate(8.045 8.044)" fill="#c6c6c6"/><path d="M.44,12H5.19v-.98H3.32c-.36,0-.83.03-1.2.07,1.53-1.6,2.72-2.92,2.72-4.23A2.058,2.058,0,0,0,2.62,4.7,2.888,2.888,0,0,0,.38,5.8l.65.64a2,2,0,0,1,1.45-.82,1.165,1.165,0,0,1,1.25,1.3c0,1.12-1.24,2.4-3.29,4.41Zm8.11.13c1.47,0,2.38-1.33,2.38-3.74S10.02,4.7,8.55,4.7,6.17,5.98,6.17,8.39,7.09,12.13,8.55,12.13Zm0-.91c-.75,0-1.28-.77-1.28-2.83S7.8,5.61,8.55,5.61s1.28.72,1.28,2.78S9.3,11.22,8.55,11.22Zm3.29.78h4.75v-.98H14.72c-.36,0-.83.03-1.2.07,1.53-1.6,2.72-2.92,2.72-4.23A2.058,2.058,0,0,0,14.02,4.7a2.888,2.888,0,0,0-2.24,1.1l.65.64a2,2,0,0,1,1.45-.82,1.165,1.165,0,0,1,1.25,1.3c0,1.12-1.24,2.4-3.29,4.41Zm7.94.13a2.187,2.187,0,0,0,2.46-2.05,1.837,1.837,0,0,0-1.52-1.8V8.23a1.726,1.726,0,0,0,1.27-1.67c0-1.18-.93-1.86-2.25-1.86a3.067,3.067,0,0,0-2.11.9l.6.72a2.074,2.074,0,0,1,1.47-.7,1,1,0,0,1,1.13,1.03c0,.69-.48,1.22-1.93,1.22v.85c1.66,0,2.18.51,2.18,1.3,0,.72-.57,1.17-1.4,1.17a2.378,2.378,0,0,1-1.74-.81l-.56.74A3.055,3.055,0,0,0,19.78,12.13Zm3.14,1.67h.8L26.5,4.01h-.8ZM26.85,12h1.21l.64-1.17c.17-.33.34-.66.51-.97h.05c.2.31.39.65.57.97L30.55,12H31.8L30.03,9.26,31.68,6.5h-1.2L29.9,7.6c-.15.31-.31.62-.46.93H29.4c-.18-.31-.36-.62-.52-.93l-.66-1.1H26.98l1.65,2.63Zm5.26,0h1.21l.64-1.17c.17-.33.34-.66.51-.97h.05c.2.31.39.65.57.97L35.81,12h1.25L35.29,9.26,36.94,6.5h-1.2l-.58,1.1c-.15.31-.31.62-.46.93h-.04c-.18-.31-.36-.62-.52-.93l-.66-1.1H32.24l1.65,2.63Zm5.23,1.8h.8l2.78-9.79h-.8ZM41.27,12h1.21l.64-1.17c.17-.33.34-.66.51-.97h.05c.2.31.39.65.57.97L44.97,12h1.25L44.45,9.26,46.1,6.5H44.9l-.58,1.1c-.15.31-.31.62-.46.93h-.04c-.18-.31-.36-.62-.52-.93l-.66-1.1H41.4l1.65,2.63Zm5.26,0h1.21l.64-1.17c.17-.33.34-.66.51-.97h.05c.2.31.39.65.57.97L50.23,12h1.25L49.71,9.26,51.36,6.5h-1.2l-.58,1.1c-.15.31-.31.62-.46.93h-.04c-.18-.31-.36-.62-.52-.93L47.9,6.5H46.66l1.65,2.63Z" transform="translate(26.146 23.128)" fill="#3f3f3f"/><g transform="translate(26.146 49.272)"><rect width="52.795" height="16.089" rx="1" fill="#ef671f"/><path d="M51.37,62.788l-4.98-4.869,1.4-1.43,3.527,3.448L57.34,53.57l1.453,1.375Z" transform="translate(-26.295 -50.064)" fill="#fff"/></g><g transform="translate(84.472 49.272)"><rect width="52.795" height="16.089" rx="1" transform="translate(0)" fill="#bababa"/><rect width="12.067" height="2.011" transform="translate(22.591 3.067) rotate(45)" fill="#fff"/><rect width="12.067" height="2.012" transform="translate(31.124 4.489) rotate(135)" fill="#fff"/></g></g><g transform="translate(52.271 103.606)"><rect width="143.803" height="72.4" rx="4" transform="translate(0 0)" fill="#fff"/><path d="M4.968,13.46V10.772H9.5V13.46ZM7.56,6.1A9.389,9.389,0,0,1,5.616,8.636,16.507,16.507,0,0,0,3.528,6.86c.264-.24.5-.5.732-.756Zm3.1,3.648H6.048a11.164,11.164,0,0,0,3.036-4.3l-.756-.408-.2.06H5.064c.228-.324.444-.648.636-.984l-1.26-.24A9.946,9.946,0,0,1,.432,7.736a3.4,3.4,0,0,1,.792.864A15.149,15.149,0,0,0,2.7,7.592,15.1,15.1,0,0,1,4.716,9.4,13.444,13.444,0,0,1,.408,11.6a4.535,4.535,0,0,1,.636,1,15.026,15.026,0,0,0,2.808-1.26v3.6H4.968v-.468H9.5v.492h1.152Zm3.756,1.788V10.52h2.376v1.02Zm2.376-2.856v.984H14.412V8.684Zm1.068-.948H13.368v7.152h1.044v-2.5h2.376v1.356c0,.156-.048.2-.216.216-.144.012-.672.012-1.2-.012a4.675,4.675,0,0,1,.372.96A4.057,4.057,0,0,0,17.4,14.72c.348-.156.456-.432.456-.948Zm3.66,5.9c0,.168-.06.216-.252.228s-.828.012-1.5-.012a3.89,3.89,0,0,1,.4,1.056,4.961,4.961,0,0,0,1.92-.2c.408-.168.54-.468.54-1.056V7.508h-1.1Zm-1.356-5.8H19.128v4.884H20.16Zm.564-2.088c.336-.456.672-.984,1-1.5l-1.212-.372a11.35,11.35,0,0,1-1.056,1.872H16l.612-.228A7.209,7.209,0,0,0,15.456,3.92l-1.044.36a7.983,7.983,0,0,1,1,1.476H12.66v1.02H23.352V5.756Z" transform="translate(26.146 4.022)" fill="#3f3f3f"/><rect width="12.067" height="12.067" rx="2" transform="translate(8.045 8.044)" fill="#fff"/><path d="M2,1A1,1,0,0,0,1,2v8.067a1,1,0,0,0,1,1h8.067a1,1,0,0,0,1-1V2a1,1,0,0,0-1-1H2M2,0h8.067a2,2,0,0,1,2,2v8.067a2,2,0,0,1-2,2H2a2,2,0,0,1-2-2V2A2,2,0,0,1,2,0Z" transform="translate(8.045 8.044)" fill="#c6c6c6"/><path d="M.44,12H5.19v-.98H3.32c-.36,0-.83.03-1.2.07,1.53-1.6,2.72-2.92,2.72-4.23A2.058,2.058,0,0,0,2.62,4.7,2.888,2.888,0,0,0,.38,5.8l.65.64a2,2,0,0,1,1.45-.82,1.165,1.165,0,0,1,1.25,1.3c0,1.12-1.24,2.4-3.29,4.41Zm8.11.13c1.47,0,2.38-1.33,2.38-3.74S10.02,4.7,8.55,4.7,6.17,5.98,6.17,8.39,7.09,12.13,8.55,12.13Zm0-.91c-.75,0-1.28-.77-1.28-2.83S7.8,5.61,8.55,5.61s1.28.72,1.28,2.78S9.3,11.22,8.55,11.22Zm3.29.78h4.75v-.98H14.72c-.36,0-.83.03-1.2.07,1.53-1.6,2.72-2.92,2.72-4.23A2.058,2.058,0,0,0,14.02,4.7a2.888,2.888,0,0,0-2.24,1.1l.65.64a2,2,0,0,1,1.45-.82,1.165,1.165,0,0,1,1.25,1.3c0,1.12-1.24,2.4-3.29,4.41Zm7.94.13a2.187,2.187,0,0,0,2.46-2.05,1.837,1.837,0,0,0-1.52-1.8V8.23a1.726,1.726,0,0,0,1.27-1.67c0-1.18-.93-1.86-2.25-1.86a3.067,3.067,0,0,0-2.11.9l.6.72a2.074,2.074,0,0,1,1.47-.7,1,1,0,0,1,1.13,1.03c0,.69-.48,1.22-1.93,1.22v.85c1.66,0,2.18.51,2.18,1.3,0,.72-.57,1.17-1.4,1.17a2.378,2.378,0,0,1-1.74-.81l-.56.74A3.055,3.055,0,0,0,19.78,12.13Zm3.14,1.67h.8L26.5,4.01h-.8ZM26.85,12h1.21l.64-1.17c.17-.33.34-.66.51-.97h.05c.2.31.39.65.57.97L30.55,12H31.8L30.03,9.26,31.68,6.5h-1.2L29.9,7.6c-.15.31-.31.62-.46.93H29.4c-.18-.31-.36-.62-.52-.93l-.66-1.1H26.98l1.65,2.63Zm5.26,0h1.21l.64-1.17c.17-.33.34-.66.51-.97h.05c.2.31.39.65.57.97L35.81,12h1.25L35.29,9.26,36.94,6.5h-1.2l-.58,1.1c-.15.31-.31.62-.46.93h-.04c-.18-.31-.36-.62-.52-.93l-.66-1.1H32.24l1.65,2.63Zm5.23,1.8h.8l2.78-9.79h-.8ZM41.27,12h1.21l.64-1.17c.17-.33.34-.66.51-.97h.05c.2.31.39.65.57.97L44.97,12h1.25L44.45,9.26,46.1,6.5H44.9l-.58,1.1c-.15.31-.31.62-.46.93h-.04c-.18-.31-.36-.62-.52-.93l-.66-1.1H41.4l1.65,2.63Zm5.26,0h1.21l.64-1.17c.17-.33.34-.66.51-.97h.05c.2.31.39.65.57.97L50.23,12h1.25L49.71,9.26,51.36,6.5h-1.2l-.58,1.1c-.15.31-.31.62-.46.93h-.04c-.18-.31-.36-.62-.52-.93L47.9,6.5H46.66l1.65,2.63Z" transform="translate(26.146 23.128)" fill="#3f3f3f"/><g transform="translate(26.146 49.272)"><rect width="52.795" height="16.089" rx="1" fill="#ef671f"/><path d="M51.37,62.788l-4.98-4.869,1.4-1.43,3.527,3.448L57.34,53.57l1.453,1.375Z" transform="translate(-26.295 -50.064)" fill="#fff"/></g><g transform="translate(84.472 49.272)"><rect width="52.795" height="16.089" rx="1" transform="translate(0)" fill="#bababa"/><rect width="12.067" height="2.011" transform="translate(22.591 3.067) rotate(45)" fill="#fff"/><rect width="12.067" height="2.012" transform="translate(31.124 4.489) rotate(135)" fill="#fff"/></g></g></g><path d="M90,1A89.661,89.661,0,0,0,72.06,2.808,88.5,88.5,0,0,0,40.239,16.2,89.26,89.26,0,0,0,7.993,55.356a88.545,88.545,0,0,0-5.185,16.7,89.876,89.876,0,0,0,0,35.874A88.5,88.5,0,0,0,16.2,139.756,89.26,89.26,0,0,0,55.356,172a88.545,88.545,0,0,0,16.7,5.185,89.876,89.876,0,0,0,35.874,0A88.5,88.5,0,0,0,139.756,163.8,89.26,89.26,0,0,0,172,124.639a88.545,88.545,0,0,0,5.185-16.7,89.876,89.876,0,0,0,0-35.874A88.5,88.5,0,0,0,163.8,40.239,89.26,89.26,0,0,0,124.639,7.993a88.545,88.545,0,0,0-16.7-5.185A89.661,89.661,0,0,0,90,1m0-1A90,90,0,1,1,0,90,90,90,0,0,1,90,0Z" transform="translate(-0.42)" fill="#ef671f"/></g></svg>