<svg xmlns="http://www.w3.org/2000/svg" xmlns:xlink="http://www.w3.org/1999/xlink" width="276" height="160" viewBox="0 0 276 160"><defs><clipPath id="a"><rect width="276" height="160" rx="4" transform="translate(-7.024 138)" fill="#fff"/></clipPath><clipPath id="b"><rect width="117.388" height="109.388" transform="translate(0 -4)" fill="#e3e3e3"/></clipPath><clipPath id="c"><rect width="102" height="115" transform="translate(14 11)" fill="#e3e3e3"/></clipPath></defs><g transform="translate(7.024 -138)" clip-path="url(#a)"><rect width="150" height="15" transform="translate(54.976 230)" fill="#fff"/><path d="M2,2V13H148V2H2M0,0H150V15H0Z" transform="translate(54.976 230)" fill="#ef671f"/><g transform="translate(-370 -12)"><g transform="translate(350.387 182.815)"><g transform="translate(28.042 8.381)"><path d="M49,0A49,49,0,1,1,0,49,49,49,0,0,1,49,0Z" transform="translate(0 11.803)" fill="#fff3ed"/><g transform="translate(-12.84 -1.887)" clip-path="url(#b)"><path d="M8.336,36.487a2.289,2.289,0,0,1-1.649-.664A2.124,2.124,0,0,1,6,34.242a2.346,2.346,0,0,1,2.336-2.336,2.124,2.124,0,0,1,1.58.687,2.289,2.289,0,0,1,.664,1.649,2.268,2.268,0,0,1-2.245,2.245Zm6.826-.916V32.822H38.984V35.57ZM8.336,25.034a2.289,2.289,0,0,1-1.649-.664,2.268,2.268,0,0,1,0-3.253,2.289,2.289,0,0,1,1.649-.664,2.124,2.124,0,0,1,1.58.687,2.267,2.267,0,0,1,0,3.207,2.124,2.124,0,0,1-1.58.687Zm6.826-.916V21.369H38.984v2.749ZM8.291,13.581A2.268,2.268,0,0,1,6,11.291,2.268,2.268,0,0,1,8.291,9a2.268,2.268,0,0,1,2.291,2.291,2.268,2.268,0,0,1-2.291,2.291Zm6.872-.916V9.916H38.984v2.749Z" transform="translate(17.388 4.308)" fill="#ef671f"/><path d="M16.789,37.219l-.83-5.232A11.126,11.126,0,0,1,14.3,31.2a11.412,11.412,0,0,1-1.536-1.038L7.862,32.4,4,25.592l4.485-3.28a4.937,4.937,0,0,1-.1-.851q-.021-.478-.021-.851t.021-.851a4.937,4.937,0,0,1,.1-.851L4,15.627l3.862-6.81,4.9,2.242A11.412,11.412,0,0,1,14.3,10.021a8.593,8.593,0,0,1,1.661-.747L16.789,4h7.64l.83,5.232A13.462,13.462,0,0,1,26.942,10a7.147,7.147,0,0,1,1.516,1.059l4.9-2.242,3.862,6.81-4.485,3.2a5.851,5.851,0,0,1,.1.893q.021.478.021.893t-.021.872a5.782,5.782,0,0,1-.1.872l4.485,3.239L33.357,32.4l-4.9-2.242a13.775,13.775,0,0,1-1.516,1.059,7.236,7.236,0,0,1-1.682.768l-.83,5.232Zm3.82-11.211a5.387,5.387,0,0,0,5.4-5.4,5.387,5.387,0,0,0-5.4-5.4,5.387,5.387,0,0,0-5.4,5.4,5.387,5.387,0,0,0,5.4,5.4Z" transform="translate(64.771 35.074)" fill="#ef671f"/><path d="M12.063,24.942l-.524-3.3a7.014,7.014,0,0,1-1.047-.5,7.2,7.2,0,0,1-.969-.654L6.435,21.906,4,17.613l2.827-2.068a3.112,3.112,0,0,1-.065-.537q-.013-.3-.013-.537t.013-.537a3.112,3.112,0,0,1,.065-.537L4,11.33,6.435,7.037,9.524,8.45a7.2,7.2,0,0,1,.969-.654,5.417,5.417,0,0,1,1.047-.471L12.063,4H16.88L17.4,7.3a8.487,8.487,0,0,1,1.06.484,4.506,4.506,0,0,1,.955.668l3.089-1.414,2.435,4.293-2.827,2.016a3.689,3.689,0,0,1,.065.563q.013.3.013.563t-.013.55a3.645,3.645,0,0,1-.065.55l2.827,2.042-2.435,4.293-3.089-1.414a8.684,8.684,0,0,1-.955.668,4.562,4.562,0,0,1-1.06.484l-.524,3.3Zm2.408-7.068a3.4,3.4,0,0,0,3.4-3.4,3.4,3.4,0,0,0-3.4-3.4,3.4,3.4,0,0,0-3.4,3.4,3.4,3.4,0,0,0,3.4,3.4Z" transform="translate(58.93 64.237) rotate(31)" fill="#ef671f"/><path d="M8.291,13.581A2.268,2.268,0,0,1,6,11.291,2.268,2.268,0,0,1,8.291,9a2.268,2.268,0,0,1,2.291,2.291,2.268,2.268,0,0,1-2.291,2.291Zm6.872-.916V9.916H38.984v2.749Z" transform="translate(17.388 38.308)" fill="#ef671f"/></g><g transform="translate(-10.561 -31.443)"><g transform="translate(0.043)"><path d="M60.024,82.893a1.554,1.554,0,0,1-1.193-2.871L69.259,75.7a3.109,3.109,0,0,1-1.688,4.064l-7.548,3.129Z" transform="translate(-51.653 -67.563)" fill="#ef671f"/><path d="M19.337,4.064A3.112,3.112,0,0,0,21.025,0L4.844,6.7A7.782,7.782,0,1,0,14,18.62a1.557,1.557,0,0,0-2.473-1.892,4.67,4.67,0,0,1-7.408-5.687A4.607,4.607,0,0,1,6.038,9.568l13.3-5.5Z" transform="translate(-0.043)" fill="#ef671f"/></g><g transform="translate(23.21 5.868)"><path d="M577.6,54.711a.8.8,0,0,0-.57.29l-1.516,2.086c-.118.161-.054.29.151.29h5.87a.8.8,0,0,0,.57-.29l1.527-2.1c.118-.161.054-.29-.151-.29H577.6Zm21.729,0a.8.8,0,0,0-.57.29l-9.924,13.655c-.118.161-.054.29.151.29h2.591a.8.8,0,0,0,.57-.29L602.067,55c.118-.161.054-.29-.151-.29Zm21.568,0a.8.8,0,0,0-.57.29L610.4,68.656c-.118.161-.054.29.151.29h2.591a.8.8,0,0,0,.57-.29L623.635,55c.118-.161.054-.29-.151-.29ZM605.82,68.58a.358.358,0,0,1-.355.355h-2.183a.358.358,0,0,1-.355-.355V60.42a.358.358,0,0,1,.355-.355h2.183a.358.358,0,0,1,.355.355V68.58ZM608.045,57.9a.358.358,0,0,1-.355.355h-1.516a.358.358,0,0,1-.355-.355V55.066a.358.358,0,0,1,.355-.355h1.516a.358.358,0,0,1,.355.355Zm3.559,0a.358.358,0,0,1-.355.355h-1.505a.358.358,0,0,1-.355-.355V55.066a.358.358,0,0,1,.355-.355h1.505a.358.358,0,0,1,.355.355V57.9Z" transform="translate(-536.767 -54.689)" fill="#3f3f3f"/><path d="M300.009,68.491a.358.358,0,0,1-.355.355h-2.183a.358.358,0,0,1-.355-.355V62.1a.358.358,0,0,1,.355-.355h2.183a.358.358,0,0,1,.355.355v6.386Zm-41.91.355h-5.913c-.194,0-.258-.129-.151-.29l1.516-2.1a.78.78,0,0,1,.57-.29H258.1a4.429,4.429,0,0,0,3.6-1.839l2.978-4.107a.78.78,0,0,1,.57-.29h2.58c.194,0,.258.129.151.29L263.862,65.9a7.1,7.1,0,0,1-5.763,2.946Zm-31.653-8.182a.469.469,0,0,0-.032.548l5.333,7.343c.118.161.054.29-.151.29h-2.849a.8.8,0,0,1-.57-.29l-3.946-5.44-4.924,5.462a.942.942,0,0,1-.591.269h-2.881c-.194,0-.247-.118-.118-.269l10.171-11.3h-8.419c-.194,0-.258-.129-.151-.29l1.516-2.1a.78.78,0,0,1,.57-.29h10.967a.661.661,0,0,1,.452.172.676.676,0,0,1,.054.946l-4.43,4.946Zm15.848,7.892a.78.78,0,0,1-.57.29h-2.591c-.194,0-.258-.129-.151-.29l3.989-5.494h-3.494c-.194,0-.258-.129-.151-.29l1.516-2.1a.78.78,0,0,1,.57-.29h3.139a.8.8,0,0,0,.57-.29l2.064-2.806h-6.1a.758.758,0,0,0-.559.29l-4.107,5.645a.777.777,0,0,1-.559.29h-2.591c-.194,0-.258-.129-.151-.29l6.042-8.322a.78.78,0,0,1,.57-.29h11.386a.644.644,0,0,1,.387.129.67.67,0,0,1,.151.935l-9.365,12.88Z" transform="translate(-215.646 -54.6)" fill="#3f3f3f"/></g></g></g></g><g transform="translate(503.387 194.815)"><g transform="translate(28.042 8.381)"><circle cx="49" cy="49" r="49" transform="translate(0)" fill="#fff3ed"/><g transform="translate(-15.703 -30.75)" clip-path="url(#c)"><rect width="83" height="55" transform="translate(28.251 28.553)" fill="#fff"/><path d="M31.924,85.153v-6.6h9.454V67.564H10.6a6.328,6.328,0,0,1-4.617-1.979A6.328,6.328,0,0,1,4,60.968V12.6A6.328,6.328,0,0,1,5.979,7.979,6.328,6.328,0,0,1,10.6,6H85.352a6.328,6.328,0,0,1,4.617,1.979A6.328,6.328,0,0,1,91.948,12.6V60.968a6.763,6.763,0,0,1-6.6,6.6H54.57V78.557h9.454v6.6ZM10.6,60.968H85.352V12.6H10.6Zm0,0v0Z" transform="translate(18.839 18.306)" fill="#ef671f"/></g><text transform="translate(48.547 -26.197)" fill="#3f3f3f" font-size="14" font-family="NotoSansJP-Medium, Noto Sans JP" font-weight="500"><tspan x="-35" y="0">採用</tspan><tspan y="0">サイト</tspan></text></g></g></g></g></svg>