<svg xmlns="http://www.w3.org/2000/svg" xmlns:xlink="http://www.w3.org/1999/xlink" width="179.994" height="179.994" viewBox="0 0 179.994 179.994"><defs><clipPath id="a"><circle cx="89.997" cy="89.997" r="89.997" transform="translate(-0.42)" fill="#fff" stroke="#707070" stroke-width="1"/></clipPath></defs><g transform="translate(0.42)" clip-path="url(#a)"><circle cx="89.997" cy="89.997" r="89.997" transform="translate(-0.42)" fill="#fff"/><path d="M90,1A89.661,89.661,0,0,0,72.06,2.808,88.5,88.5,0,0,0,40.239,16.2,89.26,89.26,0,0,0,7.993,55.356a88.545,88.545,0,0,0-5.185,16.7,89.876,89.876,0,0,0,0,35.874A88.5,88.5,0,0,0,16.2,139.756,89.26,89.26,0,0,0,55.356,172a88.545,88.545,0,0,0,16.7,5.185,89.876,89.876,0,0,0,35.874,0A88.5,88.5,0,0,0,139.756,163.8,89.26,89.26,0,0,0,172,124.639a88.545,88.545,0,0,0,5.185-16.7,89.876,89.876,0,0,0,0-35.874A88.5,88.5,0,0,0,163.8,40.239,89.26,89.26,0,0,0,124.639,7.993a88.545,88.545,0,0,0-16.7-5.185A89.661,89.661,0,0,0,90,1m0-1A90,90,0,1,1,0,90,90,90,0,0,1,90,0Z" transform="translate(-0.42)" fill="#707070"/><g transform="translate(-28.556 -9.083)"><rect width="261.538" height="217.87" rx="4" fill="#fff3ed"/><path d="M4,1A3,3,0,0,0,1,4V213.87a3,3,0,0,0,3,3H257.538a3,3,0,0,0,3-3V4a3,3,0,0,0-3-3H4M4,0H257.538a4,4,0,0,1,4,4V213.87a4,4,0,0,1-4,4H4a4,4,0,0,1-4-4V4A4,4,0,0,1,4,0Z" fill="#707070"/><g transform="translate(52.271 23.161)"><rect width="143.803" height="72.4" rx="4" transform="translate(0 0)" fill="#fff"/><text transform="translate(26.146 4.022)" fill="#3f3f3f" font-size="12" font-family="NotoSansJP-Medium, Noto Sans JP" font-weight="500"><tspan x="0" y="14">名前</tspan></text><rect width="12.067" height="12.067" rx="2" transform="translate(8.045 8.044)" fill="#fff"/><path d="M2,1A1,1,0,0,0,1,2v8.067a1,1,0,0,0,1,1h8.067a1,1,0,0,0,1-1V2a1,1,0,0,0-1-1H2M2,0h8.067a2,2,0,0,1,2,2v8.067a2,2,0,0,1-2,2H2a2,2,0,0,1-2-2V2A2,2,0,0,1,2,0Z" transform="translate(8.045 8.044)" fill="#c6c6c6"/><text transform="translate(26.146 23.128)" fill="#3f3f3f" font-size="10" font-family="NotoSansJP-Medium, Noto Sans JP" font-weight="500"><tspan x="0" y="12">2023/xx/xx </tspan></text><g transform="translate(26.146 49.272)"><rect width="52.795" height="16.089" rx="1" fill="#ef671f"/><path d="M51.37,62.788l-4.98-4.869,1.4-1.43,3.527,3.448L57.34,53.57l1.453,1.375Z" transform="translate(-26.295 -50.064)" fill="#fff"/></g><g transform="translate(84.472 49.272)"><rect width="52.795" height="16.089" rx="1" transform="translate(0)" fill="#bababa"/><rect width="12.067" height="2.011" transform="translate(22.591 3.067) rotate(45)" fill="#fff"/><rect width="12.067" height="2.012" transform="translate(31.124 4.489) rotate(135)" fill="#fff"/></g></g><g transform="translate(52.271 103.606)"><rect width="143.803" height="72.4" rx="4" transform="translate(0 0)" fill="#fff"/><text transform="translate(26.146 4.022)" fill="#3f3f3f" font-size="12" font-family="NotoSansJP-Medium, Noto Sans JP" font-weight="500"><tspan x="0" y="14">名前</tspan></text><rect width="12.067" height="12.067" rx="2" transform="translate(8.045 8.044)" fill="#fff"/><path d="M2,1A1,1,0,0,0,1,2v8.067a1,1,0,0,0,1,1h8.067a1,1,0,0,0,1-1V2a1,1,0,0,0-1-1H2M2,0h8.067a2,2,0,0,1,2,2v8.067a2,2,0,0,1-2,2H2a2,2,0,0,1-2-2V2A2,2,0,0,1,2,0Z" transform="translate(8.045 8.044)" fill="#c6c6c6"/><text transform="translate(26.146 23.128)" fill="#3f3f3f" font-size="10" font-family="NotoSansJP-Medium, Noto Sans JP" font-weight="500"><tspan x="0" y="12">2023/xx/xx </tspan></text><g transform="translate(26.146 49.272)"><rect width="52.795" height="16.089" rx="1" fill="#ef671f"/><path d="M51.37,62.788l-4.98-4.869,1.4-1.43,3.527,3.448L57.34,53.57l1.453,1.375Z" transform="translate(-26.295 -50.064)" fill="#fff"/></g><g transform="translate(84.472 49.272)"><rect width="52.795" height="16.089" rx="1" transform="translate(0)" fill="#bababa"/><rect width="12.067" height="2.011" transform="translate(22.591 3.067) rotate(45)" fill="#fff"/><rect width="12.067" height="2.012" transform="translate(31.124 4.489) rotate(135)" fill="#fff"/></g></g></g><path d="M90,1A89.661,89.661,0,0,0,72.06,2.808,88.5,88.5,0,0,0,40.239,16.2,89.26,89.26,0,0,0,7.993,55.356a88.545,88.545,0,0,0-5.185,16.7,89.876,89.876,0,0,0,0,35.874A88.5,88.5,0,0,0,16.2,139.756,89.26,89.26,0,0,0,55.356,172a88.545,88.545,0,0,0,16.7,5.185,89.876,89.876,0,0,0,35.874,0A88.5,88.5,0,0,0,139.756,163.8,89.26,89.26,0,0,0,172,124.639a88.545,88.545,0,0,0,5.185-16.7,89.876,89.876,0,0,0,0-35.874A88.5,88.5,0,0,0,163.8,40.239,89.26,89.26,0,0,0,124.639,7.993a88.545,88.545,0,0,0-16.7-5.185A89.661,89.661,0,0,0,90,1m0-1A90,90,0,1,1,0,90,90,90,0,0,1,90,0Z" transform="translate(-0.42)" fill="#ef671f"/></g></svg>