<svg xmlns="http://www.w3.org/2000/svg" width="240.863" height="245.881" viewBox="0 0 240.863 245.881"><path d="M82.315,157.346a17.645,17.645,0,0,1-13.547-32.585L187.15,75.7a35.286,35.286,0,0,1-19.161,46.132L82.315,157.346Z" transform="translate(12.704 16.669)" fill="#fcd39d"/><path d="M219.057,46.126A35.322,35.322,0,0,0,238.218,0L54.544,76.023A88.311,88.311,0,0,0,34.651,227.7c38.565,29.653,93.973,22.209,123.873-16.352a17.672,17.672,0,0,0-28.07-21.477,53,53,0,0,1-84.087-64.552A52.292,52.292,0,0,1,68.09,108.6L219.057,46.126Z" transform="translate(-0.043)" fill="#fcd39d"/></svg>