<svg xmlns="http://www.w3.org/2000/svg" xmlns:xlink="http://www.w3.org/1999/xlink" width="295" height="244" viewBox="0 0 295 244"><defs><clipPath id="a"><rect width="295" height="244" transform="translate(616 6129)" fill="#fff" stroke="#707070" stroke-width="1"/></clipPath></defs><g transform="translate(-616 -6129)" clip-path="url(#a)"><g transform="translate(623.875 6154.392)"><path d="M222.808,216.116l7.9-1.636-.324,6.112,4.344.224.737-13.878-7.154-.369-.216,4.074-8.428-.435-.267,4.966Z" transform="translate(-86.324 -86.494)" fill="#bdbebf"/><path d="M290.847,215.924l-.47,8.827,13.71.708.678-12.733-10.389-.536Z" transform="translate(-113.891 -88.677)" fill="#bdbebf"/><path d="M272.513,204.3l-.333,6.237-.118,2.251-10.09,9.864-.407,7.638,4.087.211,8.718-9.764,4.854.25.47-8.827,3.529-3.734.191-3.564Z" transform="translate(-102.701 -85.614)" fill="#bdbebf"/><path d="M294.449,191.721l-14.884-.768-.316,5.941,10.9.562-.187,3.564,10.389.536.4-7.47,6.081-5.132.53-10.024Z" transform="translate(-109.569 -75.759)" fill="#bdbebf"/><path d="M173.6,203.446l-.312,5.855L171.1,211.87l-.16,3.054,16.606.857.615-11.584Z" transform="translate(-67.504 -85.281)" fill="#bdbebf"/><path d="M363.381,129.1l1.051-19.693-11.924-.615-.289,5.436,7.495.383-.125,2.377-10.731-.554.262-4.923-5.619-.29-.262,4.923-4.43-.229-.635,11.884,12.946.668Z" transform="translate(-132.455 -48.519)" fill="#bdbebf"/><path d="M337.609,136.1l12.946.668-1.212,22.748-12.946-.668Z" transform="translate(-131.765 -59.126)" fill="#bdbebf"/><path d="M232.326,217.06l-7.9,1.636-1.064,19.989,7.062-7.551,1.15.06.427-8.021Z" transform="translate(-87.863 -90.568)" fill="#bdbebf"/><path d="M336.105,187.155l8.633-16.749-12.945-.669-.169-.009-6.85,6.788-.534,10.024Z" transform="translate(-127.044 -72.185)" fill="#bdbebf"/><path d="M313.469,213.066l13.115.676-.678,12.732-13.115-.676Z" transform="translate(-122.597 -89.017)" fill="#bdbebf"/><path d="M209.306,247.012l-.222,4.174-2.928,2.019-.16,3.054,1.633,1.807,1.493-.369,7.391-6.51.36-6.748-4.344-.224Z" transform="translate(-81.118 -101.115)" fill="#bdbebf"/><path d="M290.207,231.237l13.711.708-.389,7.3-13.71-.708Z" transform="translate(-113.675 -96.075)" fill="#bdbebf"/><path d="M248.284,213.007l-.067,1.274-2.893,2.6-3.512-.184-.3,5.667-4.344-.224-.427,8.024,1.916.1,4.215.217,2.676,2.692,6.387.329.406-7.639,10.088-9.865.118-2.251Z" transform="translate(-93.058 -88.994)" fill="#bdbebf"/><path d="M262.667,196.785l-7.1,9.548-.12,2.292,14.264.736.648-12.179Z" transform="translate(-100.325 -82.694)" fill="#bdbebf"/><path d="M289.679,242.143l-.307,5.772,11.25.58,2.627-3.015.138-2.63Z" transform="translate(-113.501 -100.311)" fill="#bdbebf"/><path d="M288.9,256.612l8.94.461.174-3.311,2.457-2.6-11.25-.58Z" transform="translate(-113.318 -103.59)" fill="#bdbebf"/><path d="M279.523,230.077l-4.36,4.882-.424,7.979,8.942.459.308-5.771.388-7.3Z" transform="translate(-107.817 -95.624)" fill="#bdbebf"/><path d="M206.483,244.164l3.089-2.678.535-10.054-5.208-5.624-.657,12.341-4.925,6.512,6.226.322Z" transform="translate(-78.524 -93.966)" fill="#bdbebf"/><path d="M142.383,247.457l-7.558,10.436-.234,4.4,6,.31,4-5.665,8.769.453,1.662,3.66,3.381-2.569-5.717-10.49Z" transform="translate(-53.384 -102.374)" fill="#bdbebf"/><path d="M176.915,244.647l-10.476-.541-.127,2.42-2.257-.119-.228,4.29,15.03.776.024-.468Z" transform="translate(-64.74 -101.073)" fill="#bdbebf"/><path d="M90.59,239.571l-2.81-.147-2.828-2.21s.1-1.172.173-2.257l-2.1-.11-1.405-.073L81.186,243l3.117,3.226.154-2.943,1.787.094,4.282-2.654Z" transform="translate(-32.642 -97.448)" fill="#ffd8c3"/><path d="M85.379,259.869l-5.262,5.249,4.373.225,1.482,5.284,9.254-9.674-2.8-5.2-6.811-.352Z" transform="translate(-32.227 -105.458)" fill="#ffd8c3"/><path d="M101.922,238l.328-6.146-6.3-.325L93.288,234l-5.77-.3c-.07,1.081-.173,2.254-.173,2.254l2.827,2.215,2.81.147-.06,1.148-4.282,2.654-.213,4.015,6.811.352.369-4.583Z" transform="translate(-35.034 -96.188)" fill="#ffd8c3"/><path d="M82.786,276.8,81.3,271.517l-4.374-.225-4.384,4.374-.631,11.852,3.15.165.269-5.046,1.532.081-.513,9.629,2.554.134,6.431-6.577Z" transform="translate(-29.041 -111.632)" fill="#ffd8c3"/><path d="M112.406,243.583l-5.536-.286.064-1.194L100.62,246l-.371,4.582,2.8,5.2,10.734.554.678-11.2Z" transform="translate(-40.046 -100.295)" fill="#ffd8c3"/><path d="M89.69,274.156l2.552,9.1,17.41-17.8.025-.421-10.734-.554Z" transform="translate(-35.945 -108.986)" fill="#ffd8c3"/><path d="M2.957,291.981l-.279,2.86,2,.909,13.1-10.365.12-2.293-2.772-.834Z" transform="translate(-2.15 -115.891)" fill="#ffd8c3"/><path d="M265.728,246.058l.38-7.187-4.333,4.377-10.286,10.394,13.925.661,1.958-3.986.053-.108,1.788.094-.421,7.914,2.81.147,2.531-1.827.244-4.588.289-5.427Z" transform="translate(-98.787 -99.04)" fill="#ffd8c3"/><path d="M410.716,50.227l.276-4.557,4.514-2.213.3-5.544-4.47,2.194,0-.044-6.916-.357L386.488,11.065l-15.965-.824-.947,17.79-5.516,4.993-.446,8.372-14.945-.771-.339,6.365L340.6,52.742l-.9,16.974,10.218.527.238-4.472,4.98.256.284-5.275-4.98-.257.323-6.079,6.557.338-.289,5.429,6.844-5.092,1.454.076,11.745,14.981L390.34,56.459l19.931,1.028,6.766-3.565.176-3.359Z" transform="translate(-133.045 -10.24)" fill="#ffd8c3"/><path d="M349.91,70.743h-.026l-10.218-.527a.5.5,0,0,1-.474-.526l.9-16.974a.5.5,0,0,1,.2-.375l7.546-5.613.326-6.131a.5.5,0,0,1,.525-.473l14.446.745L363.56,33a.5.5,0,0,1,.164-.344l5.363-4.854.936-17.584a.5.5,0,0,1,.525-.473l15.965.824a.5.5,0,0,1,.4.234L404.7,39.22l6.606.341,4.272-2.1a.5.5,0,0,1,.72.475l-.3,5.544a.5.5,0,0,1-.279.422l-4.252,2.085-.228,3.763,5.994.31a.5.5,0,0,1,.474.526l-.176,3.359a.5.5,0,0,1-.266.416L410.5,57.929a.5.5,0,0,1-.259.057l-19.7-1.016L377.427,70.5a.5.5,0,0,1-.752-.04l-11.6-14.8-1.047-.055-6.7,4.984a.5.5,0,0,1-.8-.428l.262-4.929-5.558-.287-.27,5.08,4.48.231a.5.5,0,0,1,.474.526l-.284,5.275a.5.5,0,0,1-.525.472l-4.482-.231-.211,3.974A.5.5,0,0,1,349.91,70.743Zm-9.693-1.5,9.219.475.211-3.974a.5.5,0,0,1,.525-.473l4.482.231.23-4.277L350.407,61a.5.5,0,0,1-.474-.526l.323-6.079a.5.5,0,0,1,.525-.473l6.557.338a.5.5,0,0,1,.474.526l-.232,4.366,5.99-4.456a.5.5,0,0,1,.325-.1l1.454.076a.5.5,0,0,1,.367.191l11.392,14.53,12.873-13.279a.5.5,0,0,1,.385-.151l19.794,1.021,6.393-3.369.135-2.576-6-.31a.5.5,0,0,1-.473-.53l.276-4.557a.5.5,0,0,1,.279-.419l4.25-2.084.234-4.4-3.705,1.819a.5.5,0,0,1-.449,0l-6.712-.346a.5.5,0,0,1-.4-.234L386.2,11.551,371,10.766l-.921,17.292a.5.5,0,0,1-.164.344l-5.363,4.854-.435,8.166a.5.5,0,0,1-.525.473l-14.446-.745-.312,5.867a.5.5,0,0,1-.2.375L341.083,53Z" transform="translate(-133.045 -10.24)" fill="#fff"/><path d="M221.94,215.861l7.887-1.434-.289,5.506,4.343.224.664-12.5-7.154-.369-.2,3.669-8.429-.435-.239,4.472Z" transform="translate(-85.985 -86.773)" fill="#ffa780"/><path d="M233.882,220.657h-.026l-4.343-.224a.5.5,0,0,1-.474-.525l.256-4.875-7.265,1.321a.5.5,0,0,1-.238-.014l-3.386-.86a.5.5,0,0,1-.376-.511l.239-4.472a.5.5,0,0,1,.525-.473l7.931.409.169-3.171a.5.5,0,0,1,.525-.473l7.154.369a.5.5,0,0,1,.474.526l-.664,12.5A.5.5,0,0,1,233.882,220.657Zm-3.818-1.2,3.345.172.611-11.5-6.155-.317-.169,3.171a.5.5,0,0,1-.525.473l-7.931-.409-.191,3.564,2.909.739,7.779-1.414a.5.5,0,0,1,.589.518Z" transform="translate(-85.985 -86.773)" fill="#fff"/><path d="M289.967,216.131l-.424,7.953,13.71.707.611-11.471-10.389-.536Z" transform="translate(-113.567 -88.908)" fill="#ef671f"/><path d="M293.474,212.284h.026l10.389.536a.5.5,0,0,1,.474.526l-.611,11.471a.5.5,0,0,1-.525.473l-13.71-.707a.5.5,0,0,1-.474-.526l.424-7.953a.5.5,0,0,1,.154-.335l3.508-3.347A.5.5,0,0,1,293.474,212.284Zm9.863,1.509-9.674-.5-3.208,3.061-.387,7.254,12.711.655Z" transform="translate(-113.567 -88.908)" fill="#fff"/><path d="M271.565,206.615l-.3,5.619-.106,2.027L261.125,223.1l-.366,6.881,4.086.211,8.666-8.753,4.854.25.423-7.951,3.508-3.347.169-3.211Z" transform="translate(-102.388 -86.512)" fill="#ffa780"/><path d="M271.565,206.115h.026l10.9.562a.5.5,0,0,1,.474.526l-.169,3.211a.5.5,0,0,1-.154.335l-3.364,3.21-.413,7.753a.5.5,0,0,1-.525.473l-4.63-.239L265.2,230.54a.5.5,0,0,1-.381.148l-4.086-.211a.5.5,0,0,1-.474-.526l.366-6.881a.5.5,0,0,1,.169-.349l9.877-8.7.1-1.817.3-5.619A.5.5,0,0,1,271.565,206.115Zm10.374,1.536-9.9-.511-.379,7.147a.5.5,0,0,1-.169.349l-9.877,8.7-.329,6.171,3.362.174,8.508-8.594a.5.5,0,0,1,.381-.148l4.355.224.4-7.452a.5.5,0,0,1,.154-.335l3.364-3.21Z" transform="translate(-102.388 -86.512)" fill="#fff"/><path d="M293.6,191.85l-14.883-.768-.286,5.352,10.9.562-.168,3.21,10.389.536.356-6.729,6.051-4.591.481-9.03Z" transform="translate(-109.251 -76.327)" fill="#ffa780"/><path d="M299.549,201.242h-.026l-10.389-.536a.5.5,0,0,1-.474-.525l.142-2.711-10.4-.536a.5.5,0,0,1-.474-.526l.286-5.352a.5.5,0,0,1,.525-.473l14.678.757L306.1,180.019a.5.5,0,0,1,.832.4l-.481,9.03a.5.5,0,0,1-.2.372l-5.866,4.451-.344,6.5A.5.5,0,0,1,299.549,201.242Zm-9.864-1.509,9.39.484.33-6.231a.5.5,0,0,1,.2-.372l5.867-4.451.4-7.6L293.93,192.223a.5.5,0,0,1-.359.126l-14.384-.742-.232,4.353,10.4.536a.5.5,0,0,1,.474.525Z" transform="translate(-109.251 -76.327)" fill="#fff"/><path d="M135.662,217.732l4.416-3.566,4.087.212,4.685-3.784,6.766.347,2.172-2.3.283-5.274-15.966-.824L133,209.313l-.132-.007-.44,8.258Z" transform="translate(-52.543 -84.928)" fill="#ffd8c3"/><path d="M135.662,218.232h-.026l-3.237-.167a.5.5,0,0,1-.474-.526l.44-8.258a.5.5,0,0,1,.474-.473l8.967-6.669a.5.5,0,0,1,.324-.1l15.966.824a.5.5,0,0,1,.474.526l-.283,5.274a.5.5,0,0,1-.135.316l-2.172,2.3a.5.5,0,0,1-.389.156l-6.575-.337-4.536,3.664a.5.5,0,0,1-.34.11l-3.9-.2-4.268,3.445A.5.5,0,0,1,135.662,218.232Zm-2.711-1.141,2.546.131,4.268-3.445a.5.5,0,0,1,.34-.11l3.9.2,4.536-3.664a.5.5,0,0,1,.34-.11l6.535.335,1.888-2,.246-4.591-15.286-.789-8.914,6.629Z" transform="translate(-52.543 -84.928)" fill="#fff"/><path d="M212.685,224.054l-.482,9.057.133-.1,4.342.224.959-18.006-3.412-.867.238-4.472.207-3.9-6.514-.336-.708,13.312Z" transform="translate(-81.682 -86.137)" fill="#f7982e"/><path d="M216.679,233.731h-.026l-4.156-.215a.5.5,0,0,1-.793-.431l.47-8.83-5.073-4.933a.5.5,0,0,1-.151-.385l.708-13.312a.5.5,0,0,1,.525-.473l6.514.336a.5.5,0,0,1,.474.526l-.423,7.961,3.014.766a.5.5,0,0,1,.376.511l-.959,18.006A.5.5,0,0,1,216.679,233.731Zm-3.944-1.2,3.471.179.911-17.1-3.014-.766a.5.5,0,0,1-.376-.511l.419-7.871-5.515-.284-.67,12.587,5.073,4.933a.5.5,0,0,1,.151.385Z" transform="translate(-81.682 -86.137)" fill="#fff"/><path d="M172.708,203.883l-.281,5.274-2.174,2.3-.144,2.753,16.6.857.557-10.435Z" transform="translate(-67.179 -85.45)" fill="#ffd8c3"/><path d="M172.707,203.383h.026l14.562.751a.5.5,0,0,1,.474.526l-.557,10.435a.5.5,0,0,1-.525.473l-16.6-.857a.5.5,0,0,1-.474-.525l.144-2.753a.5.5,0,0,1,.136-.317l2.048-2.168.271-5.091A.5.5,0,0,1,172.707,203.383Zm14.036,1.725-13.563-.7-.254,4.776a.5.5,0,0,1-.136.317l-2.048,2.168-.108,2.07,15.606.805Z" transform="translate(-67.179 -85.45)" fill="#fff"/><path d="M362.625,127.431l.944-17.739-11.921-.615-.261,4.894,7.495.387-.112,2.141-10.73-.554.236-4.435-5.619-.289-.236,4.434-4.429-.228-.572,10.7,12.944.668Z" transform="translate(-132.163 -48.628)" fill="#ffd8c3"/><path d="M362.626,127.931H362.6l-25.205-1.3a.5.5,0,0,1-.474-.526l.572-10.7a.5.5,0,0,1,.525-.473l3.93.2.21-3.936a.5.5,0,0,1,.525-.473l5.619.289a.5.5,0,0,1,.474.526l-.209,3.935,9.731.5.06-1.143-6.995-.361a.5.5,0,0,1-.474-.526l.261-4.894a.5.5,0,0,1,.525-.473l11.921.615a.5.5,0,0,1,.474.526l-.944,17.739A.5.5,0,0,1,362.626,127.931Zm-24.68-2.274,24.207,1.249.891-16.74-10.923-.564-.208,3.9,6.994.361a.5.5,0,0,1,.474.525l-.112,2.141a.5.5,0,0,1-.525.473l-10.73-.554a.5.5,0,0,1-.474-.526l.209-3.935-4.621-.238-.21,3.936a.5.5,0,0,1-.525.473l-3.93-.2Z" transform="translate(-132.163 -48.628)" fill="#fff"/><path d="M336.729,136.956l12.944.668-1.09,20.491-12.945-.668Z" transform="translate(-131.471 -59.456)" fill="#ffd8c3"/><path d="M336.256,136.431l13.943.719-1.144,21.489-13.943-.72Zm12.891,1.666-11.945-.616-1.038,19.491,11.946.617Z" transform="translate(-131.471 -59.456)" fill="#fff"/><path d="M231.389,218.958l-7.889,1.434-.959,18.007,7.02-6.769,1.15.061.385-7.225Z" transform="translate(-87.544 -91.306)" fill="#f7982e"/><path d="M231.389,218.458a.5.5,0,0,1,.5.527l-.678,12.732a.5.5,0,0,1-.526.473l-.933-.049-6.864,6.618a.5.5,0,0,1-.846-.387L223,220.366a.5.5,0,0,1,.41-.465l7.889-1.434A.5.5,0,0,1,231.389,218.458Zm-1.15,12.707.618-11.6-6.878,1.25-.87,16.344,6.106-5.888a.5.5,0,0,1,.373-.139Z" transform="translate(-87.544 -91.306)" fill="#fff"/><path d="M128.073,221.7l-3.237-.169.442-8.256-10.048-.519-1.947,2.891-.391,7.339,1.617,3.3,5.619.289,3.369,4.084,4.087.212,2.318-2.641-2.056-2.29Z" transform="translate(-44.957 -88.896)" fill="#ffd8c3"/><path d="M115.229,212.253h.026l10.048.519a.5.5,0,0,1,.474.526l-.415,7.756,2.737.143a.5.5,0,0,1,.473.526l-.215,4.037,1.917,2.136a.5.5,0,0,1,0,.664L127.96,231.2a.5.5,0,0,1-.4.169l-4.087-.212a.5.5,0,0,1-.36-.181l-3.229-3.914-5.4-.278a.5.5,0,0,1-.423-.28l-1.617-3.3a.5.5,0,0,1-.05-.246l.391-7.339a.5.5,0,0,1,.085-.253l1.947-2.891A.5.5,0,0,1,115.229,212.253Zm9.522,1.492-9.265-.478-1.712,2.542-.377,7.071,1.431,2.923,5.325.274a.5.5,0,0,1,.36.181l3.229,3.914,3.626.188,1.865-2.125-1.759-1.96a.5.5,0,0,1-.127-.361l.2-3.744-2.737-.143a.5.5,0,0,1-.473-.526Z" transform="translate(-44.957 -88.896)" fill="#fff"/><path d="M335.3,186.171l8.542-15.047-12.945-.668-.169-.009-6.811,6.082-.481,9.03Z" transform="translate(-126.732 -72.464)" fill="#ffd8c3"/><path d="M335.3,186.671h-.026l-11.864-.612a.5.5,0,0,1-.474-.526l.481-9.03a.5.5,0,0,1,.166-.346l6.811-6.082a.5.5,0,0,1,.36-.126l.169.009,12.944.668a.5.5,0,0,1,.409.746l-8.542,15.047A.5.5,0,0,1,335.3,186.671Zm-11.339-1.586,11.056.57,7.989-14.074-12.1-.624-6.5,5.806Z" transform="translate(-126.732 -72.464)" fill="#fff"/><path d="M312.568,213.667l13.114.676-.611,11.469-13.114-.674Z" transform="translate(-122.273 -89.251)" fill="#ef671f"/><path d="M312.1,213.142l14.113.728-.664,12.467-14.113-.725Zm13.061,1.675-12.115-.625-.558,10.473,12.115.623Z" transform="translate(-122.273 -89.251)" fill="#fff"/><path d="M208.126,252.883l-.2,3.759-2.916,1.8-.144,2.753,1.642,1.637,1.49-.327,7.355-5.83.323-6.077-4.343-.224Z" transform="translate(-80.679 -103.509)" fill="#f7982e"/><path d="M211.334,249.877h.026l4.343.224a.5.5,0,0,1,.473.526l-.323,6.077a.5.5,0,0,1-.189.365l-7.355,5.83a.5.5,0,0,1-.2.1l-1.49.327a.5.5,0,0,1-.46-.134l-1.642-1.637a.5.5,0,0,1-.146-.38l.144-2.753a.5.5,0,0,1,.236-.4l2.694-1.666.186-3.5a.5.5,0,0,1,.191-.367l3.207-2.506A.5.5,0,0,1,211.334,249.877Zm3.817,1.2-3.656-.189-2.881,2.251-.188,3.532a.5.5,0,0,1-.236.4l-2.694,1.666L205.377,261l1.291,1.286,1.111-.244,7.088-5.618Z" transform="translate(-80.679 -103.509)" fill="#fff"/><path d="M289.321,231.261l13.709.707-.35,6.577-13.709-.707Z" transform="translate(-113.345 -96.084)" fill="#ef671f"/><path d="M288.848,230.736l14.708.759-.4,7.575-14.708-.758Zm13.656,1.706-12.71-.656-.3,5.578,12.71.656Z" transform="translate(-113.345 -96.084)" fill="#fff"/><path d="M251.54,182.163l-.254,4.741-5.25,11.075-1.567-.082-.394,7.4,3.512.184,2.878-2.323.061-1.147.108-2.064,7.044-8.567.251-4.127,7.151.369.255-4.744Z" transform="translate(-95.908 -77.015)" fill="#ffa780"/><path d="M251.54,181.663h.026l13.795.711a.5.5,0,0,1,.474.526l-.255,4.744a.5.5,0,0,1-.525.473l-6.657-.343-.221,3.633a.5.5,0,0,1-.113.287l-6.94,8.44-.16,3.047a.5.5,0,0,1-.185.363l-2.878,2.323a.5.5,0,0,1-.34.11l-3.512-.184a.5.5,0,0,1-.473-.526l.394-7.4a.5.5,0,0,1,.525-.473l1.232.064,5.064-10.683.249-4.642A.5.5,0,0,1,251.54,181.663Zm13.269,1.685-12.8-.66-.228,4.242a.5.5,0,0,1-.047.187l-5.25,11.075a.5.5,0,0,1-.478.285l-1.068-.056-.341,6.4,2.821.148,2.555-2.063.156-2.989a.5.5,0,0,1,.113-.292l6.941-8.441.242-3.965a.5.5,0,0,1,.525-.469l6.653.343Z" transform="translate(-95.908 -77.015)" fill="#fff"/><path d="M247.348,214.6l-.061,1.148-2.878,2.324-3.512-.184-.272,5.107-4.343-.224L235.9,230l1.916.1,4.215.217,2.69,2.439,6.386.329.364-6.881,10.035-8.836.108-2.027Z" transform="translate(-92.732 -89.613)" fill="#ffa780"/><path d="M247.347,214.1h.026l14.263.736a.5.5,0,0,1,.474.526L262,217.39a.5.5,0,0,1-.169.349l-9.877,8.7-.353,6.671a.5.5,0,0,1-.525.473l-6.386-.329a.5.5,0,0,1-.31-.129l-2.558-2.319-5.952-.308a.5.5,0,0,1-.473-.526l.385-7.225a.5.5,0,0,1,.525-.473l3.845.2.246-4.608a.5.5,0,0,1,.525-.473l3.321.174L246.8,215.5l.049-.925A.5.5,0,0,1,247.347,214.1Zm13.738,1.71-13.264-.685-.034.649a.5.5,0,0,1-.185.363l-2.878,2.324a.5.5,0,0,1-.34.11l-3.013-.158-.246,4.608a.5.5,0,0,1-.525.473l-3.845-.2-.332,6.227,1.416.074,4.214.217a.5.5,0,0,1,.31.129l2.558,2.319,5.71.294.338-6.383a.5.5,0,0,1,.169-.349l9.877-8.7Z" transform="translate(-92.732 -89.613)" fill="#fff"/><path d="M261.775,197.222l-7.046,8.566-.108,2.065,14.263.736.584-10.97Z" transform="translate(-100.004 -82.863)" fill="#ffa780"/><path d="M261.775,196.722h.026l7.693.4a.5.5,0,0,1,.474.526l-.584,10.97a.5.5,0,0,1-.525.473l-14.263-.736a.5.5,0,0,1-.474-.526l.108-2.065a.5.5,0,0,1,.113-.291l7.046-8.566A.5.5,0,0,1,261.775,196.722Zm7.167,1.37L262,197.734l-6.781,8.244-.073,1.4,13.264.684Z" transform="translate(-100.004 -82.863)" fill="#fff"/><path d="M324.849,226.238l-13.113-.676-.35,6.574,8.175.422,2.859,6.639L337.789,215.4l-12.329-.635Z" transform="translate(-122.051 -89.678)" fill="#ef671f"/><path d="M325.46,214.267h.026l12.329.635a.5.5,0,0,1,.394.771L322.84,239.468a.5.5,0,0,1-.879-.074l-2.736-6.353-7.865-.406a.5.5,0,0,1-.474-.526l.35-6.574a.5.5,0,0,1,.525-.473l12.615.65.584-10.973A.5.5,0,0,1,325.46,214.267Zm11.44,1.59-10.967-.565-.584,10.973a.5.5,0,0,1-.525.473l-12.615-.65-.3,5.575,7.675.4a.5.5,0,0,1,.433.3l2.489,5.778Z" transform="translate(-122.051 -89.678)" fill="#fff"/><path d="M288.8,242.01l-.277,5.2,11.25.58,2.61-2.7.124-2.369Z" transform="translate(-113.169 -100.259)" fill="#ef671f"/><path d="M288.795,241.51h.026l13.707.708a.5.5,0,0,1,.474.526l-.124,2.369a.5.5,0,0,1-.14.321l-2.61,2.7a.5.5,0,0,1-.385.152l-11.25-.58a.5.5,0,0,1-.474-.526l.277-5.2A.5.5,0,0,1,288.795,241.51Zm13.182,1.681-12.709-.656-.224,4.2,10.522.543,2.322-2.4Z" transform="translate(-113.169 -100.259)" fill="#fff"/><path d="M316.381,243.592l-8.175-.421-.124,2.368-.286,5.391-4.452,5.751-.146,2.793,9.749.5,6.292-9.742Z" transform="translate(-118.871 -100.71)" fill="#ef671f"/><path d="M308.206,242.671h.026l8.175.421a.5.5,0,0,1,.434.3l2.856,6.641a.5.5,0,0,1-.039.469l-6.292,9.742a.5.5,0,0,1-.446.228l-9.749-.5a.5.5,0,0,1-.474-.525l.146-2.793a.5.5,0,0,1,.1-.28l4.357-5.627.4-7.6A.5.5,0,0,1,308.206,242.671Zm7.839,1.4-7.366-.38-.1,1.869-.286,5.391a.5.5,0,0,1-.1.28l-4.357,5.627L303.723,259l8.96.462,5.99-9.275Z" transform="translate(-118.871 -100.71)" fill="#fff"/><path d="M288.046,255.942l8.94.462.157-2.982,2.442-2.327-11.249-.58Z" transform="translate(-112.986 -103.562)" fill="#ef671f"/><path d="M296.986,256.9h-.026l-8.94-.462a.5.5,0,0,1-.473-.526l.289-5.427a.5.5,0,0,1,.525-.473l11.249.58a.5.5,0,0,1,.319.861l-2.3,2.19-.146,2.783A.5.5,0,0,1,296.986,256.9Zm-8.414-1.436,7.941.411.13-2.483a.5.5,0,0,1,.154-.336l1.6-1.526-9.591-.495Z" transform="translate(-112.986 -103.562)" fill="#fff"/><path d="M278.615,230.85l-4.333,4.376-.383,7.188,8.942.461.277-5.2.35-6.577Z" transform="translate(-107.492 -95.924)" fill="#ffa780"/><path d="M278.615,230.35h.026l4.853.25a.5.5,0,0,1,.474.526l-.627,11.775a.5.5,0,0,1-.525.473l-8.942-.461a.5.5,0,0,1-.474-.526l.383-7.188a.5.5,0,0,1,.144-.325l4.333-4.376A.5.5,0,0,1,278.615,230.35Zm4.327,1.224-4.129-.213-4.041,4.082-.346,6.5,7.943.41Z" transform="translate(-107.492 -95.924)" fill="#fff"/><path d="M370.153,138.679l-12.26-.632-1.091,20.49,16.349.843,1.091-20.49Z" transform="translate(-139.69 -59.88)" fill="#ffd8c3"/><path d="M357.892,137.547h.026l16.349.843a.5.5,0,0,1,.473.526l-1.091,20.49a.5.5,0,0,1-.525.473l-16.349-.843a.5.5,0,0,1-.474-.526l1.091-20.49A.5.5,0,0,1,357.892,137.547Zm15.823,1.817-3.589-.186-11.762-.606-1.037,19.491,15.35.792Z" transform="translate(-139.69 -59.88)" fill="#fff"/><path d="M331.233,195.77l-11.863-.612-6.053,4.591-.358,6.729,13.114.676,12.329.635.667-1.036,6.924-10.223Z" transform="translate(-122.662 -82.062)" fill="#ffd8c3"/><path d="M319.371,194.658h.026l26.622,1.373a.5.5,0,0,1,.388.78l-6.921,10.218-.664,1.031a.5.5,0,0,1-.446.229l-25.443-1.312a.5.5,0,0,1-.474-.526l.358-6.729a.5.5,0,0,1,.2-.372l6.053-4.591A.5.5,0,0,1,319.371,194.658Zm25.711,2.327-25.554-1.318-5.723,4.341-.319,6,24.653,1.271.51-.792.007-.01Z" transform="translate(-122.662 -82.062)" fill="#fff"/><path d="M342.835,186.6l14.759.761L367.725,172.4l-16.349-.843Z" transform="translate(-134.266 -72.893)" fill="#ffd8c3"/><path d="M357.594,187.86h-.026l-14.759-.761a.5.5,0,0,1-.409-.746l8.542-15.047a.5.5,0,0,1,.461-.253l16.349.843a.5.5,0,0,1,.388.78L358.008,187.64A.5.5,0,0,1,357.594,187.86Zm-13.924-1.719,13.668.705,9.477-14-15.155-.782Z" transform="translate(-134.266 -72.893)" fill="#fff"/><path d="M252,242.922l-6.386-.329-2.689-2.44-4.215-.217-.268,5.046-.232,4.356,2.171.114.12-2.294,2.044.107-.2,3.786-3.449-.18-.121,2.293,7.024.363,10.288-10.395Z" transform="translate(-93.631 -99.453)" fill="#ffa780"/><path d="M238.714,239.436h.026l4.215.217a.5.5,0,0,1,.31.129l2.557,2.32,10.295.53a.5.5,0,0,1,.33.851l-10.288,10.395a.5.5,0,0,1-.381.148l-7.024-.363a.5.5,0,0,1-.474-.526l.121-2.294a.5.5,0,0,1,.525-.473l2.95.154.149-2.788-1.045-.055-.094,1.795a.5.5,0,0,1-.525.473l-2.171-.114a.5.5,0,0,1-.473-.526l.5-9.4A.5.5,0,0,1,238.714,239.436Zm4.011,1.207-3.538-.182-.447,8.4,1.172.061.094-1.795a.5.5,0,0,1,.525-.473l2.044.107a.5.5,0,0,1,.473.526l-.2,3.786a.5.5,0,0,1-.525.473l-2.95-.154-.068,1.295,6.3.325,9.345-9.442-9.358-.482a.5.5,0,0,1-.31-.129Z" transform="translate(-93.631 -99.453)" fill="#fff"/><path d="M157.53,216.047l-6.77-.349-4.687,3.783-4.087-.211-4.414,3.571-.226,4.241,2.055,2.29,17.371.9.611-11.468Z" transform="translate(-54.454 -90.039)" fill="#ffd8c3"/><path d="M150.76,215.2h.026l6.77.349a.5.5,0,0,1,.474.526l-.757,14.22a.5.5,0,0,1-.525.473l-17.371-.9a.5.5,0,0,1-.346-.165l-2.055-2.29a.5.5,0,0,1-.127-.361l.226-4.241a.5.5,0,0,1,.185-.362l4.414-3.571a.5.5,0,0,1,.34-.111l3.9.2,4.538-3.663A.5.5,0,0,1,150.76,215.2ZM157,216.521l-6.079-.314-4.538,3.663a.5.5,0,0,1-.34.11l-3.9-.2-4.092,3.31-.2,3.812,1.778,1.981,16.665.86Z" transform="translate(-54.454 -90.039)" fill="#fff"/><path d="M186.174,224.5l.15-2.867-16.6-.857-.611,11.468,11.238.58.281-5.275Z" transform="translate(-66.791 -92.011)" fill="#ffd8c3"/><path d="M169.721,220.273h.026l16.6.857a.5.5,0,0,1,.474.525l-.15,2.867a.5.5,0,0,1-.258.412l-5.3,2.915-.266,5a.5.5,0,0,1-.525.473l-11.238-.58a.5.5,0,0,1-.474-.526l.611-11.468A.5.5,0,0,1,169.721,220.273ZM185.8,222.1l-15.605-.805-.558,10.47,10.24.528.254-4.777a.5.5,0,0,1,.258-.412l5.3-2.915Z" transform="translate(-66.791 -92.011)" fill="#fff"/><path d="M205.648,243.964l3.074-2.4.482-9.057-5.235-5.091-.593,11.115-4.89,5.843,6.227.321Z" transform="translate(-78.201 -94.591)" fill="#f7982e"/><path d="M204.714,245.2h-.026l-6.227-.321a.5.5,0,0,1-.358-.82l4.783-5.715.584-10.949a.5.5,0,0,1,.848-.332l5.235,5.091a.5.5,0,0,1,.151.385l-.482,9.057a.5.5,0,0,1-.192.367l-4.008,3.132A.5.5,0,0,1,204.714,245.2Zm-5.2-1.269,5.039.26.787-.616,2.895-2.261.458-8.6-4.283-4.165-.534,10.016a.5.5,0,0,1-.116.294Z" transform="translate(-78.201 -94.591)" fill="#fff"/><path d="M194.016,205.111l-.555,10.438-.15,2.867-5.545,3.048-.281,5.274,4.6.237,2.676,2.667,4.342.228.592-11.116.709-13.314Z" transform="translate(-73.928 -85.927)" fill="#ffd8c3"/><path d="M194.016,204.611h.026l6.387.329a.5.5,0,0,1,.474.526l-1.3,24.43a.5.5,0,0,1-.526.473l-4.342-.228a.5.5,0,0,1-.327-.145l-2.54-2.531-4.407-.227a.5.5,0,0,1-.474-.526l.281-5.274a.5.5,0,0,1,.258-.412l5.3-2.914.135-2.589.555-10.439A.5.5,0,0,1,194.016,204.611Zm5.861,1.3-5.388-.278-.529,9.94-.15,2.866a.5.5,0,0,1-.258.412l-5.3,2.914-.239,4.5,4.1.211a.5.5,0,0,1,.327.145l2.54,2.531,3.652.192Z" transform="translate(-73.928 -85.927)" fill="#fff"/><path d="M201.866,264.425l-1.642-1.637.144-2.753,2.912-1.807.2-3.757-.935.731-6.226-.32-3.044,3.638-.36,6.767,4.767,4.271,2.81.147,2.679-2.194.179-3.409Z" transform="translate(-76.039 -105.099)" fill="#f7982e"/><path d="M200.5,270.205h-.026l-2.81-.147a.5.5,0,0,1-.307-.127l-4.767-4.271a.5.5,0,0,1-.166-.4l.36-6.767a.5.5,0,0,1,.116-.294l3.044-3.638a.5.5,0,0,1,.409-.178l6.04.311.788-.616a.5.5,0,0,1,.807.421l-.2,3.757a.5.5,0,0,1-.236.4l-2.69,1.669-.119,2.269,1.291,1.287,1.221-.265a.5.5,0,0,1,.605.515l-.179,3.409a.5.5,0,0,1-.183.361l-2.679,2.194A.5.5,0,0,1,200.5,270.205Zm-2.607-1.137,2.44.128,2.358-1.931.133-2.535-.848.184a.5.5,0,0,1-.459-.135l-1.642-1.637a.5.5,0,0,1-.146-.38l.144-2.753a.5.5,0,0,1,.236-.4l2.69-1.669.13-2.4-.068.053a.5.5,0,0,1-.334.105l-5.977-.308-2.777,3.319-.339,6.361Z" transform="translate(-76.039 -105.099)" fill="#fff"/><path d="M225.721,239.733l-1.15-.06-7.02,6.77-.324,6.078-7.359,5.831-.179,3.409,7.1-5.814,8.813.454.244-4.588-3.193-.168.2-3.67,4.521-3.1.268-5.046Z" transform="translate(-82.553 -99.351)" fill="#f7982e"/><path d="M224.571,239.173h.026l3.066.16a.5.5,0,0,1,.473.526l-.268,5.046a.5.5,0,0,1-.217.386l-4.317,2.958-.155,2.924,2.693.141a.5.5,0,0,1,.473.526l-.244,4.588a.5.5,0,0,1-.525.473l-8.62-.444-6.949,5.691a.5.5,0,0,1-.816-.413l.179-3.409a.5.5,0,0,1,.189-.366l7.182-5.691.312-5.853a.5.5,0,0,1,.152-.333l7.02-6.77A.5.5,0,0,1,224.571,239.173Zm2.54,1.133-2.349-.123-6.722,6.483-.313,5.882a.5.5,0,0,1-.189.365l-7.182,5.691-.108,2.054,6.223-5.1a.5.5,0,0,1,.343-.113l8.314.429.191-3.589-2.693-.141a.5.5,0,0,1-.473-.526l.2-3.67a.5.5,0,0,1,.217-.386l4.317-2.958Z" transform="translate(-82.553 -99.351)" fill="#fff"/><path d="M305.461,174.918l-5.309,1.106-.4,7.57,5.431-3.4Z" transform="translate(-117.531 -74.201)" fill="#ffa780"/><path d="M305.461,174.418a.5.5,0,0,1,.5.527l-.281,5.276a.5.5,0,0,1-.234.4l-5.431,3.4a.5.5,0,0,1-.765-.45l.4-7.57a.5.5,0,0,1,.4-.463l5.309-1.106A.5.5,0,0,1,305.461,174.418Zm-.766,5.49.232-4.368-4.3.9-.331,6.224Z" transform="translate(-117.531 -74.201)" fill="#fff"/><path d="M141.228,252.941l-7.5,9.365-.211,3.96,6,.31,3.966-5.085,8.769.452,1.681,3.306,3.366-2.3-5.77-9.479Z" transform="translate(-52.967 -104.505)" fill="#ffd8c3"/><path d="M141.228,252.441h.026l10.3.531a.5.5,0,0,1,.4.239l5.77,9.479a.5.5,0,0,1-.145.673l-3.366,2.3a.5.5,0,0,1-.728-.186l-1.55-3.049L143.72,262l-3.806,4.88a.5.5,0,0,1-.42.192l-6-.31a.5.5,0,0,1-.473-.526l.211-3.96a.5.5,0,0,1,.109-.286l7.5-9.365A.5.5,0,0,1,141.228,252.441Zm10.014,1.517-9.784-.5-7.239,9.039-.176,3.3,5.243.271,3.806-4.88a.5.5,0,0,1,.42-.192l8.769.452a.5.5,0,0,1,.42.273l1.423,2.8,2.5-1.71Z" transform="translate(-52.967 -104.505)" fill="#fff"/><path d="M150.817,250.112l.206-3.862-5.663-.292.067-1.262-8.045-.415-5.323,6.166-.379,7.11,1.4.074-.069,1.314,7.5-9.363Z" transform="translate(-52.253 -101.141)" fill="#ffd8c3"/><path d="M137.381,243.782h.026l8.045.415a.5.5,0,0,1,.474.526l-.04.762,5.163.266a.5.5,0,0,1,.474.526l-.206,3.862a.5.5,0,0,1-.525.473l-10.048-.516-7.339,9.163a.5.5,0,0,1-.89-.339l.043-.815-.906-.048a.5.5,0,0,1-.473-.526l.379-7.11a.5.5,0,0,1,.121-.3L137,243.955A.5.5,0,0,1,137.381,243.782Zm7.519,1.389-7.3-.377-5.051,5.851-.343,6.44.905.048a.5.5,0,0,1,.447.337l6.566-8.2a.5.5,0,0,1,.416-.187l9.805.5.152-2.863-5.163-.266a.5.5,0,0,1-.474-.526Z" transform="translate(-52.253 -101.141)" fill="#fff"/><path d="M176.026,244.67l-10.476-.541-.114,2.179-2.257-.119-.206,3.864,15.029.776.022-.42Z" transform="translate(-64.408 -101.082)" fill="#ffd8c3"/><path d="M165.55,243.629h.026l10.476.541a.5.5,0,0,1,.446.335l2,5.739a.5.5,0,0,1,.027.191l-.022.42a.5.5,0,0,1-.525.473l-15.029-.776a.5.5,0,0,1-.474-.526l.205-3.864a.5.5,0,0,1,.526-.473l1.757.092.088-1.68A.5.5,0,0,1,165.55,243.629Zm10.114,1.523-9.641-.5-.088,1.68a.5.5,0,0,1-.526.473l-1.758-.092-.152,2.865,13.958.72Z" transform="translate(-64.408 -101.082)" fill="#fff"/><path d="M168.746,263.286l4.465-3.048,2.692.141,1.909-2.2.188-3.592-15.025-.775Z" transform="translate(-64.409 -104.842)" fill="#ffd8c3"/><path d="M168.746,263.786a.5.5,0,0,1-.427-.24l-5.77-9.477a.5.5,0,0,1,.453-.759l15.025.775a.5.5,0,0,1,.474.526l-.188,3.592a.5.5,0,0,1-.122.3l-1.909,2.2a.5.5,0,0,1-.4.172l-2.523-.132-4.326,2.953A.5.5,0,0,1,168.746,263.786Zm-4.851-9.429,5,8.219,4.03-2.751a.5.5,0,0,1,.308-.086l2.448.128,1.637-1.888.153-2.921Z" transform="translate(-64.409 -104.842)" fill="#fff"/><path d="M194.985,250.667l1.457-3.317-2.427-.127-.568,1.3-2.825-.146-.108,2.064,2.044.107,1.149.06Z" transform="translate(-75.105 -102.283)" fill="#ffd8c3"/><path d="M194.985,251.167h-.025l-1.278-.064-3.194-.167a.5.5,0,0,1-.473-.525l.108-2.064a.5.5,0,0,1,.525-.473l2.48.128.429-.98a.5.5,0,0,1,.484-.3l2.427.127a.5.5,0,0,1,.432.7l-1.457,3.317A.5.5,0,0,1,194.985,251.167Zm-3.945-1.2,3.626.187,1.028-2.339-1.359-.071-.429.979a.5.5,0,0,1-.484.3l-2.326-.12Z" transform="translate(-75.105 -102.283)" fill="#fff"/><path d="M76.613,233.767l-4.554-.235-2.41,3.556.007,1.459,1.362.071,1.733-2.06-.2,3.671-1.411.845-.395,7.416,1.277.067,1.753-2.44,2.128.112-2.239,1.953-.164,3.135,3.237.169,2.324-1.95.23-4.319-3.117-3.225Z" transform="translate(-28.161 -96.966)" fill="#ffd8c3"/><path d="M72.059,233.032h.026l4.554.235a.5.5,0,0,1,.474.526l-.422,8.008,2.966,3.069a.5.5,0,0,1,.14.374l-.23,4.319a.5.5,0,0,1-.178.356l-2.324,1.95a.5.5,0,0,1-.348.116l-3.237-.169a.5.5,0,0,1-.473-.525l.164-3.135a.5.5,0,0,1,.171-.351l1.309-1.142-.623-.033-1.593,2.218a.5.5,0,0,1-.432.208l-1.277-.067a.5.5,0,0,1-.473-.526l.395-7.416a.5.5,0,0,1,.242-.4l1.183-.709.1-1.915-.771.917a.5.5,0,0,1-.409.177l-1.362-.071a.5.5,0,0,1-.474-.5l-.007-1.459a.5.5,0,0,1,.086-.283l2.41-3.556A.5.5,0,0,1,72.059,233.032Zm4.028,1.208-3.773-.195-2.165,3.195,0,.832.642.033,1.573-1.869a.5.5,0,0,1,.882.348l-.2,3.671a.5.5,0,0,1-.242.4l-1.183.709-.354,6.651.5.027,1.593-2.218a.5.5,0,0,1,.432-.208l2.128.112a.5.5,0,0,1,.3.876l-2.079,1.814-.127,2.424,2.541.133,2.007-1.684.207-3.885-2.965-3.068a.5.5,0,0,1-.14-.374Z" transform="translate(-28.161 -96.966)" fill="#fff"/><path d="M89.722,238.7l-2.81-.147-2.828-2.21s.1-1.172.173-2.257l-2.1-.11-1.405-.073-.438,8.223,3.117,3.226.154-2.944,1.788.094,4.282-2.654Z" transform="translate(-32.305 -97.112)" fill="#ffd8c3"/><path d="M80.756,233.407h.026l3.5.183a.5.5,0,0,1,.473.532c-.05.767-.116,1.585-.151,2l2.49,1.946,2.652.139a.5.5,0,0,1,.473.527l-.063,1.147a.5.5,0,0,1-.236.4l-4.282,2.654a.5.5,0,0,1-.29.074l-1.288-.068-.128,2.444a.5.5,0,0,1-.859.321l-3.117-3.226a.5.5,0,0,1-.14-.374l.438-8.223A.5.5,0,0,1,80.756,233.407Zm2.969,1.156-2.5-.131-.4,7.507L83,244.182l.094-1.8a.5.5,0,0,1,.526-.473l1.631.086,3.927-2.434.021-.387-2.309-.121a.5.5,0,0,1-.282-.105l-2.828-2.21a.5.5,0,0,1-.19-.438C83.588,236.294,83.661,235.462,83.725,234.563Z" transform="translate(-32.305 -97.112)" fill="#fff"/><path d="M84.512,259.01l-5.262,5.248,4.373.226,1.482,5.283,9.254-9.674-2.8-5.2-6.811-.352Z" transform="translate(-31.89 -105.124)" fill="#ffd8c3"/><path d="M84.749,254.037h.026l6.811.352a.5.5,0,0,1,.415.263l2.8,5.2a.5.5,0,0,1-.079.582l-9.254,9.674a.5.5,0,0,1-.843-.211l-1.385-4.937-4.014-.207a.5.5,0,0,1-.327-.853l5.126-5.113.228-4.281A.5.5,0,0,1,84.749,254.037Zm6.5,1.336-6.031-.311-.212,3.974a.5.5,0,0,1-.146.327L80.4,263.817l3.248.168a.5.5,0,0,1,.456.364l1.245,4.439,8.4-8.778Z" transform="translate(-31.89 -105.124)" fill="#fff"/><path d="M101.055,237.132l.328-6.146-6.3-.325-2.66,2.468-5.77-.3c-.07,1.082-.173,2.254-.173,2.254L89.3,237.3l2.81.147-.06,1.148-4.282,2.654-.213,4.015,6.812.352.369-4.583Z" transform="translate(-34.697 -95.851)" fill="#ffd8c3"/><path d="M95.081,230.161h.026l6.3.325a.5.5,0,0,1,.474.526l-.328,6.146a.5.5,0,0,1-.237.4l-6.1,3.767-.349,4.331a.5.5,0,0,1-.524.459l-6.812-.352a.5.5,0,0,1-.474-.526l.213-4.015a.5.5,0,0,1,.236-.4l4.059-2.516.02-.388-2.31-.121a.5.5,0,0,1-.282-.106l-2.827-2.214a.5.5,0,0,1-.19-.437c0-.012.1-1.179.172-2.243a.5.5,0,0,1,.525-.467l5.559.287,2.5-2.325A.5.5,0,0,1,95.081,230.161Zm5.776,1.3-5.591-.289-2.5,2.325a.5.5,0,0,1-.366.133l-5.279-.272c-.043.6-.09,1.179-.117,1.5l2.49,1.95,2.652.139a.5.5,0,0,1,.473.525l-.06,1.148a.5.5,0,0,1-.236.4l-4.06,2.516-.173,3.254,5.826.3.33-4.1a.5.5,0,0,1,.236-.385l6.092-3.762Z" transform="translate(-34.697 -95.851)" fill="#fff"/><path d="M81.919,275.933l-1.482-5.284-4.374-.226L71.679,274.8l-.631,11.852,3.15.165.269-5.046L76,281.85l-.513,9.629,2.554.134,6.431-6.577Z" transform="translate(-28.704 -111.295)" fill="#ffd8c3"/><path d="M76.063,269.924h.026l4.374.226a.5.5,0,0,1,.456.364L84.953,284.9a.5.5,0,0,1-.124.485L78.4,291.963a.5.5,0,0,1-.384.15l-2.554-.134a.5.5,0,0,1-.473-.526l.486-9.13-.534-.028-.242,4.547a.5.5,0,0,1-.525.473l-3.15-.165a.5.5,0,0,1-.473-.526l.631-11.852a.5.5,0,0,1,.146-.327l4.384-4.374A.5.5,0,0,1,76.063,269.924Zm3.99,1.206-3.794-.2-4.091,4.082-.594,11.16,2.152.113.242-4.547a.5.5,0,0,1,.526-.473l1.532.081a.5.5,0,0,1,.473.526l-.486,9.129,1.829.1,6.071-6.209Z" transform="translate(-28.704 -111.295)" fill="#fff"/><path d="M111.539,242.724,106,242.438l.064-1.194-6.314,3.9-.371,4.581,2.8,5.2,10.734.554.678-11.2Z" transform="translate(-39.709 -99.961)" fill="#ffd8c3"/><path d="M106.067,240.744a.5.5,0,0,1,.5.527l-.037.694,5.035.26a.5.5,0,0,1,.277.1l2.051,1.563a.5.5,0,0,1,.2.428l-.678,11.2a.5.5,0,0,1-.525.469l-10.734-.554a.5.5,0,0,1-.415-.263l-2.8-5.2a.5.5,0,0,1-.058-.277l.371-4.581a.5.5,0,0,1,.236-.385l6.314-3.9A.5.5,0,0,1,106.067,240.744Zm5.291,2.471-5.381-.278a.5.5,0,0,1-.473-.526l.013-.239-5.286,3.265-.339,4.182,2.593,4.826,9.957.514.632-10.436Z" transform="translate(-39.709 -99.961)" fill="#fff"/><path d="M88.822,273.29l2.552,9.1,17.41-17.8.025-.421-10.734-.554Z" transform="translate(-35.608 -108.65)" fill="#ffd8c3"/><path d="M91.375,282.89a.5.5,0,0,1-.481-.365l-2.552-9.1a.5.5,0,0,1,.12-.481l9.254-9.677a.5.5,0,0,1,.387-.154l10.734.554a.5.5,0,0,1,.473.529l-.025.421a.5.5,0,0,1-.142.32l-17.41,17.8A.5.5,0,0,1,91.375,282.89Zm-1.994-9.461,2.242,7.993,16.424-16.794-9.767-.5Z" transform="translate(-35.608 -108.65)" fill="#fff"/><path d="M2.093,291.121l-.279,2.861,2,.908,13.1-10.365.12-2.294-2.772-.833Z" transform="translate(-1.814 -115.557)" fill="#ffd8c3"/><path d="M3.815,295.389a.5.5,0,0,1-.207-.045l-2-.908a.5.5,0,0,1-.291-.5l.279-2.861a.5.5,0,0,1,.186-.342l12.173-9.723a.5.5,0,0,1,.456-.088l2.772.833a.5.5,0,0,1,.355.505l-.12,2.294a.5.5,0,0,1-.189.366l-13.1,10.365A.5.5,0,0,1,3.815,295.389Zm-1.468-1.715,1.4.634,12.687-10.035.088-1.676-2.145-.645-11.8,9.427Z" transform="translate(-1.814 -115.557)" fill="#fff"/><path d="M264.86,245.191l.38-7.188-4.333,4.377-10.286,10.394,13.925.661,1.958-3.986.053-.108,1.788.094-.421,7.913,2.81.147,2.531-1.827.244-4.588.289-5.427Z" transform="translate(-98.451 -98.703)" fill="#ffa780"/><path d="M265.241,237.5a.5.5,0,0,1,.5.526l-.354,6.688,8.438.436a.5.5,0,0,1,.473.526l-.533,10.016a.5.5,0,0,1-.207.379l-2.531,1.827a.5.5,0,0,1-.319.094l-2.81-.147a.5.5,0,0,1-.473-.526l.395-7.414-.959-.05-1.866,3.8a.5.5,0,0,1-.472.279l-13.925-.661a.5.5,0,0,1-.332-.851l14.619-14.771A.5.5,0,0,1,265.241,237.5Zm8.031,8.623-8.438-.436a.5.5,0,0,1-.473-.526l.311-5.876-12.9,13.039,12.476.592,1.866-3.8a.5.5,0,0,1,.475-.279l1.788.094a.5.5,0,0,1,.473.526l-.395,7.414,2.134.112,2.194-1.584Z" transform="translate(-98.451 -98.703)" fill="#fff"/><path d="M376.988,71.668,364.816,56.143l-.64-.034-7.826,5.822-.277,5.146-4.98-.256-.238,4.472-12.216-.63.982-18.444,7.734-5.753.367-6.893,14.945.771.415-7.787,5.516-4.993.979-18.376,17.482.9,17.928,28.642,6.216.321,5.686-2.791-.417,7.832-4.518,2.215-.18,2.969,6.49.335-.258,4.926L410.494,58.5l-19.752-1.019Zm-36.244-2.9,8.221.424.238-4.472,4.981.256.176-3.278-4.979-.257.429-8.076,8.554.441-.229,4.3,5.425-4.036,2.268.119L377.147,68.63l12.791-13.194,20.11,1.037,6.02-3.172.094-1.792-6.506-.336.372-6.145,4.509-2.211.173-3.256-4.449,2.184.03-.734-6.448-.333L385.917,12.036l-14.448-.746-.916,17.2-5.516,4.993-.477,8.957-14.944-.771-.311,5.837-7.734,5.753Zm10.74-9.221,4.559.235.217-4.081-4.56-.235Z" transform="translate(-133.045 -10.24)" fill="#fff"/><path d="M234.827,221.207l-6.34-.327.275-5.243-6.644,1.208-.179-.984-.246.969-4.208-1.069.336-6.289,8.429.435.2-3.669,9.151.472Zm-4.238-2.221,2.346.121.558-10.5-5.157-.266-.2,3.669-8.429-.435-.142,2.655,2.406.611,8.915-1.621Z" transform="translate(-85.985 -86.773)" fill="#fff"/><path d="M293.1,211.763l11.82.61L304.2,225.84l-15.707-.81.5-9.349Zm9.716,2.5-8.959-.462-2.909,2.775-.349,6.556,11.712.6Z" transform="translate(-113.567 -88.908)" fill="#fff"/><path d="M270.62,205.565l12.9.665-.243,4.607-3.508,3.347-.455,8.551-5.4-.279-8.666,8.753-5.534-.286.442-8.3,10.034-8.835.084-1.607Zm10.794,2.559-8.9-.459-.374,7.069L262.1,223.569l-.291,5.461,2.639.136,8.666-8.753,4.3.222.391-7.35,3.507-3.347Z" transform="translate(-102.388 -86.512)" fill="#fff"/><path d="M300.495,201.793l-12.385-.639.168-3.21-10.9-.562.392-7.349,15.469.8,14.325-12.784-.633,11.891-6.051,4.591Zm-10.284-2.533,8.392.433.328-6.2,6.051-4.591.328-6.168L293.957,192.87l-14.3-.737-.179,3.354,10.9.562Z" transform="translate(-109.251 -76.327)" fill="#fff"/><path d="M135.993,218.75l-4.62-.238.546-10.255.769.039,9.109-6.774,17.326.894-.357,6.64-2.74,2.907-6.845-.351L144.5,215.4l-4.087-.212Zm-2.516-2.132,1.855.1,4.416-3.566,4.087.212,4.685-3.784,6.686.343,1.6-1.7.21-3.907-14.606-.754-8.581,6.382Z" transform="translate(-52.543 -84.928)" fill="#fff"/><path d="M211.087,235.256l.575-10.8-5.236-5.091.785-14.763,8.511.439-.455,8.551,3.412.867-1.056,19.823-4.965-.257Zm2.173-3.2,2.473.128.862-16.189-3.412-.867.436-8.191L209.1,206.7l-.631,11.862,5.236,5.091Z" transform="translate(-81.682 -86.137)" fill="#fff"/><path d="M171.762,202.833l16.559.854-.663,12.432-18.6-.96.215-4.119,2.175-2.3Zm14.455,2.748-12.564-.648-.247,4.644-2.174,2.3-.072,1.386,14.608.754Z" transform="translate(-67.179 -85.45)" fill="#fff"/><path d="M363.571,128.481l-27.2-1.4.678-12.7,4.428.228.236-4.434,7.617.392L349.092,115l8.732.45.008-.144-7.5-.387.368-6.891,13.919.718Zm-25.1-3.3,23.208,1.2.838-15.742-9.924-.512-.155,2.9,7.494.386-.216,4.138-12.728-.657.236-4.435-3.622-.186-.236,4.434-4.429-.228Z" transform="translate(-132.163 -48.628)" fill="#fff"/><path d="M335.784,135.906l14.941.771-1.2,22.488-14.942-.772Zm12.838,2.665-10.947-.565L336.69,156.5l10.947.565Z" transform="translate(-131.471 -59.456)" fill="#fff"/><path d="M232.455,217.748l-.8,14.994-1.715-.09-8.535,8.23,1.136-21.332Zm-2.689,12.891.557-10.471-5.867,1.067-.782,14.682,5.505-5.308Z" transform="translate(-87.544 -91.306)" fill="#fff"/><path d="M114.716,211.725l11.614.6-.442,8.257,3.237.169-.258,4.83,2.372,2.643-3.223,3.672-5.011-.259-3.369-4.084-5.768-.3-1.99-4.066.419-7.875Zm9.509,2.494-8.482-.438-1.476,2.192-.362,6.8,1.244,2.542,5.471.282,3.369,4.084,3.164.164,1.413-1.61-1.739-1.938.2-3.657-3.237-.169Z" transform="translate(-44.957 -88.896)" fill="#fff"/><path d="M335.866,187.2l-13.481-.7.556-10.446,7.43-6.634.581.032,14.56.751Zm-11.378-2.59,10.248.529,7.437-13.1-11.086-.572L324.894,177Z" transform="translate(-126.732 -72.464)" fill="#fff"/><path d="M311.623,212.617l15.111.779-.717,13.466-15.111-.777Zm13.008,2.674-11.117-.573-.5,9.474,11.117.571Z" transform="translate(-122.273 -89.251)" fill="#fff"/><path d="M211.012,249.359l5.716.3-.4,7.528-7.89,6.254-2.25.494-2.345-2.337.2-3.722,2.917-1.8.2-3.692Zm3.613,2.189-2.97-.154-2.554,2-.2,3.827-2.916,1.8-.094,1.785.939.936.731-.161,6.821-5.406Z" transform="translate(-80.679 -103.509)" fill="#fff"/><path d="M288.375,230.211l15.706.81-.456,8.574-15.706-.81Zm13.6,2.7-11.712-.6-.244,4.579,11.712.6Z" transform="translate(-113.345 -96.084)" fill="#fff"/><path d="M250.6,181.113l15.792.814-.362,6.741-7.159-.369-.211,3.462-7.041,8.563-.175,3.329-3.522,2.844-4.894-.257.5-9.4,1.9.1,4.879-10.292Zm13.687,2.708-11.8-.608-.212,3.941-5.621,11.858-1.238-.065-.288,5.4,2.13.112,2.233-1.8.162-3.094,7.048-8.57.292-4.792,7.144.368Z" transform="translate(-95.908 -77.015)" fill="#fff"/><path d="M246.4,213.55l16.261.839-.183,3.447-10.035,8.836-.4,7.458-7.74-.4-2.69-2.439-6.774-.351.491-9.221,4.343.224.272-5.108,4.127.216,2.233-1.8Zm14.157,2.734-12.265-.633-.031.6-3.523,2.844-2.9-.152-.272,5.106-4.343-.224-.278,5.229.916.048,4.57.235,2.69,2.439,5.033.259.334-6.3,10.035-8.837Z" transform="translate(-92.732 -89.613)" fill="#fff"/><path d="M261.323,196.2l9.2.475-.69,12.967L253.57,208.8l.178-3.393Zm7.093,2.369-6.189-.319-6.516,7.922-.039.737,12.266.633Z" transform="translate(-100.004 -82.863)" fill="#fff"/><path d="M324.514,213.717l15.052.776-17.324,26.821-3.355-7.789-8.555-.442.457-8.571,13.113.676Zm11.5,2.6-9.605-.5-.611,11.471-13.113-.676-.244,4.576,7.8.4,2.364,5.488Z" transform="translate(-122.051 -89.678)" fill="#fff"/><path d="M287.85,240.96l15.7.811-.2,3.742-3.186,3.3-12.7-.655Zm13.6,2.7-11.711-.6-.171,3.2,9.795.505,2.034-2.106Z" transform="translate(-113.169 -100.259)" fill="#fff"/><path d="M307.26,242.121l9.794.5,3.313,7.7L313.472,261l-11.326-.584.215-4.1,4.453-5.751Zm8.449,2.438-6.556-.338-.072,1.37-.3,5.7-4.452,5.751-.078,1.481,8.172.421,5.689-8.808Z" transform="translate(-118.871 -100.71)" fill="#fff"/><path d="M297.932,257.454l-10.938-.566.395-7.424,14.566.752-3.835,3.656Zm-8.834-2.46,6.942.359.125-2.381,1.048-1-7.932-.409Z" transform="translate(-112.986 -103.562)" fill="#fff"/><path d="M278.22,229.828l6.3.325-.733,13.772-10.939-.564.456-8.568Zm4.2,2.219-3.406-.176-3.75,3.787-.309,5.808,6.944.358Z" transform="translate(-107.492 -95.924)" fill="#fff"/><path d="M356.947,137l18.346.947-1.2,22.487-18.346-.946Zm16.242,2.84-14.351-.74-.984,18.493,14.351.74Z" transform="translate(-139.69 -59.88)" fill="#fff"/><path d="M319.057,194.14l28.757,1.483L339.9,207.305l-.974,1.513-27.022-1.393.436-8.192Zm25.113,3.3-24.486-1.263-5.392,4.09-.28,5.265,23.863,1.23.366-.568Z" transform="translate(-122.662 -82.062)" fill="#fff"/><path d="M358.105,188.388l-16.94-.874,9.646-16.992,18.736.967Zm-13.6-2.7,12.577.649L365.9,173.3l-13.962-.72Z" transform="translate(-134.266 -72.893)" fill="#fff"/><path d="M237.769,238.886l5.568.287,2.689,2.44,12.347.636-12.174,12.3-8.471-.437.2-3.787-.763-.04Zm4.752,2.247-2.861-.147-.394,7.406.173.009.12-2.294,4.042.212-.308,5.784-3.448-.18-.016.3,5.577.288,8.4-8.489-8.6-.443Zm-1.024,7.078-.046,0L241.358,250l.044,0Z" transform="translate(-93.631 -99.453)" fill="#fff"/><path d="M150.429,214.68l8.152.42-.863,16.218-18.783-.969-2.609-2.907.271-5.1,5.058-4.091,4.088.211Zm6.049,2.315-5.388-.278L146.4,220.5l-4.087-.211-3.77,3.05-.18,3.383,1.5,1.673,15.959.823Z" transform="translate(-54.454 -90.039)" fill="#fff"/><path d="M168.776,219.723l18.6.96-.231,4.422-5.546,3.05-.3,5.717-13.236-.683Zm16.5,2.854-14.607-.754-.5,9.471,9.241.477.257-4.833,5.545-3.049Z" transform="translate(-66.791 -92.011)" fill="#fff"/><path d="M205.036,245.714l-8.6-.444,5.962-7.125.692-12.981,7.139,6.943-.53,9.965Zm-4.5-2.234,3.852.2.64-.5,2.716-2.121.434-8.148-3.331-3.239-.493,9.249Z" transform="translate(-78.201 -94.591)" fill="#fff"/><path d="M193.071,204.061l8.384.432-1.408,26.428-5.723-.3-2.675-2.666-5.216-.269.364-6.83,5.545-3.047.121-2.311Zm6.281,2.326-4.39-.226-.5,9.441-.179,3.422-5.546,3.048-.2,3.719,3.981.205,2.676,2.667,2.962.156Z" transform="translate(-73.928 -85.927)" fill="#fff"/><path d="M200.83,270.724l-3.548-.186-5.387-4.826.4-7.578,3.578-4.276,6.351.327,2.375-1.856-.352,6.474-2.911,1.806-.094,1.785.94.938,2.234-.485-.27,5.158Zm-2.739-2.146,2.071.109,2.037-1.669.087-1.66-.741.161-2.344-2.337.2-3.72,2.913-1.807.079-1.458-5.619-.289-2.51,3-.317,5.956Z" transform="translate(-76.039 -105.099)" fill="#fff"/><path d="M224.189,238.652l4.5.235-.348,6.539-4.521,3.1L223.7,250.7l3.193.168-.35,6.584-9.424-.486-8.55,7,.321-6.12,7.359-5.831.32-6.021Zm2.4,2.128-1.633-.085-6.424,6.2-.327,6.135-7.358,5.831-.037.7,5.647-4.625,8.2.423.138-2.591-3.193-.168.274-5.162,4.521-3.1Z" transform="translate(-82.553 -99.351)" fill="#fff"/><path d="M306.528,173.674l-.377,7.092-7.5,4.7.546-10.261Zm-2.319,5.948.184-3.46-3.284.684-.259,4.879Z" transform="translate(-117.531 -74.201)" fill="#fff"/><path d="M140.768,251.916l11.343.585,6.539,10.741-5.09,3.474-1.935-3.8-7.671-.4-3.966,5.085-7.524-.389.281-5.281Zm10.185,2.528-9.264-.478-6.979,8.714-.141,2.639,4.483.232,3.966-5.085,9.866.509,1.428,2.808,1.643-1.121Z" transform="translate(-52.967 -104.505)" fill="#fff"/><path d="M136.944,243.258l9.534.492-.067,1.262,5.664.292-.312,5.859-10.789-.554L131.853,262l.18-3.419-1.406-.074.451-8.451Zm7.431,2.386-6.556-.338-4.78,5.536-.308,5.77.837.044,6.485-8.1,9.818.5.1-1.865-5.663-.292Z" transform="translate(-52.253 -101.141)" fill="#fff"/><path d="M164.6,243.079l12.145.627,2.285,6.56-.084,1.614L161.922,251l.312-5.862,2.256.119Zm10.7,2.555-8.806-.454-.114,2.18-2.258-.119-.1,1.866,12.715.656Z" transform="translate(-64.408 -101.082)" fill="#fff"/><path d="M168.44,264.706l-7.3-11.993,17.915.925-.259,4.935-2.455,2.831-2.842-.149Zm-3.626-9.8,4.238,6.961,3.874-2.645,2.541.133,1.364-1.574.118-2.249Z" transform="translate(-64.409 -104.842)" fill="#fff"/><path d="M195.623,251.7l-1.966-.1-4.194-.219.213-4.06,3.133.161.568-1.3,4.563.239Zm-4.058-2.21,2.781.144.6-1.361-.291-.015-.568,1.3-2.517-.13Z" transform="translate(-75.105 -102.283)" fill="#fff"/><path d="M71.548,232.5l6.117.315L77.2,241.61l3.117,3.225-.276,5.188-2.959,2.483-4.629-.242.146-2.79-.08.112-2.822-.149.476-8.947,1.411-.845.008-.158-.13.155-2.8-.146-.014-2.713Zm1.556,2.083-.532-.027-1.92,2.833v.108Zm2.459.127-1.706-.088-.329,6.188-1.411.845-.291,5.468,1.462-2.036,4.738.249-2.866-2.966ZM78.275,245.6l-.056-.058-3.573,3.117-.09,1.713,1.845.1,1.69-1.418Z" transform="translate(-28.161 -96.966)" fill="#fff"/><path d="M79.811,232.856l5.511.289-.066,1.01c-.041.628-.093,1.289-.129,1.737l2.153,1.683,3.5.183-.147,2.669-4.991,3.094-1.1-.058-.222,4.241L79.3,242.512Zm3.378,2.179-1.487-.078-.361,6.791,1.217,1.259.086-1.647,2.473.13,3.014-1.869-1.586-.083-3.5-2.738.048-.541C83.09,236.252,83.137,235.713,83.189,235.036Z" transform="translate(-32.305 -97.112)" fill="#fff"/><path d="M83.8,253.487l8.371.432,3.408,6.34L84.615,271.725l-1.762-6.279-5.9-.3,6.585-6.568Zm7.142,2.371-5.251-.271-.205,3.859-3.939,3.929,2.84.147,1.2,4.287,7.54-7.882Z" transform="translate(-31.89 -105.124)" fill="#fff"/><path d="M94.71,229.641l7.724.4-.409,7.669L95.7,241.617l-.407,5.047-8.782-.453.294-5.536,3.725-2.309-1.59-.083-3.5-2.743.048-.54c0-.012.1-1.174.171-2.231l.064-.985,6.334.327Zm5.621,2.293-4.88-.252-2.66,2.468-5.213-.269c-.021.28-.042.539-.059.751l2.153,1.686,3.493.183-.14,2.669-4.282,2.654-.133,2.493,4.841.25.332-4.119,6.3-3.891Z" transform="translate(-34.697 -95.851)" fill="#fff"/><path d="M75.671,269.4l5.535.286,4.384,15.634-7.15,7.313-4.005-.21.244-4.584L70,287.6l.7-13.235Zm4,2.209-3.214-.166-3.8,3.789L72.1,285.7l1.153.06.269-5.046,3.53.186-.513,9.629,1.1.058,5.711-5.841Z" transform="translate(-28.704 -111.295)" fill="#fff"/><path d="M107.169,239.388l-.113,2.1,4.844.25,2.721,2.073-.77,12.718-12.286-.634-3.2-5.96.436-5.379Zm4.01,4.318-6.228-.322.015-.285-4.257,2.63-.306,3.783,2.39,4.448,9.181.474.586-9.675Z" transform="translate(-39.709 -99.961)" fill="#fff"/><path d="M90.879,284.327l-3.174-11.316,9.965-10.42,12.2.63-.107,1.8Zm-.94-10.758,1.931,6.885,15.044-15.383-8.432-.435Z" transform="translate(-35.608 -108.65)" fill="#fff"/><path d="M3.957,296.052.749,294.6l.39-3.994,12.913-10.314,4.026,1.21-.185,3.529Zm-1.078-2.685.794.36,12.271-9.706L16,282.963l-1.518-.456L3.048,291.638Z" transform="translate(-1.814 -115.557)" fill="#fff"/><path d="M266.378,235.433l-.466,8.811,8.938.462-.611,11.493-3.2,2.313-4.161-.218.421-7.913-.13-.007-2.009,4.091-16.823-.8Zm6.368,11.167-8.938-.462.294-5.564-11.191,11.308,11.027.524,2.013-4.1,3.447.18-.421,7.914,1.458.076,1.857-1.341Z" transform="translate(-98.451 -98.703)" fill="#fff"/></g><g transform="translate(789.339 6320.741)"><text transform="translate(59.631 -17.883)" fill="#3f3f3f" font-size="14" font-family="NotoSansJP-Bold, Noto Sans JP" font-weight="700"><tspan x="0" y="16">中部地方</tspan></text><text transform="translate(57.631 -4.741)" fill="#ef671f" font-size="40" font-family="Montserrat-MediumItalic, Montserrat" font-weight="500" font-style="italic"><tspan x="0" y="39">11</tspan><tspan y="39" font-size="28">%</tspan></text><path d="M309.629,194.816H244.785l-.3-.4-55-73.723,1.6-1.2,54.7,73.321h63.841Z" transform="translate(-194.652 -152.727)" fill="#ef671f"/><circle cx="4" cy="4" r="4" transform="translate(-6.745 -34.883)" fill="#3f3f3f"/></g><g transform="translate(607.089 6119.821)"><text transform="translate(51.411 33.572)" fill="#3f3f3f" font-size="14" font-family="NotoSansJP-Bold, Noto Sans JP" font-weight="700"><tspan x="0" y="16">関東地方</tspan></text><text transform="translate(113.411 3.572)" fill="#ef671f" font-size="48" font-family="Montserrat-MediumItalic, Montserrat" font-weight="500" font-style="italic"><tspan x="0" y="46">49</tspan><tspan y="46" font-size="28">%</tspan></text><path d="M433.271,182.06,425.852,68.195H277.429v-2h150.3l7.54,115.735Z" transform="translate(-225.866 -10.257)" fill="#ef671f"/><circle cx="4" cy="4" r="4" transform="translate(205 168.518)" fill="#3f3f3f"/></g><g transform="translate(619.744 6204.521)"><text transform="translate(1.256 20.479)" fill="#3f3f3f" font-size="14" font-family="NotoSansJP-Bold, Noto Sans JP" font-weight="700"><tspan x="0" y="16">近畿地方</tspan></text><text transform="translate(59.256 -5.521)" fill="#ef671f" font-size="44" font-family="Montserrat-MediumItalic, Montserrat" font-weight="500" font-style="italic"><tspan x="0" y="43">17</tspan><tspan y="43" font-size="28">%</tspan></text><path d="M328.943,146.113,319.9,101.307H190.652v-2H321.535l9.369,46.41Z" transform="translate(-190.652 -55.37)" fill="#ef671f"/><circle cx="4" cy="4" r="4" transform="translate(134.878 87.047)" fill="#3f3f3f"/></g></g></svg>