<svg xmlns="http://www.w3.org/2000/svg" xmlns:xlink="http://www.w3.org/1999/xlink" width="295" height="360" viewBox="0 0 295 360"><defs><clipPath id="a"><rect width="295" height="360" transform="translate(616 6129)" fill="#fff" stroke="#707070" stroke-width="1"/></clipPath></defs><g transform="translate(-616 -6129)" clip-path="url(#a)"><g transform="translate(622 6350.799)"><ellipse cx="43" cy="42.5" rx="43" ry="42.5" transform="translate(0 0.201)" fill="#fff"/><path d="M43,1A42.12,42.12,0,0,0,13.3,13.159a41.339,41.339,0,0,0-9,13.191,41.183,41.183,0,0,0,0,32.3,41.339,41.339,0,0,0,9,13.191,42.441,42.441,0,0,0,46.054,8.9,41.893,41.893,0,0,0,13.351-8.9,41.339,41.339,0,0,0,9-13.191,41.183,41.183,0,0,0,0-32.3,41.339,41.339,0,0,0-9-13.191A42.12,42.12,0,0,0,43,1m0-1C66.748,0,86,19.028,86,42.5S66.748,85,43,85,0,65.972,0,42.5,19.252,0,43,0Z" transform="translate(0 0.201)" fill="#ef671f"/><text transform="translate(11 47.201)" fill="#ef671f" font-size="13" font-family="NotoSansJP-Bold, Noto Sans JP" font-weight="700"><tspan x="0" y="0">アルバイト</tspan></text></g><g transform="translate(804.484 6365.261)"><circle cx="51" cy="51" r="51" transform="translate(-0.484 -0.262)" fill="#fff"/><path d="M51,1A50.013,50.013,0,0,0,31.538,97.071,50.013,50.013,0,0,0,70.462,4.929,49.686,49.686,0,0,0,51,1m0-1A51,51,0,1,1,0,51,51,51,0,0,1,51,0Z" transform="translate(-0.484 -0.262)" fill="#ef671f"/><text transform="translate(26.516 56.738)" fill="#ef671f" font-size="16" font-family="NotoSansJP-Bold, Noto Sans JP" font-weight="700"><tspan x="0" y="0">正社員</tspan></text></g><g transform="translate(719.722 6415.546)"><circle cx="33" cy="33" r="33" transform="translate(0.278 0.453)" fill="#fff"/><path d="M33,1A32.009,32.009,0,0,0,20.544,62.486,32.009,32.009,0,0,0,45.456,3.514,31.8,31.8,0,0,0,33,1m0-1A33,33,0,1,1,0,33,33,33,0,0,1,33,0Z" transform="translate(0.278 0.453)" fill="#ef671f"/><text transform="translate(11.278 37.453)" fill="#ef671f" font-size="11" font-family="NotoSansJP-Bold, Noto Sans JP" font-weight="700"><tspan x="0" y="0">派遣社員</tspan></text></g><g transform="translate(11 -52)"><g transform="translate(-22 -6)"><g transform="translate(0 -51)"><g transform="translate(0 -54.149)"><g transform="translate(874 6300.454)"><rect width="8" height="113.696" fill="#fff3ed"/><rect width="8" height="12.149" transform="translate(0 101.547)" fill="#ffc3a3"/></g><g transform="translate(822 6300.454)"><rect width="8" height="113.696" fill="#fff3ed"/><rect width="8" height="17.009" transform="translate(0 96.688)" fill="#ffd789"/></g><g transform="translate(770 6300.454)"><rect width="8" height="113.696" fill="#fff3ed"/><rect width="8" height="26.728" transform="translate(0 86.968)" fill="#ffa780"/></g><g transform="translate(718 6300.454)"><rect width="8" height="113.696" fill="#fff3ed"/><rect width="8" height="87.474" transform="translate(0 26.222)" fill="#f7982e"/></g><g transform="translate(665 6300.454)"><rect width="9" height="113.696" fill="#fff3ed"/><rect width="9" height="89.903" transform="translate(0 23.793)" fill="#ef671f"/></g></g><rect width="217" height="1" transform="translate(665 6360)" fill="#ffc3a3"/></g><g transform="translate(64 -1670.079)"><text transform="translate(598 7986.079)" fill="#ef671f" font-size="14" font-family="NotoSansJP-Bold, Noto Sans JP" font-weight="700"><tspan x="0" y="16">正</tspan><tspan x="0" y="33">社</tspan><tspan x="0" y="50">員</tspan></text><text transform="translate(659 7986.079)" fill="#ef671f" font-size="14" font-family="NotoSansJP-Bold, Noto Sans JP" font-weight="700"><tspan x="1" y="16">パ </tspan><tspan x="8" y="33"> </tspan><tspan x="1" y="50">ト</tspan><tspan x="1" y="67">・</tspan></text><text transform="translate(641 7986.079)" fill="#ef671f" font-size="14" font-family="NotoSansJP-Bold, Noto Sans JP" font-weight="700"><tspan x="0" y="16">ア</tspan><tspan x="0" y="33">ル</tspan><tspan x="0" y="50">バ</tspan><tspan x="0" y="67">イ</tspan><tspan x="0" y="84">ト</tspan></text><text transform="translate(703 7986.079)" fill="#ef671f" font-size="14" font-family="NotoSansJP-Bold, Noto Sans JP" font-weight="700"><tspan x="0" y="16">派</tspan><tspan x="0" y="33">遣</tspan><tspan x="0" y="50">社</tspan><tspan x="0" y="67">員</tspan></text><text transform="translate(755 7986.079)" fill="#ef671f" font-size="14" font-family="NotoSansJP-Bold, Noto Sans JP" font-weight="700"><tspan x="0" y="16">契</tspan><tspan x="0" y="33">約</tspan><tspan x="0" y="50">社</tspan><tspan x="0" y="67">員</tspan></text><text transform="translate(806 7986.079)" fill="#ef671f" font-size="14" font-family="NotoSansJP-Bold, Noto Sans JP" font-weight="700"><tspan x="0" y="16">業</tspan><tspan x="0" y="33">務</tspan><tspan x="0" y="50">委</tspan><tspan x="0" y="67">託</tspan></text></g></g><rect width="2" height="11" transform="translate(708 6332)" fill="#ef671f"/></g></g></svg>