<svg xmlns="http://www.w3.org/2000/svg" width="177.03" height="34.831" viewBox="0 0 177.03 34.831">
  <defs>
    <style>
      .cls-1 {
        fill: #ef671f;
      }

      .cls-2 {
        fill: #3f3f3f;
      }
    </style>
  </defs>
  <g id="stanby_logo" transform="translate(-0.043)">
    <path id="パス_49" data-name="パス 49" class="cls-1" d="M61.333,87.266a2.5,2.5,0,0,1-1.919-4.616l16.77-6.95a5,5,0,0,1-2.714,6.535L61.333,87.266Z" transform="translate(-47.83 -62.615)"/>
    <path id="パス_50" data-name="パス 50" class="cls-1" d="M31.068,6.534A5,5,0,0,0,33.782,0L7.763,10.769A12.514,12.514,0,1,0,22.493,29.94,2.5,2.5,0,0,0,18.517,26.9,7.509,7.509,0,0,1,6.6,17.753a7.408,7.408,0,0,1,3.077-2.368L31.068,6.534Z"/>
    <g id="グループ_712" data-name="グループ 712" transform="translate(37.295 9.435)">
      <path id="パス_51" data-name="パス 51" class="cls-2" d="M578.9,54.717a1.286,1.286,0,0,0-.916.467l-2.438,3.354c-.19.259-.086.467.242.467h9.439a1.286,1.286,0,0,0,.916-.467l2.455-3.371c.19-.259.086-.467-.242-.467H578.9Zm34.94,0a1.286,1.286,0,0,0-.916.467L596.967,77.14c-.19.259-.086.467.242.467h4.167a1.286,1.286,0,0,0,.916-.467l15.957-21.956c.19-.259.086-.467-.242-.467Zm34.681,0a1.286,1.286,0,0,0-.916.467L631.648,77.14c-.19.259-.086.467.242.467h4.167a1.286,1.286,0,0,0,.916-.467L652.93,55.184c.19-.259.086-.467-.242-.467Zm-24.238,22.3a.576.576,0,0,1-.571.571H620.2a.576.576,0,0,1-.57-.571V63.9a.576.576,0,0,1,.57-.571h3.509a.576.576,0,0,1,.571.571V77.019Zm3.579-17.167a.576.576,0,0,1-.57.571h-2.438a.576.576,0,0,1-.57-.571V55.288a.576.576,0,0,1,.57-.571h2.438a.576.576,0,0,1,.57.571Zm5.723,0a.576.576,0,0,1-.571.571h-2.42a.576.576,0,0,1-.57-.571V55.288a.576.576,0,0,1,.57-.571h2.42a.576.576,0,0,1,.571.571v4.564Z" transform="translate(-513.247 -54.683)"/>
      <path id="パス_52" data-name="パス 52" class="cls-2" d="M351.3,76.937a.576.576,0,0,1-.57.571h-3.51a.576.576,0,0,1-.57-.571V66.667a.576.576,0,0,1,.57-.571h3.51a.576.576,0,0,1,.57.571V76.937Zm-67.39.571H274.4c-.311,0-.415-.207-.242-.467l2.438-3.371a1.255,1.255,0,0,1,.916-.467h6.4a7.121,7.121,0,0,0,5.792-2.956l4.789-6.6a1.255,1.255,0,0,1,.916-.467h4.149c.311,0,.415.207.242.467l-6.621,9.128a11.415,11.415,0,0,1-9.267,4.737Zm-50.9-13.157a.754.754,0,0,0-.052.882l8.575,11.808c.19.259.086.467-.242.467h-4.581a1.286,1.286,0,0,1-.916-.467l-6.345-8.748-7.918,8.783a1.515,1.515,0,0,1-.951.432h-4.633c-.311,0-.4-.19-.19-.432L232.114,58.9H218.577c-.311,0-.415-.207-.242-.467l2.438-3.371a1.255,1.255,0,0,1,.916-.467h17.634a1.062,1.062,0,0,1,.726.277,1.087,1.087,0,0,1,.086,1.521l-7.123,7.953ZM258.5,77.04a1.255,1.255,0,0,1-.916.467h-4.167c-.311,0-.415-.207-.242-.467l6.414-8.834h-5.619c-.311,0-.415-.207-.242-.467l2.438-3.371a1.255,1.255,0,0,1,.916-.467h5.048a1.286,1.286,0,0,0,.916-.467l3.319-4.512h-9.8a1.219,1.219,0,0,0-.9.467l-6.6,9.076a1.25,1.25,0,0,1-.9.467h-4.167c-.311,0-.415-.207-.242-.467l9.716-13.381a1.255,1.255,0,0,1,.916-.467H272.69a1.036,1.036,0,0,1,.622.207,1.077,1.077,0,0,1,.242,1.5L258.5,77.04Z" transform="translate(-215.646 -54.6)"/>
    </g>
  </g>
</svg>
