<svg xmlns="http://www.w3.org/2000/svg" xmlns:xlink="http://www.w3.org/1999/xlink" width="608" height="220" viewBox="0 0 608 220"><defs><clipPath id="a"><rect width="608" height="220" transform="translate(616 6129)" fill="#fff" stroke="#707070" stroke-width="1"/></clipPath></defs><g transform="translate(-616 -6129)" clip-path="url(#a)"><g transform="translate(751.739 6131.393)"><path d="M223.464,217.95l9.419-1.95-.386,7.287,5.178.267.879-16.545-8.529-.44-.258,4.857-10.048-.519-.318,5.92Z" transform="translate(-60.746 -63.415)" fill="#bdbebf"/><path d="M290.937,216.641l-.56,10.524,16.345.844.808-15.18-12.386-.639Z" transform="translate(-79.97 -64.938)" fill="#bdbebf"/><path d="M274.617,204.3l-.4,7.436-.141,2.683-12.03,11.76-.485,9.106,4.872.252,10.394-11.64,5.787.3.56-10.524,4.207-4.452.228-4.249Z" transform="translate(-72.167 -62.802)" fill="#bdbebf"/><path d="M297.371,194.18l-17.745-.915-.377,7.083,12.995.67-.222,4.25,12.386.639.475-8.906,7.249-6.118.632-11.951Z" transform="translate(-76.956 -55.93)" fill="#bdbebf"/><path d="M174.116,203.446l-.372,6.981-2.61,3.062-.19,3.641,19.8,1.022.733-13.81Z" transform="translate(-47.622 -62.57)" fill="#bdbebf"/><path d="M368.226,133.008l1.253-23.478-14.216-.734-.345,6.481,8.935.456-.149,2.834-12.793-.661.313-5.869-6.7-.346-.313,5.87-5.281-.273-.757,14.168,15.434.8Z" transform="translate(-92.916 -36.934)" fill="#bdbebf"/><path d="M337.841,136.1l15.434.8-1.444,27.12-15.434-.8Z" transform="translate(-92.435 -44.331)" fill="#bdbebf"/><path d="M234.049,217.06l-9.418,1.95-1.269,23.831,8.42-9,1.371.071.51-9.562Z" transform="translate(-61.82 -66.257)" fill="#bdbebf"/><path d="M338.386,190.5l10.292-19.968-15.433-.8-.2-.01-8.167,8.093-.637,11.951Z" transform="translate(-89.142 -53.438)" fill="#bdbebf"/><path d="M313.6,213.066l15.635.806-.808,15.18-15.635-.806Z" transform="translate(-86.041 -65.175)" fill="#bdbebf"/><path d="M209.942,247.55l-.265,4.976-3.49,2.407L206,258.573l1.947,2.155,1.78-.44,8.811-7.762.429-8.045-5.178-.268Z" transform="translate(-57.116 -73.611)" fill="#bdbebf"/><path d="M290.282,231.237l16.346.844-.464,8.7-16.345-.844Z" transform="translate(-79.819 -70.097)" fill="#bdbebf"/><path d="M250.5,213.007l-.079,1.519-3.45,3.094-4.187-.219-.359,6.756-5.179-.267-.509,9.566,2.284.12,5.025.259,3.191,3.209,7.615.392.484-9.107,12.027-11.76.141-2.683Z" transform="translate(-65.443 -65.159)" fill="#bdbebf"/><path d="M264.054,196.785l-8.463,11.383-.143,2.733,17.005.877.772-14.52Z" transform="translate(-70.51 -60.766)" fill="#bdbebf"/><path d="M289.738,242.143l-.366,6.881,13.412.692,3.132-3.594.164-3.135Z" transform="translate(-79.698 -73.051)" fill="#bdbebf"/><path d="M288.9,257.77l10.659.55.207-3.947,2.929-3.095-13.413-.692Z" transform="translate(-79.57 -75.337)" fill="#bdbebf"/><path d="M280.442,230.077l-5.2,5.82-.506,9.513,10.66.548.367-6.88.463-8.7Z" transform="translate(-75.735 -69.783)" fill="#bdbebf"/><path d="M207.861,247.692l3.682-3.193.638-11.987-6.209-6.705-.783,14.713-5.871,7.763,7.423.383Z" transform="translate(-55.307 -68.626)" fill="#bdbebf"/><path d="M143.88,247.457,134.87,259.9l-.279,5.243,7.157.369,4.765-6.754,10.455.54,1.982,4.364,4.031-3.063-6.815-12.506Z" transform="translate(-37.776 -74.49)" fill="#bdbebf"/><path d="M179.43,244.751l-12.49-.645-.152,2.885-2.691-.141-.271,5.115,17.919.925.029-.558Z" transform="translate(-45.695 -73.582)" fill="#bdbebf"/><path d="M92.4,240.493l-3.35-.176-3.371-2.634s.123-1.4.207-2.691l-2.5-.131-1.676-.088-.522,9.8,3.716,3.846.184-3.509,2.131.112,5.1-3.165Z" transform="translate(-23.312 -71.055)" fill="#ffd8c3"/><path d="M86.39,260.728l-6.274,6.258,5.213.268,1.767,6.3L98.129,262.02l-3.335-6.2-8.12-.419Z" transform="translate(-23.022 -76.64)" fill="#ffd8c3"/><path d="M104.724,239.243l.391-7.327-7.512-.388-3.172,2.943-6.879-.354c-.084,1.289-.207,2.687-.207,2.687l3.371,2.64,3.35.175-.072,1.369-5.1,3.164-.254,4.786,8.121.419.44-5.464Z" transform="translate(-24.98 -70.175)" fill="#ffd8c3"/><path d="M84.876,277.86l-1.767-6.3-5.215-.268-5.227,5.214-.752,14.13,3.756.2.32-6.016,1.827.1-.611,11.48,3.045.16,7.666-7.841Z" transform="translate(-20.801 -80.945)" fill="#ffd8c3"/><path d="M114.743,243.868l-6.6-.341.076-1.423-7.528,4.649-.443,5.462,3.334,6.2,12.8.661.808-13.349Z" transform="translate(-28.475 -73.04)" fill="#ffd8c3"/><path d="M89.69,276.016l3.043,10.85,20.756-21.224.03-.5-12.8-.661Z" transform="translate(-25.615 -79.1)" fill="#ffd8c3"/><path d="M3.01,293.849l-.333,3.41,2.385,1.083,15.622-12.357.143-2.734-3.3-.994Z" transform="translate(-2.048 -83.916)" fill="#ffd8c3"/><path d="M268.464,247.439l.453-8.568-5.165,5.218L251.489,256.48l16.6.788,2.334-4.752.063-.129,2.132.112-.5,9.435,3.35.175,3.017-2.178.291-5.47.344-6.471Z" transform="translate(-69.438 -72.164)" fill="#ffd8c3"/><path d="M424.366,57.912l.329-5.433,5.381-2.639.352-6.609L425.1,45.848l0-.052-8.245-.426L395.483,11.223l-19.034-.982L375.319,31.45,368.743,37.4l-.532,9.981-17.817-.919-.4,7.588-9.221,6.858-1.078,20.237,12.182.628.284-5.332,5.938.306.338-6.289-5.937-.306.385-7.247,7.817.4-.344,6.472,8.16-6.071,1.734.091,14,17.86,15.823-16.322,23.762,1.226,8.067-4.25.21-4Z" transform="translate(-93.327 -10.241)" fill="#ffd8c3"/><path d="M351.874,82.276h-.026l-12.182-.628a.5.5,0,0,1-.474-.526l1.078-20.237a.5.5,0,0,1,.2-.375l9.033-6.718.391-7.354a.5.5,0,0,1,.525-.473l17.318.893.505-9.483a.5.5,0,0,1,.164-.344l6.423-5.814,1.119-21a.5.5,0,0,1,.525-.473l19.034.982a.5.5,0,0,1,.4.234l21.236,33.926,7.95.41,5.116-2.511a.5.5,0,0,1,.72.475l-.352,6.609a.5.5,0,0,1-.279.422l-5.12,2.51-.281,4.639,7.243.374a.5.5,0,0,1,.474.526l-.21,4a.5.5,0,0,1-.266.416l-8.067,4.25a.5.5,0,0,1-.259.057l-23.535-1.214L384.61,82.012a.5.5,0,0,1-.752-.04L370,64.291l-1.327-.07-8.015,5.963a.5.5,0,0,1-.8-.428l.318-5.972-6.819-.352-.332,6.248,5.437.28a.5.5,0,0,1,.474.526l-.338,6.289a.5.5,0,0,1-.525.472l-5.439-.28-.257,4.833A.5.5,0,0,1,351.874,82.276Zm-11.656-1.6,11.183.576.257-4.833a.5.5,0,0,1,.525-.473l5.439.28.285-5.291-5.436-.28a.5.5,0,0,1-.474-.526l.385-7.247a.5.5,0,0,1,.525-.473l7.817.4a.5.5,0,0,1,.474.526l-.288,5.409,7.306-5.435a.5.5,0,0,1,.325-.1l1.734.091a.5.5,0,0,1,.367.191L384.291,80.9l15.424-15.911a.5.5,0,0,1,.385-.151l23.624,1.218,7.694-4.054.169-3.221-7.247-.374a.5.5,0,0,1-.473-.53l.329-5.433a.5.5,0,0,1,.279-.419l5.118-2.509.291-5.465L425.32,46.3a.5.5,0,0,1-.466-.013l-8.023-.414a.5.5,0,0,1-.4-.234L395.2,11.709l-18.275-.943-1.1,20.711a.5.5,0,0,1-.164.344l-6.423,5.814-.521,9.775a.5.5,0,0,1-.525.473l-17.318-.893-.377,7.09a.5.5,0,0,1-.2.375l-9.033,6.718Z" transform="translate(-93.327 -10.241)" fill="#fff"/><path d="M222.6,217.509l9.4-1.71-.344,6.565,5.178.267.792-14.9-8.529-.44-.233,4.374-10.049-.518-.285,5.332Z" transform="translate(-60.51 -63.61)" fill="#ffa780"/><path d="M236.832,223.131h-.026l-5.178-.267a.5.5,0,0,1-.474-.525l.311-5.933-8.781,1.6a.5.5,0,0,1-.24-.015l-4.04-1.026a.5.5,0,0,1-.376-.511l.285-5.332a.5.5,0,0,1,.525-.473l9.551.493.206-3.876a.5.5,0,0,1,.525-.473l8.529.44a.5.5,0,0,1,.474.526l-.792,14.9A.5.5,0,0,1,236.832,223.131Zm-4.653-1.24,4.179.215.739-13.9-7.53-.388-.206,3.876a.5.5,0,0,1-.525.473l-9.551-.493-.237,4.423,3.565.906,9.294-1.69a.5.5,0,0,1,.589.518Z" transform="translate(-60.51 -63.61)" fill="#fff"/><path d="M290.048,216.774l-.505,9.481,16.345.843.728-13.675-12.386-.639Z" transform="translate(-79.744 -65.099)" fill="#ef671f"/><path d="M294.23,212.284h.026l12.386.639a.5.5,0,0,1,.474.526l-.728,13.675a.5.5,0,0,1-.525.473l-16.345-.843a.5.5,0,0,1-.474-.526l.505-9.481a.5.5,0,0,1,.154-.335l4.182-3.99A.5.5,0,0,1,294.23,212.284Zm11.86,1.612-11.671-.6-3.882,3.7-.468,8.783,15.346.791Z" transform="translate(-79.744 -65.099)" fill="#fff"/><path d="M273.642,206.615l-.357,6.7-.127,2.417L261.2,226.264l-.437,8.2,4.871.252,10.331-10.436,5.787.3.5-9.479,4.182-3.99.2-3.828Z" transform="translate(-71.948 -63.428)" fill="#ffa780"/><path d="M273.642,206.115h.026l12.994.67a.5.5,0,0,1,.474.526l-.2,3.828a.5.5,0,0,1-.154.335l-4.038,3.853-.494,9.281a.5.5,0,0,1-.525.473l-5.563-.287-10.174,10.277a.5.5,0,0,1-.381.148l-4.871-.252a.5.5,0,0,1-.474-.526l.437-8.2a.5.5,0,0,1,.169-.349l11.805-10.394.116-2.207.357-6.7A.5.5,0,0,1,273.642,206.115Zm12.469,1.644-12-.619-.457,8.617a.5.5,0,0,1-.169.349L261.684,226.5l-.4,7.494,4.148.214,10.174-10.277a.5.5,0,0,1,.381-.148l5.288.273.478-8.981a.5.5,0,0,1,.154-.335l4.038-3.853Z" transform="translate(-71.948 -63.428)" fill="#fff"/><path d="M296.513,194.053l-17.743-.915-.341,6.38,12.994.67-.2,3.827,12.385.639.424-8.023,7.214-5.474.573-10.765Z" transform="translate(-76.734 -56.326)" fill="#ffa780"/><path d="M303.609,205.154h-.026l-12.385-.639a.5.5,0,0,1-.474-.525l.174-3.328-12.495-.644a.5.5,0,0,1-.474-.526l.341-6.38a.5.5,0,0,1,.525-.473l17.538.9,15.154-13.524a.5.5,0,0,1,.832.4l-.573,10.765a.5.5,0,0,1-.2.372l-7.03,5.334-.412,7.791A.5.5,0,0,1,303.609,205.154Zm-11.86-1.612,11.387.587.4-7.524a.5.5,0,0,1,.2-.372l7.03-5.334.5-9.334-14.411,12.861a.5.5,0,0,1-.359.126l-17.245-.889-.287,5.382,12.494.644a.5.5,0,0,1,.474.525Z" transform="translate(-76.734 -56.326)" fill="#fff"/><path d="M136.284,220.652l5.265-4.251,4.873.252,5.585-4.511,8.066.413,2.589-2.747.338-6.288-19.035-.982-10.859,8.076-.158-.008-.524,9.846Z" transform="translate(-37.19 -62.324)" fill="#ffd8c3"/><path d="M136.284,221.152h-.026l-3.859-.2a.5.5,0,0,1-.474-.526l.524-9.846a.5.5,0,0,1,.5-.473l10.716-7.969a.5.5,0,0,1,.324-.1l19.035.982a.5.5,0,0,1,.474.526l-.338,6.288a.5.5,0,0,1-.135.316l-2.589,2.747a.5.5,0,0,1-.389.156l-7.875-.4-5.437,4.391a.5.5,0,0,1-.34.11l-4.682-.242-5.116,4.131A.5.5,0,0,1,136.284,221.152Zm-3.333-1.173,3.168.163,5.116-4.131a.5.5,0,0,1,.34-.11l4.682.242,5.436-4.391a.5.5,0,0,1,.34-.11l7.835.4,2.305-2.445.3-5.6-18.354-.947L133.429,211Z" transform="translate(-37.19 -62.324)" fill="#fff"/><path d="M213.691,227.591l-.575,10.8.159-.125,5.177.268,1.143-21.467-4.068-1.033.284-5.332.247-4.648-7.766-.4-.844,15.871Z" transform="translate(-57.51 -63.167)" fill="#f7982e"/><path d="M218.453,239.032h-.026l-4.99-.258-.012.009a.5.5,0,0,1-.808-.42l.563-10.571L207.1,221.88a.5.5,0,0,1-.151-.385l.844-15.871a.5.5,0,0,1,.525-.473l7.766.4a.5.5,0,0,1,.474.526l-.509,9.57,3.67.932a.5.5,0,0,1,.376.511l-1.143,21.467A.5.5,0,0,1,218.453,239.032Zm-4.8-1.249,4.33.224,1.095-20.558-3.67-.932a.5.5,0,0,1-.376-.511l.5-9.48-6.767-.349-.806,15.146,6.079,5.911a.5.5,0,0,1,.151.385Z" transform="translate(-57.51 -63.167)" fill="#fff"/><path d="M173.207,203.883l-.335,6.288-2.592,2.744-.171,3.282,19.8,1.022.664-12.44Z" transform="translate(-47.396 -62.688)" fill="#ffd8c3"/><path d="M173.207,203.383h.026l17.36.9a.5.5,0,0,1,.474.526l-.664,12.44a.5.5,0,0,1-.525.473l-19.8-1.022a.5.5,0,0,1-.474-.525l.171-3.282a.5.5,0,0,1,.136-.317l2.466-2.61.325-6.1A.5.5,0,0,1,173.207,203.383Zm16.835,1.869-16.362-.844-.308,5.79a.5.5,0,0,1-.136.317l-2.466,2.61-.136,2.6,18.8.97Z" transform="translate(-47.396 -62.688)" fill="#fff"/><path d="M367.47,130.959l1.126-21.148-14.213-.734-.311,5.835,8.935.461-.133,2.553-12.792-.66.281-5.287-6.7-.345-.281,5.286-5.28-.272-.682,12.761,15.432.8Z" transform="translate(-92.712 -37.01)" fill="#ffd8c3"/><path d="M367.47,131.459h-.026l-30.05-1.55a.5.5,0,0,1-.474-.526l.682-12.761a.5.5,0,0,1,.525-.473l4.781.246.255-4.788a.5.5,0,0,1,.525-.473l6.7.345a.5.5,0,0,1,.474.526l-.255,4.787,11.793.608.081-1.554-8.435-.435a.5.5,0,0,1-.474-.526l.311-5.835a.5.5,0,0,1,.525-.473l14.213.734a.5.5,0,0,1,.474.526l-1.126,21.148A.5.5,0,0,1,367.47,131.459Zm-29.524-2.524,29.051,1.5,1.073-20.15-13.214-.682-.258,4.836,8.435.435a.5.5,0,0,1,.474.525l-.133,2.553a.5.5,0,0,1-.525.473l-12.792-.66a.5.5,0,0,1-.474-.526l.255-4.787-5.7-.293-.255,4.788a.5.5,0,0,1-.525.473l-4.781-.246Z" transform="translate(-92.712 -37.01)" fill="#fff"/><path d="M336.939,136.956l15.432.8-1.3,24.429-15.433-.8Z" transform="translate(-92.229 -44.561)" fill="#ffd8c3"/><path d="M336.466,136.431l16.43.848-1.353,25.427-16.431-.849Zm15.379,1.795-14.433-.745-1.248,23.43,14.434.745Z" transform="translate(-92.229 -44.561)" fill="#fff"/><path d="M233.09,218.958l-9.405,1.71-1.143,21.468,8.369-8.07,1.372.072.459-8.614Z" transform="translate(-61.597 -66.771)" fill="#f7982e"/><path d="M233.09,218.458a.5.5,0,0,1,.5.527l-.808,15.18a.5.5,0,0,1-.526.473l-1.155-.061-8.213,7.919a.5.5,0,0,1-.846-.387l1.143-21.468a.5.5,0,0,1,.41-.465l9.405-1.71A.5.5,0,0,1,233.09,218.458Zm-1.281,15.154.748-14.049-8.394,1.526-1.055,19.805,7.455-7.189a.5.5,0,0,1,.373-.139Z" transform="translate(-61.597 -66.771)" fill="#fff"/><path d="M130.991,223.416l-3.859-.2.526-9.843-11.979-.618-2.321,3.447-.466,8.75,1.928,3.939,6.7.345,4.016,4.869,4.873.252,2.764-3.148-2.451-2.731Z" transform="translate(-31.899 -65.09)" fill="#ffd8c3"/><path d="M115.679,212.253h.026l11.979.618a.5.5,0,0,1,.474.526l-.5,9.343,3.36.176a.5.5,0,0,1,.473.526l-.259,4.852,2.313,2.577a.5.5,0,0,1,0,.664l-2.764,3.148a.5.5,0,0,1-.4.169l-4.873-.252a.5.5,0,0,1-.36-.181l-3.876-4.7-6.48-.334a.5.5,0,0,1-.423-.28l-1.928-3.939a.5.5,0,0,1-.05-.246l.466-8.75a.5.5,0,0,1,.085-.253l2.321-3.447A.5.5,0,0,1,115.679,212.253Zm11.453,1.592-11.2-.578-2.086,3.1-.452,8.482,1.741,3.558,6.405.33a.5.5,0,0,1,.36.181l3.876,4.7,4.411.228,2.311-2.633-2.154-2.4a.5.5,0,0,1-.127-.361l.243-4.559-3.36-.176a.5.5,0,0,1-.473-.526Z" transform="translate(-31.899 -65.09)" fill="#fff"/><path d="M337.582,189.194l10.183-17.939-15.433-.8-.2-.011L324.01,177.7l-.573,10.766Z" transform="translate(-88.924 -53.632)" fill="#ffd8c3"/><path d="M337.582,189.694h-.026l-14.145-.73a.5.5,0,0,1-.474-.526l.573-10.766a.5.5,0,0,1,.166-.346l8.121-7.251a.5.5,0,0,1,.36-.126l.2.011,15.432.8a.5.5,0,0,1,.409.746L338.017,189.44A.5.5,0,0,1,337.582,189.694Zm-13.619-1.7,13.336.688,9.631-16.967-14.621-.754-7.811,6.975Z" transform="translate(-88.924 -53.632)" fill="#fff"/><path d="M312.685,213.667l15.634.806-.728,13.673-15.634-.8Z" transform="translate(-85.815 -65.338)" fill="#ef671f"/><path d="M312.213,213.142l16.633.858-.782,14.672-16.633-.855Zm15.581,1.805-14.636-.755-.675,12.677,14.636.752Z" transform="translate(-85.815 -65.338)" fill="#fff"/><path d="M208.753,253.364l-.238,4.482L205.038,260l-.172,3.283,1.958,1.951,1.777-.39,8.769-6.95.385-7.246-5.178-.268Z" transform="translate(-56.81 -75.281)" fill="#f7982e"/><path d="M212.577,249.877h.026l5.178.268a.5.5,0,0,1,.473.526l-.385,7.246a.5.5,0,0,1-.189.365l-8.769,6.95a.5.5,0,0,1-.2.1l-1.777.39a.5.5,0,0,1-.46-.134l-1.958-1.951a.5.5,0,0,1-.146-.38l.172-3.283a.5.5,0,0,1,.236-.4l3.254-2.013.225-4.221a.5.5,0,0,1,.191-.367l3.824-2.987A.5.5,0,0,1,212.577,249.877Zm4.652,1.241-4.491-.232-3.5,2.732-.226,4.255a.5.5,0,0,1-.236.4l-3.254,2.013-.147,2.8,1.606,1.6,1.4-.307,8.5-6.738Z" transform="translate(-56.81 -75.281)" fill="#fff"/><path d="M289.388,231.261l16.344.843-.417,7.841-16.344-.843Z" transform="translate(-79.589 -70.103)" fill="#ef671f"/><path d="M288.915,230.736l17.343.894-.47,8.839-17.343-.894Zm16.291,1.842-15.345-.791-.364,6.842,15.345.791Z" transform="translate(-79.589 -70.103)" fill="#fff"/><path d="M252.975,182.163l-.3,5.652-6.259,13.2-1.868-.1-.47,8.82,4.187.219,3.431-2.77.072-1.368.128-2.461,8.4-10.213.3-4.92,8.526.44.3-5.656Z" transform="translate(-67.43 -56.805)" fill="#ffa780"/><path d="M252.975,181.663H253l16.446.848a.5.5,0,0,1,.474.526l-.3,5.656a.5.5,0,0,1-.525.473l-8.031-.414-.27,4.426a.5.5,0,0,1-.113.287l-8.294,10.086-.192,3.665a.5.5,0,0,1-.185.363l-3.431,2.77a.5.5,0,0,1-.34.11l-4.187-.219a.5.5,0,0,1-.473-.526l.47-8.82a.5.5,0,0,1,.525-.473l1.534.08,6.073-12.812.3-5.553A.5.5,0,0,1,252.975,181.663Zm15.92,1.822-15.447-.8-.277,5.153a.5.5,0,0,1-.047.187l-6.259,13.2a.5.5,0,0,1-.478.285l-1.369-.072-.416,7.821,3.5.183,3.108-2.51.189-3.606a.5.5,0,0,1,.113-.292l8.3-10.088.29-4.758a.5.5,0,0,1,.525-.469l8.028.414Z" transform="translate(-67.43 -56.805)" fill="#fff"/><path d="M249.548,214.6l-.072,1.369-3.431,2.77-4.187-.219-.324,6.088-5.178-.267-.459,8.614,2.284.12,5.025.259,3.207,2.908,7.614.392.435-8.2,11.963-10.535.128-2.416Z" transform="translate(-65.215 -65.591)" fill="#ffa780"/><path d="M249.548,214.1h.026l17,.878a.5.5,0,0,1,.474.526l-.128,2.416a.5.5,0,0,1-.169.349l-11.806,10.4-.423,7.994a.5.5,0,0,1-.525.473l-7.614-.392a.5.5,0,0,1-.31-.129L243,233.823l-7.131-.369a.5.5,0,0,1-.473-.526l.459-8.614a.5.5,0,0,1,.525-.473l4.679.241.3-5.59a.5.5,0,0,1,.525-.473l4,.209,3.108-2.51.06-1.146A.5.5,0,0,1,249.548,214.1Zm16.479,1.851-16.006-.826-.046.87a.5.5,0,0,1-.185.363l-3.431,2.77a.5.5,0,0,1-.34.11l-3.688-.193-.3,5.59a.5.5,0,0,1-.525.473l-4.679-.241-.405,7.615,1.784.093,5.024.259a.5.5,0,0,1,.31.129l3.075,2.788,6.937.357.408-7.705a.5.5,0,0,1,.169-.349l11.806-10.4Z" transform="translate(-65.215 -65.591)" fill="#fff"/><path d="M263.15,197.222l-8.4,10.213-.129,2.462,17,.877.7-13.078Z" transform="translate(-70.286 -60.884)" fill="#ffa780"/><path d="M263.15,196.722h.026l9.171.473a.5.5,0,0,1,.474.526l-.7,13.078a.5.5,0,0,1-.525.473l-17-.877a.5.5,0,0,1-.474-.526l.129-2.462a.5.5,0,0,1,.113-.291l8.4-10.213A.5.5,0,0,1,263.15,196.722Zm8.645,1.447-8.419-.434-8.135,9.891-.094,1.8,16.006.826Z" transform="translate(-70.286 -60.884)" fill="#fff"/><path d="M327.437,228.443l-15.634-.806-.418,7.837,9.747.5,3.409,7.915,18.323-28.368-14.7-.758Z" transform="translate(-85.66 -65.636)" fill="#ef671f"/><path d="M328.165,214.267h.026l14.7.758a.5.5,0,0,1,.394.771L324.96,244.164a.5.5,0,0,1-.879-.074l-3.286-7.629-9.436-.487a.5.5,0,0,1-.474-.526l.418-7.837a.5.5,0,0,1,.525-.473l15.135.78.7-13.178A.5.5,0,0,1,328.165,214.267Zm13.81,1.712-13.337-.687-.7,13.178a.5.5,0,0,1-.525.473l-15.135-.78L311.911,235l9.246.477a.5.5,0,0,1,.433.3l3.038,7.054Z" transform="translate(-85.66 -65.636)" fill="#fff"/><path d="M288.848,242.01l-.33,6.2,13.412.692,3.112-3.221.148-2.824Z" transform="translate(-79.467 -73.015)" fill="#ef671f"/><path d="M288.848,241.51h.026l16.342.844a.5.5,0,0,1,.474.526l-.148,2.824a.5.5,0,0,1-.14.321l-3.112,3.221a.5.5,0,0,1-.385.152l-13.412-.692a.5.5,0,0,1-.474-.526l.33-6.2A.5.5,0,0,1,288.848,241.51Zm15.817,1.817-15.344-.792-.277,5.2,12.685.654,2.824-2.923Z" transform="translate(-79.467 -73.015)" fill="#fff"/><path d="M318.915,243.673l-9.747-.5-.148,2.823-.341,6.427-5.308,6.856-.174,3.329,11.623.6,7.5-11.615Z" transform="translate(-83.442 -73.329)" fill="#ef671f"/><path d="M309.168,242.671h.026l9.747.5a.5.5,0,0,1,.434.3l3.405,7.918a.5.5,0,0,1-.039.469l-7.5,11.615a.5.5,0,0,1-.446.228l-11.623-.6a.5.5,0,0,1-.474-.526l.174-3.329a.5.5,0,0,1,.1-.28l5.213-6.733.481-9.094A.5.5,0,0,1,309.168,242.671Zm9.411,1.486-8.937-.461-.122,2.324-.341,6.427a.5.5,0,0,1-.1.28l-5.212,6.733-.14,2.673,10.834.559,7.2-11.148Z" transform="translate(-83.442 -73.329)" fill="#fff"/><path d="M288.046,256.985l10.658.551.187-3.555,2.911-2.774-13.411-.692Z" transform="translate(-79.339 -75.318)" fill="#ef671f"/><path d="M298.7,258.036h-.026l-10.658-.551a.5.5,0,0,1-.473-.526l.344-6.47a.5.5,0,0,1,.525-.473l13.411.692a.5.5,0,0,1,.319.861l-2.767,2.637-.176,3.356A.5.5,0,0,1,298.7,258.036Zm-10.133-1.525,9.659.5.161-3.056a.5.5,0,0,1,.154-.336l2.07-1.973-11.753-.606Z" transform="translate(-79.339 -75.318)" fill="#fff"/><path d="M279.522,230.85l-5.165,5.217-.456,8.57,10.66.55.33-6.2.417-7.841Z" transform="translate(-75.507 -69.992)" fill="#ffa780"/><path d="M279.522,230.35h.026l5.786.3a.5.5,0,0,1,.474.526l-.747,14.038a.5.5,0,0,1-.525.473l-10.66-.55a.5.5,0,0,1-.474-.526l.456-8.57a.5.5,0,0,1,.144-.325l5.165-5.217A.5.5,0,0,1,279.522,230.35Zm5.26,1.272-5.062-.261-4.874,4.923-.42,7.88,9.662.5Z" transform="translate(-75.507 -69.992)" fill="#fff"/><path d="M372.719,138.8l-14.617-.753-1.3,24.428,19.491,1.006,1.3-24.428Z" transform="translate(-97.961 -44.857)" fill="#ffd8c3"/><path d="M358.1,137.547h.026l19.491,1.006a.5.5,0,0,1,.473.526l-1.3,24.428a.5.5,0,0,1-.525.473l-19.491-1.006a.5.5,0,0,1-.474-.526l1.3-24.428A.5.5,0,0,1,358.1,137.547Zm18.966,1.979-4.374-.226-14.118-.728L357.328,162l18.492.954Z" transform="translate(-97.961 -44.857)" fill="#fff"/><path d="M334.745,195.888l-14.143-.73-7.216,5.474-.427,8.022,15.634.806,14.7.758.795-1.235,8.255-12.188Z" transform="translate(-86.086 -60.325)" fill="#ffd8c3"/><path d="M320.6,194.658h.026l31.739,1.637a.5.5,0,0,1,.388.78L344.5,209.258l-.792,1.23a.5.5,0,0,1-.446.229l-30.333-1.564a.5.5,0,0,1-.474-.526l.427-8.022a.5.5,0,0,1,.2-.372l7.216-5.474A.5.5,0,0,1,320.6,194.658Zm30.827,2.591-30.671-1.582-6.886,5.223-.388,7.29,29.543,1.523.638-.991.007-.01Z" transform="translate(-86.086 -60.325)" fill="#fff"/><path d="M342.835,189.491l17.6.908,12.079-17.841-19.491-1.006Z" transform="translate(-94.178 -53.931)" fill="#ffd8c3"/><path d="M360.43,190.9H360.4l-17.6-.908a.5.5,0,0,1-.409-.746l10.183-17.939a.5.5,0,0,1,.461-.253l19.491,1.006a.5.5,0,0,1,.388.78l-12.079,17.841A.5.5,0,0,1,360.43,190.9Zm-16.761-1.865,16.5.852L371.6,173.011l-18.3-.944Z" transform="translate(-94.178 -53.931)" fill="#fff"/><path d="M254.654,243.5l-7.614-.392-3.205-2.909-5.025-.259-.32,6.016-.276,5.193,2.589.136.143-2.735,2.437.128-.241,4.514-4.112-.215-.144,2.734,8.374.432,12.266-12.393Z" transform="translate(-65.842 -72.453)" fill="#ffa780"/><path d="M238.81,239.436h.026l5.025.259a.5.5,0,0,1,.31.129l3.073,2.789,12.308.634a.5.5,0,0,1,.33.851l-12.266,12.393a.5.5,0,0,1-.381.148l-8.374-.432a.5.5,0,0,1-.474-.526l.144-2.734a.5.5,0,0,1,.525-.473l3.613.189.187-3.516-1.438-.075-.117,2.236a.5.5,0,0,1-.525.473l-2.589-.136a.5.5,0,0,1-.473-.526l.6-11.209A.5.5,0,0,1,238.81,239.436Zm4.821,1.249-4.348-.224-.543,10.211,1.589.083.117-2.236a.5.5,0,0,1,.525-.473l2.437.128a.5.5,0,0,1,.473.526l-.241,4.514a.5.5,0,0,1-.525.473L239.5,253.5l-.091,1.735,7.651.4,11.323-11.44-11.371-.586a.5.5,0,0,1-.31-.129Z" transform="translate(-65.842 -72.453)" fill="#fff"/><path d="M161.409,216.114l-8.071-.416-5.588,4.511-4.873-.252-5.262,4.257-.269,5.056L139.8,232l20.71,1.068.728-13.672Z" transform="translate(-38.522 -65.888)" fill="#ffd8c3"/><path d="M153.338,215.2h.026l8.071.416a.5.5,0,0,1,.474.526l-.174,3.282-.728,13.672a.5.5,0,0,1-.525.473L139.77,232.5a.5.5,0,0,1-.346-.165l-2.45-2.73a.5.5,0,0,1-.127-.361l.269-5.056a.5.5,0,0,1,.185-.362l5.262-4.257a.5.5,0,0,1,.34-.111l4.682.242,5.439-4.39A.5.5,0,0,1,153.338,215.2Zm7.545,1.39-7.38-.381-5.439,4.39a.5.5,0,0,1-.34.11l-4.682-.242-4.94,4-.246,4.627,2.173,2.421,20,1.032Z" transform="translate(-38.522 -65.888)" fill="#fff"/><path d="M189.454,225.212l.179-3.418-19.794-1.022-.728,13.672,13.4.691.335-6.289Z" transform="translate(-47.126 -67.263)" fill="#ffd8c3"/><path d="M169.838,220.273h.026l19.794,1.022a.5.5,0,0,1,.474.525l-.179,3.418a.5.5,0,0,1-.258.412l-6.368,3.5-.32,6.011a.5.5,0,0,1-.525.473l-13.4-.691a.5.5,0,0,1-.474-.526l.728-13.672A.5.5,0,0,1,169.838,220.273Zm19.269,2-18.8-.97-.675,12.674,12.4.64.308-5.79a.5.5,0,0,1,.258-.412l6.367-3.5Z" transform="translate(-47.126 -67.263)" fill="#fff"/><path d="M207.025,247.145l3.665-2.862.575-10.8-6.241-6.069-.707,13.252-5.83,6.966,7.424.383Z" transform="translate(-55.082 -69.062)" fill="#f7982e"/><path d="M205.911,248.517h-.026l-7.424-.383a.5.5,0,0,1-.358-.82l5.723-6.838.7-13.085a.5.5,0,0,1,.848-.332l6.241,6.069a.5.5,0,0,1,.151.385l-.575,10.8a.5.5,0,0,1-.192.368l-4.778,3.734A.5.5,0,0,1,205.911,248.517Zm-6.4-1.331,6.236.322.967-.757,3.486-2.722.55-10.343-5.289-5.144-.648,12.152a.5.5,0,0,1-.116.294Z" transform="translate(-55.082 -69.062)" fill="#fff"/><path d="M195.272,205.111l-.662,12.444-.179,3.418-6.611,3.633-.335,6.288,5.483.283,3.19,3.179,5.177.272.706-13.252.846-15.873Z" transform="translate(-52.102 -63.021)" fill="#ffd8c3"/><path d="M195.271,204.611h.026l7.615.392a.5.5,0,0,1,.474.526l-1.552,29.125a.5.5,0,0,1-.526.473l-5.177-.272a.5.5,0,0,1-.327-.145l-3.054-3.044-5.291-.273a.5.5,0,0,1-.474-.526l.335-6.288a.5.5,0,0,1,.258-.412l6.367-3.5.164-3.14.662-12.445A.5.5,0,0,1,195.271,204.611Zm7.089,1.366-6.616-.341-.636,11.946L194.93,221a.5.5,0,0,1-.258.412l-6.368,3.5-.293,5.51,4.982.257a.5.5,0,0,1,.327.145l3.054,3.044,4.487.236Z" transform="translate(-52.102 -63.021)" fill="#fff"/><path d="M203.586,266.338l-1.958-1.952.172-3.282,3.472-2.154.244-4.479-1.115.871-7.423-.382-3.629,4.337-.429,8.067,5.684,5.092,3.35.176,3.194-2.615.213-4.064Z" transform="translate(-53.574 -76.39)" fill="#f7982e"/><path d="M201.953,273.133h-.026l-3.35-.176a.5.5,0,0,1-.307-.127l-5.684-5.092a.5.5,0,0,1-.166-.4l.429-8.067a.5.5,0,0,1,.116-.294l3.629-4.337a.5.5,0,0,1,.409-.178l7.236.372.968-.756a.5.5,0,0,1,.807.421l-.244,4.479a.5.5,0,0,1-.236.4l-3.25,2.016-.147,2.8,1.607,1.6,1.507-.327a.5.5,0,0,1,.605.515l-.213,4.064a.5.5,0,0,1-.183.361l-3.194,2.615A.5.5,0,0,1,201.953,273.133Zm-3.148-1.166,2.98.156,2.873-2.353.167-3.19-1.134.246a.5.5,0,0,1-.459-.135l-1.958-1.952a.5.5,0,0,1-.146-.38l.172-3.282a.5.5,0,0,1,.236-.4l3.25-2.016.17-3.12-.248.194a.5.5,0,0,1-.334.105l-7.174-.369-3.362,4.018-.408,7.662Z" transform="translate(-53.574 -76.39)" fill="#fff"/><path d="M228.8,239.744l-1.371-.071-8.369,8.072-.386,7.246-8.773,6.952-.213,4.064,8.463-6.931,10.506.542.291-5.469-3.806-.2.233-4.375,5.39-3.693.32-6.016Z" transform="translate(-58.116 -72.382)" fill="#f7982e"/><path d="M227.431,239.173h.026l3.655.191a.5.5,0,0,1,.473.526l-.32,6.016a.5.5,0,0,1-.217.386l-5.186,3.554-.193,3.629,3.307.174a.5.5,0,0,1,.473.526l-.291,5.469a.5.5,0,0,1-.525.473l-10.313-.532-8.313,6.809a.5.5,0,0,1-.816-.413l.213-4.064a.5.5,0,0,1,.189-.366l8.6-6.812.374-7.021a.5.5,0,0,1,.152-.333l8.369-8.072A.5.5,0,0,1,227.431,239.173Zm3.129,1.164-2.939-.154-8.071,7.784-.375,7.05a.5.5,0,0,1-.189.365l-8.6,6.811-.142,2.709,7.587-6.214a.5.5,0,0,1,.343-.113l10.008.516.238-4.471-3.307-.174a.5.5,0,0,1-.473-.526l.233-4.375a.5.5,0,0,1,.217-.386l5.186-3.554Z" transform="translate(-58.116 -72.382)" fill="#fff"/><path d="M306.559,174.918l-6.33,1.319-.48,9.025,6.475-4.054Z" transform="translate(-82.509 -54.843)" fill="#ffa780"/><path d="M306.559,174.418a.5.5,0,0,1,.5.527l-.335,6.29a.5.5,0,0,1-.234.4l-6.475,4.054a.5.5,0,0,1-.765-.45l.48-9.025a.5.5,0,0,1,.4-.463l6.33-1.319A.5.5,0,0,1,306.559,174.418Zm-.82,6.5.286-5.382-5.317,1.108-.408,7.679Z" transform="translate(-82.509 -54.843)" fill="#fff"/><path d="M142.71,252.941l-8.942,11.165-.252,4.721,7.157.37,4.728-6.063,10.454.539,2,3.942,4.013-2.739-6.88-11.3Z" transform="translate(-37.485 -75.975)" fill="#ffd8c3"/><path d="M142.71,252.441h.026l12.284.634a.5.5,0,0,1,.4.239l6.88,11.3a.5.5,0,0,1-.145.673l-4.013,2.739a.5.5,0,0,1-.728-.186l-1.873-3.684-9.905-.511-4.568,5.858a.5.5,0,0,1-.42.192l-7.157-.37a.5.5,0,0,1-.474-.526l.252-4.721a.5.5,0,0,1,.109-.286l8.942-11.165A.5.5,0,0,1,142.71,252.441ZM154.7,254.06l-11.764-.607-8.681,10.839-.216,4.061,6.4.33,4.568-5.858a.5.5,0,0,1,.42-.192l10.454.539a.5.5,0,0,1,.42.273l1.747,3.435,3.152-2.151Z" transform="translate(-37.485 -75.975)" fill="#fff"/><path d="M154.5,251.233l.245-4.6-6.752-.348.079-1.5-9.591-.5-6.346,7.351-.452,8.477,1.675.088-.082,1.567,8.94-11.163Z" transform="translate(-36.988 -73.63)" fill="#ffd8c3"/><path d="M138.477,243.782h.026l9.591.5a.5.5,0,0,1,.474.526l-.053,1,6.252.322a.5.5,0,0,1,.474.526l-.245,4.6a.5.5,0,0,1-.525.473l-12.028-.618-8.78,10.963a.5.5,0,0,1-.89-.339l.056-1.068-1.176-.062a.5.5,0,0,1-.473-.526l.452-8.477a.5.5,0,0,1,.121-.3l6.346-7.351A.5.5,0,0,1,138.477,243.782Zm9.066,1.469-8.847-.457-6.074,7.036-.416,7.807,1.175.062a.5.5,0,0,1,.473.526v.016l7.969-9.95a.5.5,0,0,1,.416-.187l11.786.605.192-3.605-6.252-.322a.5.5,0,0,1-.474-.526Z" transform="translate(-36.988 -73.63)" fill="#fff"/><path d="M178.534,244.774l-12.489-.645-.136,2.6-2.691-.141-.245,4.607,17.918.925.026-.5Z" transform="translate(-45.464 -73.588)" fill="#ffd8c3"/><path d="M166.045,243.629h.026l12.489.645a.5.5,0,0,1,.446.335l2.384,6.842a.5.5,0,0,1,.027.191l-.026.5a.5.5,0,0,1-.525.473l-17.918-.925a.5.5,0,0,1-.474-.526l.245-4.607a.5.5,0,0,1,.526-.473l2.191.115.11-2.1A.5.5,0,0,1,166.045,243.629Zm12.128,1.627-11.654-.6-.11,2.1a.5.5,0,0,1-.526.473l-2.192-.115-.192,3.608,16.879.871Z" transform="translate(-45.464 -73.588)" fill="#fff"/><path d="M169.856,265.107l5.324-3.634,3.209.168,2.276-2.626.225-4.282-17.913-.925Z" transform="translate(-45.464 -76.21)" fill="#ffd8c3"/><path d="M169.856,265.607a.5.5,0,0,1-.427-.24l-6.88-11.3a.5.5,0,0,1,.453-.759l17.913.925a.5.5,0,0,1,.474.526l-.225,4.282a.5.5,0,0,1-.122.3l-2.276,2.626a.5.5,0,0,1-.4.172l-3.04-.16-5.184,3.539A.5.5,0,0,1,169.856,265.607Zm-5.96-11.25,6.114,10.04,4.889-3.337a.5.5,0,0,1,.308-.086l2.965.156,2-2.311.189-3.611Z" transform="translate(-45.464 -76.21)" fill="#fff"/><path d="M195.844,251.329l1.738-3.955-2.893-.152-.677,1.545-3.368-.174-.129,2.46,2.437.128,1.369.071Z" transform="translate(-52.923 -74.426)" fill="#ffd8c3"/><path d="M195.844,251.829h-.025l-1.524-.076-3.807-.2a.5.5,0,0,1-.473-.526l.129-2.46a.5.5,0,0,1,.525-.473l3.023.156.539-1.229a.5.5,0,0,1,.484-.3l2.893.152a.5.5,0,0,1,.432.7L196.3,251.53A.5.5,0,0,1,195.844,251.829Zm-4.8-1.248,3.307.173,1.179.059,1.308-2.977-1.825-.1-.539,1.228a.5.5,0,0,1-.484.3l-2.869-.148Z" transform="translate(-52.923 -74.426)" fill="#fff"/><path d="M77.952,233.812l-5.429-.28-2.873,4.24.009,1.739,1.624.085,2.066-2.456-.233,4.377-1.682,1.008-.471,8.842,1.523.08,2.09-2.909,2.538.133L74.443,251l-.2,3.737,3.859.2,2.771-2.325.274-5.149-3.716-3.845Z" transform="translate(-20.187 -70.718)" fill="#ffd8c3"/><path d="M72.522,233.032h.026l5.429.28a.5.5,0,0,1,.474.526l-.5,9.589,3.565,3.688a.5.5,0,0,1,.14.374l-.274,5.149A.5.5,0,0,1,81.2,253l-2.771,2.325a.5.5,0,0,1-.348.116l-3.859-.2a.5.5,0,0,1-.473-.525l.2-3.737a.5.5,0,0,1,.171-.351l1.739-1.517-1.032-.054-1.93,2.687a.5.5,0,0,1-.432.208l-1.523-.08a.5.5,0,0,1-.473-.526l.471-8.842a.5.5,0,0,1,.242-.4l1.454-.871.14-2.62-1.1,1.313a.5.5,0,0,1-.409.177l-1.624-.085a.5.5,0,0,1-.474-.5l-.009-1.739a.5.5,0,0,1,.086-.283l2.873-4.24A.5.5,0,0,1,72.522,233.032Zm4.9,1.254-4.648-.24-2.628,3.878.006,1.112.9.047,1.906-2.265a.5.5,0,0,1,.882.348l-.233,4.377a.5.5,0,0,1-.242.4l-1.454.871-.43,8.077.75.04,1.93-2.687a.5.5,0,0,1,.432-.208l2.538.133a.5.5,0,0,1,.3.876l-2.509,2.189-.159,3.026,3.163.166,2.454-2.059.251-4.715-3.564-3.688a.5.5,0,0,1-.14-.374Z" transform="translate(-20.187 -70.718)" fill="#fff"/><path d="M91.53,239.626l-3.35-.176-3.371-2.634s.123-1.4.207-2.691l-2.5-.131-1.676-.087-.522,9.8,3.716,3.846.184-3.509,2.131.112,5.1-3.165Z" transform="translate(-23.077 -70.82)" fill="#ffd8c3"/><path d="M80.84,233.407h.027l4.175.219a.5.5,0,0,1,.473.532c-.061.947-.145,1.959-.184,2.431l3.033,2.371,3.192.167a.5.5,0,0,1,.473.527l-.075,1.368a.5.5,0,0,1-.236.4l-5.1,3.165a.5.5,0,0,1-.29.074l-1.632-.086-.158,3.01a.5.5,0,0,1-.859.321l-3.716-3.846a.5.5,0,0,1-.14-.374l.522-9.8A.5.5,0,0,1,80.84,233.407Zm3.642,1.191-3.169-.166-.484,9.087,2.766,2.862.124-2.361a.5.5,0,0,1,.526-.473l1.975.1,4.75-2.945L91,240.1l-2.849-.149a.5.5,0,0,1-.282-.105L84.5,237.21a.5.5,0,0,1-.19-.438C84.312,236.76,84.4,235.708,84.483,234.6Z" transform="translate(-23.077 -70.82)" fill="#fff"/><path d="M85.523,259.869l-6.274,6.257,5.213.269,1.767,6.3,11.033-11.533-3.335-6.2-8.12-.419Z" transform="translate(-22.787 -76.407)" fill="#ffd8c3"/><path d="M85.807,254.037h.026l8.12.419a.5.5,0,0,1,.415.263l3.335,6.2a.5.5,0,0,1-.079.582L86.591,273.039a.5.5,0,0,1-.843-.211l-1.67-5.953-4.854-.251a.5.5,0,0,1-.327-.853l6.138-6.121.274-5.14A.5.5,0,0,1,85.807,254.037Zm7.813,1.4-7.34-.379-.257,4.834a.5.5,0,0,1-.146.327L80.4,265.685l4.088.211a.5.5,0,0,1,.456.364l1.53,5.454L96.65,261.077Z" transform="translate(-22.787 -76.407)" fill="#fff"/><path d="M103.857,238.376l.391-7.327-7.513-.388L93.563,233.6l-6.879-.355c-.084,1.29-.206,2.688-.206,2.688l3.371,2.64,3.35.176-.072,1.369-5.1,3.164-.254,4.786,8.121.419.44-5.464Z" transform="translate(-24.745 -69.941)" fill="#ffd8c3"/><path d="M96.734,230.161h.026l7.513.388a.5.5,0,0,1,.474.526l-.391,7.327a.5.5,0,0,1-.237.4l-7.313,4.516-.42,5.212a.5.5,0,0,1-.524.459l-8.121-.419a.5.5,0,0,1-.474-.526l.254-4.786a.5.5,0,0,1,.236-.4l4.882-3.026.032-.608-2.85-.15a.5.5,0,0,1-.282-.106l-3.371-2.64a.5.5,0,0,1-.19-.437c0-.014.123-1.407.206-2.676a.5.5,0,0,1,.525-.467l6.668.344,3.016-2.8A.5.5,0,0,1,96.734,230.161Zm6.987,1.361-6.8-.351-3.016,2.8a.5.5,0,0,1-.366.133l-6.388-.33c-.055.786-.118,1.546-.151,1.936l3.033,2.375,3.192.167a.5.5,0,0,1,.473.525l-.072,1.369a.5.5,0,0,1-.236.4l-4.883,3.026-.214,4.025,7.136.368.4-4.98a.5.5,0,0,1,.236-.385l7.306-4.512Z" transform="translate(-24.745 -69.941)" fill="#fff"/><path d="M84.009,276.992l-1.767-6.3-5.215-.269L71.8,275.639l-.752,14.13,3.756.2.32-6.016,1.827.1-.611,11.48,3.045.16,7.666-7.841Z" transform="translate(-20.566 -80.71)" fill="#ffd8c3"/><path d="M77.027,269.924h.026l5.215.269a.5.5,0,0,1,.456.364l4.81,17.151a.5.5,0,0,1-.124.485l-7.666,7.841a.5.5,0,0,1-.384.15l-3.045-.16a.5.5,0,0,1-.473-.526l.585-10.98-.828-.044-.294,5.517a.5.5,0,0,1-.525.473l-3.756-.2a.5.5,0,0,1-.473-.526l.752-14.13a.5.5,0,0,1,.146-.327l5.227-5.215A.5.5,0,0,1,77.027,269.924Zm4.831,1.25-4.635-.239-4.934,4.922L71.574,289.3l2.757.145.294-5.517a.5.5,0,0,1,.526-.473l1.827.1a.5.5,0,0,1,.473.526l-.585,10.98,2.32.122,7.307-7.473Z" transform="translate(-20.566 -80.71)" fill="#fff"/><path d="M113.875,243.009l-6.6-.341.077-1.423-7.528,4.65-.443,5.461,3.334,6.2,12.8.661.808-13.349Z" transform="translate(-28.24 -72.807)" fill="#ffd8c3"/><path d="M107.352,240.744a.5.5,0,0,1,.5.527l-.05.923,6.1.315a.5.5,0,0,1,.277.1l2.445,1.863a.5.5,0,0,1,.2.428l-.808,13.349a.5.5,0,0,1-.525.469l-12.8-.661a.5.5,0,0,1-.415-.263l-3.334-6.2a.5.5,0,0,1-.058-.277l.443-5.461a.5.5,0,0,1,.236-.385l7.528-4.65A.5.5,0,0,1,107.352,240.744ZM113.7,243.5l-6.445-.333a.5.5,0,0,1-.473-.526l.025-.469-6.5,4.014-.41,5.062,3.131,5.826,12.02.621.762-12.588Z" transform="translate(-28.24 -72.807)" fill="#fff"/><path d="M88.822,275.15,91.865,286l20.757-21.224.03-.5-12.8-.661Z" transform="translate(-25.38 -78.866)" fill="#ffd8c3"/><path d="M91.865,286.5a.5.5,0,0,1-.481-.365l-3.043-10.85a.5.5,0,0,1,.12-.481l11.033-11.537a.5.5,0,0,1,.387-.154l12.8.661a.5.5,0,0,1,.473.529l-.03.5a.5.5,0,0,1-.142.32L92.223,286.349A.5.5,0,0,1,91.865,286.5Zm-2.484-11.21,2.732,9.742,19.846-20.293-11.9-.614Z" transform="translate(-25.38 -78.866)" fill="#fff"/><path d="M2.147,292.989,1.814,296.4,4.2,297.482l15.622-12.357.143-2.734-3.3-.993Z" transform="translate(-1.814 -83.683)" fill="#ffd8c3"/><path d="M4.2,297.982a.5.5,0,0,1-.207-.045l-2.385-1.082a.5.5,0,0,1-.291-.5l.333-3.411a.5.5,0,0,1,.186-.342l14.513-11.591a.5.5,0,0,1,.456-.088l3.3.993a.5.5,0,0,1,.355.505l-.143,2.734a.5.5,0,0,1-.189.366L4.509,297.875A.5.5,0,0,1,4.2,297.982Zm-1.852-1.89,1.781.808,15.206-12.028.111-2.117-2.677-.8-14.143,11.3Z" transform="translate(-1.814 -83.683)" fill="#fff"/><path d="M267.6,246.572,268.05,238l-5.165,5.218-12.263,12.392,16.6.788,2.334-4.752.063-.129,2.132.112-.5,9.434,3.35.176,3.017-2.178.291-5.47.344-6.47Z" transform="translate(-69.203 -71.929)" fill="#ffa780"/><path d="M268.05,237.5a.5.5,0,0,1,.5.526l-.427,8.069,10.156.525a.5.5,0,0,1,.473.526l-.635,11.941a.5.5,0,0,1-.207.379l-3.017,2.178a.5.5,0,0,1-.319.094l-3.35-.176a.5.5,0,0,1-.473-.526l.476-8.935-1.3-.068-2.252,4.585a.5.5,0,0,1-.473.279l-16.6-.788a.5.5,0,0,1-.332-.851l17.428-17.61A.5.5,0,0,1,268.05,237.5Zm9.676,10.094-10.156-.525a.5.5,0,0,1-.473-.526l.384-7.257-4.241,4.284-11.473,11.594,15.152.719,2.253-4.586a.5.5,0,0,1,.475-.279l2.132.112a.5.5,0,0,1,.473.526l-.476,8.935,2.674.14,2.68-1.935Z" transform="translate(-69.203 -71.929)" fill="#fff"/><path d="M384.172,83.183l-14.429-18.4-.92-.048-9.458,7.036L359.04,77.8l-5.937-.305-.284,5.332L338.64,82.1,339.8,60.389l9.221-6.859.432-8.116,17.817.919.5-9.4,6.576-5.952L375.5,9.191l20.551,1.06L417.428,44.4l7.561.39,6.529-3.2-.474,8.9-5.386,2.641-.233,3.845,7.738.4-.292,5.572-8.812,4.643-23.583-1.216ZM340.744,80.2l10.185.525.284-5.332,5.938.306.231-4.292-5.936-.306.491-9.244,9.815.506-.284,5.346,6.741-5.015,2.548.134,13.576,17.316L399.673,64.32l23.941,1.235,7.321-3.857.128-2.438-7.755-.4.425-7.021,5.377-2.636.23-4.321-5.308,2.605.031-.743-7.777-.4L394.911,12.195l-17.517-.9-1.1,20.624-6.576,5.952-.563,10.566-17.817-.919-.376,7.06-9.221,6.859Zm12.8-10.993,5.82.3.279-5.25-5.82-.3Z" transform="translate(-93.327 -10.241)" fill="#fff"/><path d="M237.778,223.681l-7.174-.37.33-6.3-8.159,1.484-.179-.984-.246.969-4.863-1.235.382-7.149,10.049.518.233-4.374,10.526.543Zm-5.072-2.264,3.181.164.686-12.906-6.532-.337-.233,4.374-10.049-.518-.188,3.515,3.062.778,10.431-1.9Z" transform="translate(-60.51 -63.61)" fill="#fff"/><path d="M293.851,211.763l13.817.712-.835,15.672-18.342-.946.58-10.878Zm11.713,2.607-10.956-.565-3.583,3.419-.431,8.085,14.347.74Z" transform="translate(-79.744 -65.099)" fill="#fff"/><path d="M272.7,205.565l14.991.773-.276,5.224-4.182,3.99-.537,10.08-6.336-.327-10.331,10.436-6.319-.326.512-9.624,11.963-10.533.1-2Zm12.888,2.667-11-.567-.452,8.538-11.964,10.534-.361,6.784,3.424.177,10.331-10.436,5.237.27.473-8.878,4.181-3.99Z" transform="translate(-71.948 -63.428)" fill="#fff"/><path d="M304.554,205.7l-14.382-.742.2-3.827-13-.67.447-8.377,18.33.945,16.792-14.986-.725,13.627-7.214,5.474Zm-12.28-2.636,10.389.536.4-7.489,7.214-5.474.421-7.9-13.822,12.335-17.157-.885-.234,4.383,12.993.67Z" transform="translate(-76.734 -56.326)" fill="#fff"/><path d="M136.615,221.67l-5.242-.27L132,209.558l.795.041,10.86-8.076,20.395,1.052-.411,7.654-3.158,3.35-8.146-.418-5.586,4.511-4.873-.252Zm-3.138-2.165,2.477.128,5.265-4.251,4.873.252,5.585-4.511,7.986.409,2.021-2.144.264-4.921-17.674-.912-10.358,7.7Z" transform="translate(-37.19 -62.324)" fill="#fff"/><path d="M212,240.534l.667-12.543-6.242-6.069.922-17.321,9.763.5-.54,10.16,4.068,1.033-1.24,23.284-5.8-.3Zm2.174-3.225,3.332.172,1.047-19.65-4.068-1.033.521-9.8-5.768-.3-.767,14.42,6.242,6.069Z" transform="translate(-57.51 -63.167)" fill="#fff"/><path d="M172.262,202.833l19.358,1-.77,14.437-21.791-1.125.243-4.648,2.593-2.744Zm17.254,2.893-15.363-.792-.3,5.658-2.592,2.743-.1,1.915,17.8.919Z" transform="translate(-47.396 -62.688)" fill="#fff"/><path d="M368.415,132.009l-32.047-1.653.788-14.758,5.28.272.281-5.286,8.7.448-.281,5.287,10.794.557.029-.555-8.936-.461.418-7.832,16.21.837Zm-29.943-3.547,28.052,1.447,1.02-19.151-12.215-.63-.2,3.838,8.934.461-.238,4.55-14.791-.763.281-5.287-4.7-.242-.281,5.286-5.28-.272Z" transform="translate(-92.712 -37.01)" fill="#fff"/><path d="M335.993,135.906l17.429.9-1.406,26.426-17.43-.9Zm15.326,2.793-13.435-.693-1.194,22.431,13.435.694Z" transform="translate(-92.229 -44.561)" fill="#fff"/><path d="M234.155,217.748l-.928,17.441-1.936-.1-9.884,9.531,1.32-24.793Zm-2.819,15.339.688-12.918-7.383,1.342-.966,18.143,6.854-6.609Z" transform="translate(-61.597 -66.771)" fill="#fff"/><path d="M115.165,211.725l13.545.7-.526,9.844,3.859.2-.3,5.645,2.767,3.083-3.669,4.18-5.8-.3-4.016-4.868-6.848-.353-2.3-4.7.494-9.285Zm11.441,2.593-10.414-.538-1.85,2.748-.437,8.214,1.555,3.177,6.551.337,4.016,4.869,3.95.2,1.858-2.117-2.134-2.378.239-4.473-3.86-.2Z" transform="translate(-31.899 -65.09)" fill="#fff"/><path d="M338.147,190.224l-15.762-.813.648-12.182,8.739-7.8.613.033,17.049.88Zm-13.658-2.707,12.528.646,9.079-15.994-13.606-.7-7.5,6.7Z" transform="translate(-88.924 -53.632)" fill="#fff"/><path d="M311.74,212.617l17.632.91-.835,15.67-17.632-.906Zm15.528,2.8-13.637-.7-.622,11.679,13.637.7Z" transform="translate(-85.815 -65.338)" fill="#fff"/><path d="M212.255,249.359l6.551.339-.462,8.7-9.3,7.374-2.536.557-2.661-2.652.223-4.251,3.477-2.151.235-4.414Zm4.447,2.233-3.8-.2-3.171,2.477-.242,4.55-3.476,2.15-.121,2.314,1.255,1.251,1.018-.223,8.234-6.527Z" transform="translate(-56.81 -75.281)" fill="#fff"/><path d="M288.443,230.211l18.341.946-.523,9.838-18.341-.946Zm16.238,2.84-14.347-.74-.311,5.843,14.347.74Z" transform="translate(-79.589 -70.103)" fill="#fff"/><path d="M252.03,181.113l18.443.951-.411,7.653-8.533-.44-.259,4.255-8.4,10.21-.207,3.946-4.076,3.291-5.569-.292.576-10.817,2.2.115,5.888-12.42Zm16.339,2.845-14.449-.745-.26,4.852-6.63,13.987-1.539-.081-.363,6.823,2.8.147,2.786-2.249.194-3.712,8.4-10.217.34-5.585,8.519.439Z" transform="translate(-67.43 -56.805)" fill="#fff"/><path d="M248.6,213.55l19,.981-.2,3.836L255.438,228.9l-.465,8.781-8.967-.462-3.207-2.908-7.953-.412.565-10.61,5.178.267.324-6.089,4.8.252,2.786-2.249Zm16.9,2.875-15.007-.775-.043.816-4.076,3.291-3.572-.187-.324,6.088-5.178-.267-.352,6.617,1.284.067,5.38.277,3.207,2.908,6.26.323.4-7.626,11.963-10.535Z" transform="translate(-65.215 -65.591)" fill="#fff"/><path d="M262.7,196.2l10.675.551-.8,15.075-19-.98.2-3.79Zm8.571,2.445-7.667-.4-7.87,9.569-.059,1.133,15.007.774Z" transform="translate(-70.286 -60.884)" fill="#fff"/><path d="M327.22,213.717l17.422.9-20.278,31.395-3.9-9.065-10.126-.523.524-9.834,15.634.806Zm13.866,2.717-11.975-.617-.728,13.676-15.634-.806-.311,5.84,9.367.484,2.913,6.764Z" transform="translate(-85.66 -65.636)" fill="#fff"/><path d="M287.9,240.96l18.338.947-.22,4.2-3.688,3.818-14.867-.767Zm16.236,2.841-14.345-.741-.224,4.2,11.957.617,2.536-2.625Z" transform="translate(-79.467 -73.015)" fill="#fff"/><path d="M308.222,242.121l11.366.586,3.862,8.979-8.1,12.548-13.2-.681.243-4.641,5.309-6.857Zm10.02,2.519-8.127-.419-.1,1.826-.358,6.74-5.308,6.856-.106,2.017,10.046.518,6.9-10.681Z" transform="translate(-83.442 -73.329)" fill="#fff"/><path d="M299.65,258.586l-12.656-.655.45-8.467,16.728.863-4.3,4.1ZM289.1,256.038l8.66.448.155-2.954,1.517-1.446-10.094-.521Z" transform="translate(-79.339 -75.318)" fill="#fff"/><path d="M279.126,229.828l7.233.373-.854,16.036-12.658-.653.53-9.95Zm5.13,2.267-4.338-.224-4.583,4.629-.383,7.189,8.663.447Z" transform="translate(-75.507 -69.992)" fill="#fff"/><path d="M357.157,137l21.488,1.109-1.406,26.425-21.488-1.109Zm19.385,3-3.874-.2-13.619-.7-1.194,22.431,17.494.9Z" transform="translate(-97.961 -44.857)" fill="#fff"/><path d="M320.289,194.14l33.874,1.747-9.243,13.646-1.1,1.712L311.907,209.6l.505-9.486Zm30.23,3.562-29.6-1.527-6.556,4.973-.349,6.559,28.754,1.483.494-.767Z" transform="translate(-86.086 -60.325)" fill="#fff"/><path d="M360.942,191.426l-19.777-1.02,11.288-19.884,21.878,1.129ZM344.5,188.575l15.414.8,10.769-15.906-17.1-.882Z" transform="translate(-94.178 -53.931)" fill="#fff"/><path d="M237.865,238.886l6.378.329,3.205,2.909,14.36.74-14.152,14.3-9.821-.507.237-4.515-.91-.048Zm5.562,2.289-3.671-.189-.49,9.213.59.031.143-2.735,4.435.232-.347,6.511-4.111-.215-.039.736,6.928.358,10.38-10.487-10.612-.547Zm-1.1,8.445-.439-.023-.132,2.517.436.023Z" transform="translate(-65.842 -72.453)" fill="#fff"/><path d="M153.007,214.68l9.453.488-.227,4.282-.782,14.669-22.122-1.141-3-3.347.315-5.914,5.906-4.778,4.874.252Zm7.35,2.382-6.689-.345-5.588,4.511-4.872-.252-4.618,3.736-.223,4.2,1.9,2.113,19.3,1Z" transform="translate(-38.522 -65.888)" fill="#fff"/><path d="M168.893,219.723l21.791,1.125-.26,4.973-6.612,3.636-.358,6.731-15.4-.794Zm19.689,3.019-17.8-.919-.622,11.675,11.4.588.311-5.847,6.611-3.635Z" transform="translate(-47.126 -67.263)" fill="#fff"/><path d="M206.232,249.035l-9.8-.505,6.9-8.248.806-15.118,8.145,7.921-.623,11.705Zm-5.692-2.3,5.048.26.82-.642,3.307-2.582.526-9.889-4.337-4.218-.607,11.386Z" transform="translate(-55.082 -69.062)" fill="#fff"/><path d="M194.326,204.061l9.612.5L202.28,235.68l-6.557-.345-3.19-3.179-6.1-.315.417-7.844,6.611-3.633.15-2.862Zm7.508,2.389-5.617-.289-.609,11.448-.208,3.973-6.612,3.634-.252,4.733,4.865.251,3.19,3.18,3.8.2Z" transform="translate(-52.102 -63.021)" fill="#fff"/><path d="M202.287,273.652l-4.088-.214-6.3-5.647.473-8.879,4.163-4.975,7.548.388,2.554-2-.391,7.2-3.47,2.153-.121,2.315,1.256,1.252,2.52-.547-.3,5.813Zm-3.279-2.175,2.611.137,2.552-2.09.121-2.316-1.026.223-2.66-2.652.223-4.249,3.473-2.155.11-2.03-6.988-.36-3.095,3.7-.386,7.256Z" transform="translate(-53.574 -76.39)" fill="#fff"/><path d="M227.049,238.652l5.089.266-.4,7.508-5.39,3.693L226.2,253l3.806.2-.4,7.466-11.117-.573-9.914,8.12.355-6.775,8.774-6.952.383-7.189Zm2.985,2.159-2.222-.116-7.773,7.5-.389,7.3-8.773,6.951-.071,1.353,7.011-5.742,9.9.51.185-3.473-3.806-.2.312-5.867,5.39-3.693Z" transform="translate(-58.116 -72.382)" fill="#fff"/><path d="M307.626,173.674l-.431,8.106-8.547,5.351.623-11.716Zm-2.373,6.962.238-4.474-4.3.9-.337,6.334Z" transform="translate(-82.509 -54.843)" fill="#fff"/><path d="M142.25,251.916l13.324.687,7.648,12.563-5.737,3.916-2.258-4.44-9.356-.482-4.728,6.063-8.678-.448.322-6.042Zm12.165,2.63-11.244-.58-8.42,10.514-.181,3.4,5.637.291,4.728-6.063,11.552.6,1.751,3.443,2.29-1.563Z" transform="translate(-37.485 -75.975)" fill="#fff"/><path d="M138.04,243.258l11.08.572-.079,1.5,6.752.348-.351,6.6-12.769-.656L132.11,264.815l.193-3.671-1.676-.088.524-9.818Zm8.977,2.466-8.1-.418-5.8,6.721-.381,7.136,1.288.068,7.732-9.654,11.8.606.139-2.607-6.752-.348Z" transform="translate(-36.988 -73.63)" fill="#fff"/><path d="M165.1,243.079l14.159.731,2.669,7.663-.089,1.695-19.916-1.028.351-6.6,2.69.141Zm12.712,2.659-10.819-.558-.136,2.6-2.692-.142-.139,2.609,15.637.807Z" transform="translate(-45.464 -73.588)" fill="#fff"/><path d="M169.549,266.527l-8.412-13.814,20.8,1.074-.295,5.625-2.822,3.254-3.36-.176Zm-4.735-11.622,5.348,8.782,4.732-3.231,3.058.16,1.731-2,.154-2.94Z" transform="translate(-45.464 -76.21)" fill="#fff"/><path d="M196.483,252.362l-2.212-.11L189.463,252l.234-4.457,3.676.189.678-1.546,5.029.264Zm-4.918-2.254,3.641.188.878-2-.757-.04-.677,1.544-3.06-.158Z" transform="translate(-52.923 -74.426)" fill="#fff"/><path d="M72.011,232.5l6.992.361-.546,10.371,3.716,3.845-.321,6.018-3.405,2.858-5.251-.275.2-3.789-.417.58-3.068-.162.552-10.372,1.682-1.008.046-.863-.463.551-3.064-.16-.015-2.993Zm2.152,2.114-1.129-.058-2.383,3.517,0,.485.184.01Zm2.738.141-2.418-.125-.4,7.467L72.4,243.109l-.387,7.276,2.065-2.875,5.548.292-4.21,3.672L75.3,253.79l2.467.129,2.136-1.793.228-4.281L76.414,244Z" transform="translate(-20.187 -70.718)" fill="#fff"/><path d="M79.9,232.856l6.184.324-.066,1.01c-.052.8-.119,1.64-.163,2.171l2.7,2.107,4.036.212-.159,2.889-5.814,3.6-1.445-.076-.252,4.806L79.3,244.092Zm4.052,2.215-2.161-.113-.446,8.371,1.816,1.879L83.272,243l2.817.148,4.166-2.583-2.443-.128-4.048-3.163.048-.541C83.814,236.719,83.88,235.969,83.947,235.071Z" transform="translate(-23.077 -70.82)" fill="#fff"/><path d="M84.862,253.487l9.68.5,3.946,7.34L85.74,274.652l-2.046-7.295-6.745-.348,7.6-7.576Zm8.451,2.439-6.56-.339-.251,4.719-4.951,4.938,3.681.19,1.487,5.3,9.319-9.741Z" transform="translate(-22.787 -76.407)" fill="#fff"/><path d="M96.364,229.641l8.936.461-.472,8.85-7.543,4.658-.478,5.928-10.091-.521.335-6.308,4.877-3.023-2.447-.128-4.047-3.169.048-.54c0-.014.123-1.4.2-2.665l.064-.985,7.443.384ZM103.2,232l-6.091-.314-3.171,2.943-6.321-.326c-.034.454-.068.873-.093,1.184l2.7,2.112,4.033.212-.151,2.889-5.105,3.164-.174,3.264,6.15.318.4-5,7.514-4.64Z" transform="translate(-24.745 -69.941)" fill="#fff"/><path d="M76.635,269.4l6.376.329,5.159,18.4-8.386,8.577-4.5-.236.291-5.465L70,290.715l.826-15.513Zm4.838,2.252-4.054-.209-4.64,4.63L72.1,288.822l1.759.092.32-6.016,3.824.2-.611,11.48,1.594.084,6.947-7.105Z" transform="translate(-20.566 -80.71)" fill="#fff"/><path d="M108.454,239.388l-.125,2.332,5.907.305,3.115,2.374-.9,14.87-14.349-.741-3.74-6.961.507-6.26Zm5.061,4.6-7.292-.377.028-.515-5.471,3.379-.378,4.663,2.927,5.448,11.244.581.716-11.827Z" transform="translate(-28.24 -72.807)" fill="#fff"/><path d="M91.37,287.936l-3.664-13.066,11.743-12.28,14.261.736-.112,1.881Zm-1.431-12.508,2.421,8.634,18.466-18.882-10.565-.545Z" transform="translate(-25.38 -78.866)" fill="#fff"/><path d="M4.341,298.645l-3.592-1.63.443-4.544,15.253-12.182L21,281.659l-.208,3.97Zm-1.462-2.86,1.178.534,14.789-11.7.079-1.5-2.05-.616-13.773,11Z" transform="translate(-1.814 -83.683)" fill="#fff"/><path d="M269.188,235.433l-.539,10.193,10.656.551-.714,13.418-3.691,2.664-4.7-.247.5-9.434-.474-.025-2.4,4.878-19.5-.926ZM277.2,248.07l-10.656-.551.368-6.946-3.317,3.351-10.684,10.8,13.7.651,2.4-4.884,3.791.2-.5,9.435,2,.1,2.344-1.692Z" transform="translate(-69.203 -71.929)" fill="#fff"/></g><g transform="translate(800.894 6133.782)"><text transform="translate(4.106 20.218)" fill="#3f3f3f" font-size="14" font-family="NotoSansJP-Bold, Noto Sans JP" font-weight="700"><tspan x="0" y="16">中部地方</tspan></text><text transform="translate(68.106 -0.782)" fill="#ef671f" font-size="40" font-family="Montserrat-MediumItalic, Montserrat" font-weight="500" font-style="italic"><tspan x="0" y="39">11</tspan><tspan y="39" font-size="28">%</tspan></text><path d="M331.514,211.978,310.285,101.307H190.652v-2H311.938L333.478,211.6Z" transform="translate(-189.145 -55.091)" fill="#ef671f"/><circle cx="3" cy="3" r="3" transform="translate(140.106 153.152)" fill="#3f3f3f"/></g><g transform="translate(1121.894 6283.782)"><text transform="translate(7.106 -24.782)" fill="#3f3f3f" font-size="14" font-family="NotoSansJP-Bold, Noto Sans JP" font-weight="700"><tspan x="0" y="16">関東地方</tspan></text><text transform="translate(3.106 -8.782)" fill="#ef671f" font-size="48" font-family="Montserrat-MediumItalic, Montserrat" font-weight="500" font-style="italic"><tspan x="0" y="46">49</tspan><tspan y="46" font-size="28">%</tspan></text><path d="M511.458,101.307h-96.99l-.116-.028L277.194,68.167l.469-1.944L414.706,99.307h96.752Z" transform="translate(-418.352 -55.091)" fill="#ef671f"/><circle cx="3" cy="3" r="3" transform="translate(-143.978 9.218)" fill="#3f3f3f"/></g><g transform="translate(624.894 6219.782)"><text transform="translate(3.106 20.218)" fill="#3f3f3f" font-size="14" font-family="NotoSansJP-Bold, Noto Sans JP" font-weight="700"><tspan x="0" y="16">近畿地方</tspan></text><text transform="translate(67.106 -4.782)" fill="#ef671f" font-size="44" font-family="Montserrat-MediumItalic, Montserrat" font-weight="500" font-style="italic"><tspan x="0" y="43">17</tspan><tspan y="43" font-size="28">%</tspan></text><path d="M477.2,134.365,319.921,101.307H190.652v-2H320.129l157.478,33.1Z" transform="translate(-189.145 -55.091)" fill="#ef671f"/><circle cx="3" cy="3" r="3" transform="translate(285.106 75.152)" fill="#3f3f3f"/></g></g></svg>