<svg xmlns="http://www.w3.org/2000/svg" xmlns:xlink="http://www.w3.org/1999/xlink" width="608" height="220" viewBox="0 0 608 220"><defs><clipPath id="a"><rect width="608" height="220" transform="translate(616 6129)" fill="#fff" stroke="#707070" stroke-width="1"/></clipPath></defs><g transform="translate(-616 -6129)" clip-path="url(#a)"><g transform="translate(-28 -23)"><circle cx="58" cy="58" r="58" transform="translate(911 6159)" fill="#fff"/><path d="M58,1a56.729,56.729,0,0,0-31.869,9.734A57.169,57.169,0,0,0,5.479,35.813a56.924,56.924,0,0,0,5.255,54.055,57.169,57.169,0,0,0,25.079,20.653,56.924,56.924,0,0,0,54.055-5.255,57.169,57.169,0,0,0,20.653-25.079,56.924,56.924,0,0,0-5.255-54.055A57.169,57.169,0,0,0,80.187,5.479,56.642,56.642,0,0,0,58,1m0-1A58,58,0,1,1,0,58,58,58,0,0,1,58,0Z" transform="translate(911 6159)" fill="#ef671f"/><text transform="translate(924 6224)" fill="#ef671f" font-size="18" font-family="NotoSansJP-Bold, Noto Sans JP" font-weight="700"><tspan x="0" y="0">アルバイト</tspan></text></g><g transform="translate(161 10)"><circle cx="69" cy="69" r="69" transform="translate(911 6159)" fill="#fff"/><path d="M69,1A67.678,67.678,0,0,0,30.981,12.613,68.2,68.2,0,0,0,6.343,42.532a67.909,67.909,0,0,0,6.269,64.487,68.2,68.2,0,0,0,29.919,24.638,67.909,67.909,0,0,0,64.487-6.269,68.2,68.2,0,0,0,24.638-29.919,67.909,67.909,0,0,0-6.269-64.487A68.2,68.2,0,0,0,95.468,6.343,67.573,67.573,0,0,0,69,1m0-1A69,69,0,1,1,0,69,69,69,0,0,1,69,0Z" transform="translate(911 6159)" fill="#ef671f"/><text transform="translate(945.5 6236)" fill="#ef671f" font-size="23" font-family="NotoSansJP-Bold, Noto Sans JP" font-weight="700"><tspan x="0" y="0">正社員</tspan></text></g><g transform="translate(39 66)"><circle cx="45" cy="45" r="45" transform="translate(931 6184)" fill="#fff"/><path d="M45,1A44.012,44.012,0,0,0,27.874,85.543,44.012,44.012,0,0,0,62.126,4.457,43.724,43.724,0,0,0,45,1m0-1A45,45,0,1,1,0,45,45,45,0,0,1,45,0Z" transform="translate(931 6184)" fill="#ef671f"/><text transform="translate(946 6235)" fill="#ef671f" font-size="15" font-family="NotoSansJP-Bold, Noto Sans JP" font-weight="700"><tspan x="0" y="0">派遣社員</tspan></text></g><g transform="translate(-3 -52)"><g transform="translate(-22 -6)"><g transform="translate(0 -51)"><g transform="translate(0 -54.149)"><g transform="translate(874 6300.454)"><rect width="8" height="113.696" fill="#fff3ed"/><rect width="8" height="12.149" transform="translate(0 101.547)" fill="#ffc3a3"/></g><g transform="translate(822 6300.454)"><rect width="8" height="113.696" fill="#fff3ed"/><rect width="8" height="17.009" transform="translate(0 96.688)" fill="#ffd789"/></g><g transform="translate(770 6300.454)"><rect width="8" height="113.696" fill="#fff3ed"/><rect width="8" height="26.728" transform="translate(0 86.968)" fill="#ffa780"/></g><g transform="translate(718 6300.454)"><rect width="8" height="113.696" fill="#fff3ed"/><rect width="8" height="87.474" transform="translate(0 26.222)" fill="#f7982e"/></g><g transform="translate(665 6300.454)"><rect width="9" height="113.696" fill="#fff3ed"/><rect width="9" height="89.903" transform="translate(0 23.793)" fill="#ef671f"/></g></g><rect width="217" height="1" transform="translate(665 6360)" fill="#ef671f"/></g><g transform="translate(64 -1670.079)"><text transform="translate(598 7986.079)" fill="#ef671f" font-size="14" font-family="NotoSansJP-Bold, Noto Sans JP" font-weight="700"><tspan x="0" y="16">正</tspan><tspan x="0" y="33">社</tspan><tspan x="0" y="50">員</tspan></text><text transform="translate(659 7986.079)" fill="#ef671f" font-size="14" font-family="NotoSansJP-Bold, Noto Sans JP" font-weight="700"><tspan x="1" y="16">パ </tspan><tspan x="8" y="33"> </tspan><tspan x="1" y="50">ト</tspan><tspan x="1" y="67">・</tspan></text><text transform="translate(641 7986.079)" fill="#ef671f" font-size="14" font-family="NotoSansJP-Bold, Noto Sans JP" font-weight="700"><tspan x="0" y="16">ア</tspan><tspan x="0" y="33">ル</tspan><tspan x="0" y="50">バ</tspan><tspan x="0" y="67">イ</tspan><tspan x="0" y="84">ト</tspan></text><text transform="translate(703 7986.079)" fill="#ef671f" font-size="14" font-family="NotoSansJP-Bold, Noto Sans JP" font-weight="700"><tspan x="0" y="16">派</tspan><tspan x="0" y="33">遣</tspan><tspan x="0" y="50">社</tspan><tspan x="0" y="67">員</tspan></text><text transform="translate(755 7986.079)" fill="#ef671f" font-size="14" font-family="NotoSansJP-Bold, Noto Sans JP" font-weight="700"><tspan x="0" y="16">契</tspan><tspan x="0" y="33">約</tspan><tspan x="0" y="50">社</tspan><tspan x="0" y="67">員</tspan></text><text transform="translate(806 7986.079)" fill="#ef671f" font-size="14" font-family="NotoSansJP-Bold, Noto Sans JP" font-weight="700"><tspan x="0" y="16">業</tspan><tspan x="0" y="33">務</tspan><tspan x="0" y="50">委</tspan><tspan x="0" y="67">託</tspan></text></g></g><rect width="2" height="11" transform="translate(708 6332)" fill="#ef671f"/></g></g></svg>