<svg xmlns="http://www.w3.org/2000/svg" xmlns:xlink="http://www.w3.org/1999/xlink" width="230" height="210" viewBox="0 0 230 210">
  <defs>
    <style>
      .cls-1 {
        fill: #fff;
        stroke: #707070;
      }

      .cls-2 {
        clip-path: url(#clip-path);
      }

      .cls-3 {
        fill: #ff0132;
      }
    </style>
    <clipPath id="clip-path">
      <rect id="長方形_1103" data-name="長方形 1103" class="cls-1" width="230" height="210" transform="translate(90 1906)"/>
    </clipPath>
  </defs>
  <g id="topPointItemImg01" class="cls-2" transform="translate(-90 -1906)">
    <g id="yahoo-japan-logo-1" transform="translate(82.281 1973.822)">
      <path id="パス_1146" data-name="パス 1146" class="cls-3" d="M155.486,46a27.147,27.147,0,0,0-3.308,1.1c0,1.89-.315,10.555-.315,10.555-.158,3.938-1.89,6.616-6.459,8.507l-1.733-.473c2.205-1.26,3.308-2.521,3.466-3.466.473-1.26.63-4.253.63-9.61,0,0,0-4.1-.158-5.514-.63-.158-3.466-.788-4.411-.945V44.9c1.733,0,5.829.158,7.247.158,1.575,0,3.466,0,5.041-.158Zm73.568,2.521a12.332,12.332,0,0,1-2.205.473c0,1.418.158,11.658.158,14.021,0,.315-.315.473-.788.158-2.205-2.205-9.295-10.24-11.658-13.075,0,1.89.158,9.137.158,10.4a23.492,23.492,0,0,0,3.308.788l.158,1.418h-7.719V61.281a12.347,12.347,0,0,1,2.205-.788c.158-.788.158-10.87.158-11.658-.63,0-1.733-.158-2.521-.158V46.945h5.671c2.048,2.363,6.932,7.719,9.452,10.555,0-2.363-.158-7.877-.158-8.822a19.758,19.758,0,0,1-2.363-.315l-.158-1.418c.473,0,3.151.158,3.623.158s2.678-.158,3.151-.158Zm-41.9,4.253c0,1.89-1.733,2.678-3.781,2.993v1.418c4.1-.473,6.774-2.048,6.774-4.568v-.158c0-2.836-1.89-5.356-6.3-5.356h-8.507l.315,1.575a15.284,15.284,0,0,0,2.678.158c0,1.89.315,9.925.158,12.288-.473.158-2.048.473-2.678.63l-.158,1.418h9.767v-1.1a30.151,30.151,0,0,0-3.308-.63c0-.473-.158-11.815-.158-12.445a19.1,19.1,0,0,1,3.151.158,3.332,3.332,0,0,1,2.205,3.466M71.678,16.384c-1.1.158-5.829,1.1-7.4,1.418-1.733.473-17.8,13.075-18.9,16.068-.158.945,0,11.973,0,11.973l9.137.63-.315,2.993c-1.26-.158-9.767,0-15.123,0-2.678,0-10.87.315-13.705.158l.315-2.836a18.9,18.9,0,0,0,5.986-.63c1.575-.473,2.836-1.1,2.836-2.678V34.027c-.63-1.733-14.021-18.589-17.486-21.267-.945-.315-7.719-1.1-9.295-1.418l.315-2.836H38.753l-.473,2.678c-1.418.315-7.877.473-9.61.945C33.082,18.589,40.014,27.1,42.219,30.247c1.26-1.733,13.075-10.082,13.39-12.6-1.733-.315-7.247-1.1-8.192-1.1l-.473-2.836H73.411Zm65.534,24.575c-4.884-.315-13.39-.158-18.274,0l.315-2.521c.788,0,4.726-.63,5.671-.788V28.829c-2.363,0-15.911.315-17.959.788v7.877s5.829.63,7.089.788l-.315,2.678c-5.2-.315-15.753-.315-20.795,0l.315-2.836c1.575,0,5.829-.473,6.774-.63.158-1.89.158-5.041.158-8.192V25.363c0-1.418,0-5.2-.158-6.616-1.1,0-5.986-.473-7.247-.473l.315-2.521c4.411.315,17.8.315,21.425,0l-.315,2.363c-1.1,0-5.829.788-7.247.788v6.932h17.959V15.6c-1.26-.158-4.568-.788-5.986-.945l.315-2.363c2.993.158,14.966.158,18.116,0l-.158,2.521c-.945,0-4.411.63-5.671.788v22.37s5.041.63,6.144.788Zm90.582,2.678-3.308.158.63-5.671,3.308.158,3.151-.158-.63,5.514Zm3.781-10.082h-4.884V8.192h11.027l-.945,3.781Z"/>
      <path id="パス_1147" data-name="パス 1147" class="cls-3" d="M158.164,38.281h-2.521c-4.1-.158-11.973-2.363-11.973-9.452V28.2c0-6.932,7.877-9.295,11.973-9.452h2.521c4.1.158,11.973,2.363,11.973,9.452v.63c0,6.932-7.877,9.295-11.973,9.452m18.9-9.925c0-8.034-7.719-12.918-19.534-13.233h-1.26c-12.445.315-19.377,5.2-19.377,13.233v.315c0,7.562,7.562,12.918,19.377,13.233h1.26c11.815-.315,19.377-5.356,19.534-13.233ZM202.589,35.6h-3.466c-4.411-.315-12.445-2.993-12.6-10.555.158-7.562,8.192-10.082,12.6-10.4h3.466c4.411.315,12.445,2.836,12.6,10.4,0,7.562-8.192,10.4-12.6,10.555m20.322-10.555c-.315-8.507-8.349-14.021-21.425-14.336h-.945c-13.075.315-21.267,5.356-21.425,14.178v.315c.315,8.822,8.349,14.021,21.425,14.336h.945c12.918-.315,21.11-5.514,21.425-14.493h0M71.678,33.87c.473-1.1,4.253-9.295,4.253-9.295l3.623,9.295ZM91.212,44.582c-1.418-2.205-6.459-14.966-8.822-20.637l4.253-.63.473-2.205H80.658c-2.363,0-12.445,0-13.39-.158l-.158,2.205,5.041,1.26s-7.4,14.808-8.979,16.856c-1.26.315-4.568,1.1-5.829,1.26l-.315,2.678c.945-.158,14.021,0,15.281,0l.315-2.521-4.568-1.1s2.048-4.253,2.363-4.726c1.418-.315,9.925-.473,9.925-.473l2.993,8.192a46.847,46.847,0,0,1-5.041.63l-.315,2.678H96.726l.315-2.363c-1.1.158-4.568-.788-5.829-.945M206.685,61.123c-1.733-3.623-4.568-10.555-5.356-12.445l2.048-.315.158-1.418-8.349.315v1.1l2.205.315c-1.418,3.151-5.2,11.185-5.829,12.13-.63.158-1.26.473-1.89.63l-.158,1.26c1.89-.158,6.144,0,6.774,0V61.6l-2.048-.63s1.26-3.151,1.733-4.1H201.8l1.575,4.1s-1.418.315-2.521.473l-.158,1.1h8.507l.158-1.26a6.129,6.129,0,0,1-2.678-.158Zm-10.24-5.356c.315-.788,2.521-5.986,2.521-5.986l2.363,5.986Zm-24.89,5.356c-1.1-2.205-3.938-9.137-5.356-12.445l2.205-.473v-1.26l-8.507.315v1.1l2.205.315c-1.418,3.151-5.2,11.185-5.829,12.13a8.882,8.882,0,0,1-1.89.63l-.158,1.26H161V61.6l-2.048-.63s1.26-3.151,1.733-4.1h5.829l1.575,4.1s-1.418.315-2.521.473l-.158,1.1h8.507l.158-1.26a5.62,5.62,0,0,1-2.521-.158Zm-10.24-5.356c.315-.788,2.521-5.986,2.521-5.986l2.363,5.986Z"/>
    </g>
  </g>
</svg>
